<?xml version="1.0" encoding="UTF-8"?>
<svg width="180.5mm" height="101mm" version="1.1" viewBox="0 0 180.5 101" xmlns="http://www.w3.org/2000/svg">
<title>3sat logo</title>
 <g transform="translate(174.2 -139.1)">
  <path d="m-56.65 182.5c-2.495-0.4743-5.157-1.766-7.013-3.402l-1.411-1.244 3.769-3.798 1.066 0.9356c1.852 1.626 4.263 2.572 6.578 2.579 2.302 7e-3 3.588-0.553 4.206-1.832 0.8132-1.683-0.4696-3.348-3.4-4.413-6.877-2.5-8.319-3.378-9.414-5.73-1.741-3.74-0.2156-7.815 3.546-9.473 4.442-1.957 9.947-1.284 13.92 1.702l1.928 1.448-1.779 1.795c-0.9783 0.9871-1.849 1.795-1.936 1.795-0.0863 0-0.8333-0.5083-1.66-1.129-3.222-2.421-7.327-2.484-8.224-0.1258-0.6188 1.628 0.5884 2.723 4.38 3.974 6.405 2.113 8.682 4.056 9.311 7.944 0.4039 2.496-1.002 5.712-3.144 7.192-2.599 1.796-6.899 2.511-10.72 1.784zm24.17 0.1092c-2.76-0.4871-5.041-2.047-5.965-4.082-0.7661-1.686-0.7026-4.692 0.1372-6.496 1.574-3.381 6-5.481 13.59-6.449l2.822-0.3598-0.0665-1.077c-0.0876-1.42-0.8547-2.683-2.06-3.391-0.7657-0.4498-1.437-0.5681-3.094-0.5451-2.364 0.0327-3.499 0.4309-5.432 1.906l-1.272 0.9712-3.597-3.655 1.129-0.9888c2.912-2.551 7.623-3.866 11.64-3.251 4.218 0.646 6.986 2.627 8.316 5.953 0.6006 1.502 0.6343 2.021 0.7276 11.24l0.0979 9.666h-5.966v-2.612l-0.9172 0.7434c-1.468 1.19-2.959 1.882-4.969 2.308-2.046 0.4337-3.178 0.4595-5.121 0.1168zm7.001-5.521c2.489-1.24 3.724-3.332 3.724-6.308 0-1.347 0.0472-1.337-3.478-0.7224-4.39 0.7656-6.47 1.893-7.237 3.922-0.4392 1.162 0.0971 2.612 1.219 3.296 1.349 0.8223 3.913 0.739 5.772-0.1874zm22.18 5.538c-2.792-0.5961-4.522-1.83-5.703-4.067l-0.7622-1.445-0.1638-24.8 2.899-2.909c1.594-1.6 3.196-3.04 3.198-2.921 2e-3 0.1403 0.1349 2.107 0.1349 4.668v4.657h7.924l-0.163 4.939-7.761 0.157v14.7l0.825 0.825c0.6782 0.6782 1.061 0.825 2.154 0.825 0.8658 0 1.67-0.2107 2.307-0.6046l0.9783-0.6046 3.754 3.781-0.8467 0.7156c-2.168 1.832-5.854 2.707-8.775 2.084z" style="fill:#2d383e;stroke-width:.2822"/>
  <rect x="-174.2" y="139.1" width="101" height="101" style="fill:#e40a22"/>
  <path d="m-128.1 224.5c-0.388-0.0692-1.468-0.2579-2.399-0.4194-7.279-1.262-14.22-5.793-18.9-12.34l-1.063-1.488 4.884-5.003c2.686-2.752 4.972-5.041 5.079-5.087 0.0824 0.096 0.5016 0.696 1.247 1.797 3.293 5.888 9.166 9.206 15.52 8.771 7.804-0.5352 12.9-6.073 12.5-13.59-0.1506-2.869-1.188-5.224-3.333-7.567l-1.505-1.644 9.959-9.959 1.031 0.9796c1.602 1.522 4.22 4.898 5.305 6.839 4.196 7.516 4.072 17.21-0.3191 25.04-1.81 3.226-6.311 7.77-9.532 9.623-4.85 2.789-8.675 3.888-14.11 4.056-2.018 0.0622-3.986 0.0565-4.374-0.0126zm-0.0739-36.74c-2.443-2.447-4.442-4.574-4.442-4.728 0-0.3566 26.74-27.11 26.93-26.94 0.075 0.0708 2.181 2.155 4.68 4.631l4.544 4.502-13.49 13.49c-7.418 7.419-13.55 13.49-13.63 13.49-0.08 0-2.144-2.002-4.587-4.448zm-15.17-26.46-6.345-6.35h41.48l-12.69 12.7h-16.1z" style="fill:#fff;stroke-width:.2822"/>
 </g>
</svg>
