<?xml version="1.0" encoding="UTF-8" standalone="no"?>
<svg
   xml:space="preserve"
   version="0.0"
   width="521.92432"
   height="721.83777"
   viewBox="0 0 521.92432 721.83777"
   id="svg22640"
   xmlns="http://www.w3.org/2000/svg"
   xmlns:svg="http://www.w3.org/2000/svg"><defs
     id="defs12937" /><path
     d="M 500,355.24325 C 479.4594,308.86466 445.83787,269.51345 403.78388,242.05391 L 404.10794,405.94595 C 443.89173,405.94595 479.0271,385.83765 500,355.24325"
     id="path9212"
     style="fill:#f66c07" /><path
     d="M 404.10794,515.78375 V 679.35115 C 445.94581,651.89185 479.56761,612.64855 500,566.37815 479.0271,535.89175 443.89173,515.78375 404.10794,515.78375"
     id="path9214"
     style="fill:#f63400" /><path
     d="M 277.51348,583.35115 C 277.51348,583.45935 277.51348,583.45935 277.51348,583.45935 335.89184,584.86475 383.67555,538.37815 383.67555,479.99995 V 230.16196 C 351.67561,213.18903 315.67563,202.59451 277.51348,200.21604 Z M 277.51348,583.35115"
     id="path9216"
     style="fill:#0088aa" /><path
     d="M 277.51348,584.21595 V 721.40515 C 315.67563,719.02695 351.67561,708.43215 383.67555,691.45925 V 687.67545 C 383.67555,629.29715 335.89184,582.70275 277.51348,584.21595"
     id="path9218"
     style="fill:#00d3aa" /><path
     d="M 151.02699,368.10805 C 209.62161,368.10805 257.18917,320.54046 257.18917,261.94581 V 199.78377 C 219.24322,200.32426 183.35132,208.97291 151.02699,223.99997 Z M 151.02699,368.10805"
     id="path9220"
     style="fill:#ff2c9f" /><path
     d="M 151.02699,697.62145 C 183.35132,712.64855 219.24322,721.29715 257.18917,721.83775 V 474.27025 C 257.18917,415.67555 209.62161,368.10805 151.02699,368.10805 Z M 151.02699,697.62145"
     id="path9222"
     style="fill:#d21d6e" /><path
     d="M 0,460.86465 C 0,557.51335 52.54055,641.83755 130.59457,687.02695 V 549.62145 C 113.4054,524.32415 103.24325,493.72955 103.24325,460.86465 103.24325,427.89185 113.4054,397.29725 130.59457,371.99975 V 234.59449 C 52.54055,279.7836 0,364.10805 0,460.86465"
     id="path9224"
     style="fill:#9fe400" /><path
     d="M 87.394655,74.81067 H 73.448735 V 95.89179 H 87.178475 C 91.935195,95.89179 95.610885,94.91899 98.205485,93.18925 100.69198,91.35132 101.98927,88.86494 101.98927,85.5134 101.98927,78.37834 97.124395,74.81067 87.394655,74.81067 M 94.854105,59.89181 C 97.016285,58.05389 98.097375,55.5675 98.097375,52.32417 98.097375,46.16218 93.881145,43.0271 85.448735,43.0271 H 73.448735 V 62.48641 H 85.448735 C 89.556835,62.48641 92.691945,61.62155 94.854105,59.89181 M 114.746,98.05408 C 112.36763,101.40532 108.90818,103.99992 104.58384,105.83787 100.15143,107.67552 94.854105,108.54038 88.691945,108.54038 H 57.556835 V 30.3782 H 86.962235 C 95.502785,30.3782 102.20546,32.10794 106.9622,35.56739 111.71898,39.02685 114.09738,43.99989 114.09738,50.48652 114.09738,54.27034 113.2325,57.40543 111.61088,60.21618 109.88114,62.91899 107.39466,65.08101 104.0433,66.70254 108.69194,68.2161 112.1514,70.59454 114.6379,73.94581 117.01626,77.29733 118.31358,81.2973 118.31358,86.05391 118.31358,90.70259 117.12439,94.70256 114.746,98.05408 M 17.773045,138.91888 H 156.80005 V 0 H 17.773045 Z M 17.773045,138.91888"
     id="path9226" /><path
     d="M 261.12436,74.81067 H 247.07031 V 95.89179 H 260.90816 C 265.66491,95.89179 269.34059,94.91899 271.9352,93.18925 274.42163,91.35132 275.71896,88.86494 275.71896,85.5134 275.71896,78.37834 270.85408,74.81067 261.12436,74.81067 M 268.58382,59.89181 C 270.74597,58.05389 271.82706,55.5675 271.82706,52.32417 271.82706,46.16218 267.61086,43.0271 259.17842,43.0271 H 247.07031 V 62.48641 H 259.17842 C 263.28654,62.48641 266.42167,61.62155 268.58382,59.89181 M 288.36761,98.05408 C 285.98921,101.40532 282.6379,103.99992 278.20542,105.83787 273.88112,107.67552 268.58382,108.54038 262.42167,108.54038 H 231.28654 V 30.3782 H 260.58382 C 269.23246,30.3782 275.93516,32.10794 280.69192,35.56739 285.44867,39.02685 287.82709,43.99989 287.82709,50.48652 287.82709,54.27034 286.9622,57.40543 285.23249,60.21618 283.61086,62.91899 281.12436,65.08101 277.77301,66.70254 282.31355,68.2161 285.88112,70.59454 288.25947,73.94581 290.74597,77.29733 291.93516,81.2973 291.93516,86.05391 291.93516,90.70259 290.74597,94.70256 288.36761,98.05408 M 191.50275,138.91888 H 330.42167 V 0 H 191.50275 Z M 191.50275,138.91888"
     id="path9228" /><path
     d="M 465.01621,103.56764 C 461.77287,105.40529 457.98933,106.81067 453.77295,107.78374 449.44862,108.86475 445.01637,109.40526 440.25947,109.40526 434.09721,109.40526 428.47571,108.43247 423.39476,106.59451 418.42171,104.86477 414.20531,102.16199 410.74586,98.81072 407.2864,95.35127 404.58387,91.13517 402.74594,86.16213 400.90826,81.18908 400.04341,75.67552 400.04341,69.40532 400.04341,63.35127 401.01621,57.83773 402.96206,52.97291 404.80002,48.10808 407.61077,43.89195 411.17844,40.32428 414.74611,36.86483 419.07042,34.16202 424.1514,32.32437 429.12444,30.48641 434.85413,29.51334 441.12433,29.51334 445.44867,29.51334 449.55683,29.94592 453.34065,30.91899 457.23241,31.78385 460.80008,33.08101 464.15132,34.81075 V 50.05394 C 461.12444,47.99986 457.88112,46.48655 454.31344,45.40526 450.74605,44.43247 447.07017,43.89195 443.17841,43.89195 437.77309,43.89195 433.23235,44.86477 429.44881,46.91885 425.66499,48.86472 422.74602,51.78368 420.69194,55.5675 418.63786,59.35132 417.66478,64 417.66478,69.40532 417.66478,74.81067 418.63786,79.45934 420.58373,83.24316 422.52987,87.1352 425.34062,90.05389 429.12444,92.00003 432.80005,94.05411 437.34051,95.02693 442.63792,95.02693 450.74605,95.02693 458.20548,92.86488 465.01621,88.64851 Z M 365.23243,138.91888 H 504.15127 V 0 H 365.23243 Z M 365.23243,138.91888"
     id="path9230" /></svg>
