<?xml version="1.0" encoding="utf-8"?>
<!-- Generator: Adobe Illustrator 12.0.0, SVG Export Plug-In . SVG Version: 6.00 Build 51448)  -->
<!DOCTYPE svg PUBLIC "-//W3C//DTD SVG 1.1//EN" "http://www.w3.org/Graphics/SVG/1.1/DTD/svg11.dtd" [
	<!ENTITY ns_svg "http://www.w3.org/2000/svg">
	<!ENTITY ns_xlink "http://www.w3.org/1999/xlink">
]>
<svg  version="1.1" id="Layer_1" xmlns="&ns_svg;" xmlns:xlink="&ns_xlink;" width="115.193" height="115.415"
	 viewBox="0 0 115.193 115.415" overflow="visible" enable-background="new 0 0 115.193 115.415" xml:space="preserve">
<path fill="#0091E2" d="M112.415,50.907L76.333,14.825V8.011c0-6.607-7.153-9.593-12.436-5.608c-3.727-3.325-9.413-3.199-13,0.368
	L2.775,50.907c-3.699,3.694-3.699,9.685,0,13.378l36.023,36.016c0,4.121,0.002,7.062,0.002,7.935c0,4.986,6.906,10.446,12.72,4.751
	c3.727,3.116,9.268,2.924,12.769-0.566l48.127-48.135C116.121,60.592,116.121,54.602,112.415,50.907L112.415,50.907z M7.4,59.706
	c-1.205-1.205-1.205-3.14,0-4.345l48.017-48.01c1.041-1.036,2.616-1.17,3.807-0.414L26.887,39.334
	c-4.4,4.998-2.205,12.316,6.802,12.321h5.07c0,0,0.018,22.722,0.033,39.437L7.4,59.706L7.4,59.706z M45.282,106.461v-8.873
	l0.006-52.311c0,0-10.659,0-10.739,0c-3.301-0.014-3.715-0.707-1.902-2.515l31.239-31.297l4.117-4.122
	c0.067-0.084,0.15-0.16,0.232-0.231c0.071-0.068,0.148-0.125,0.214-0.169c0.967-0.704,1.374,0.245,1.422,1.401
	c0.005,0.181,0.002,0.363-0.01,0.549v8.564v65.438c0.179,3.075-1.405,3.858-1.405,3.996l-20.502,20.489
	c-0.115,0.115-0.227,0.218-0.326,0.312c-0.072,0.067-0.14,0.136-0.215,0.192c-0.021,0.021-0.05,0.046-0.071,0.07
	c-0.09,0.072-0.168,0.139-0.244,0.198c-0.01,0.003-0.013,0.007-0.015,0.013c-0.093,0.062-0.161,0.123-0.247,0.176
	C45.716,109.094,45.301,108.452,45.282,106.461L45.282,106.461z M107.766,59.706l-48.02,48.002
	c-0.955,0.961-2.383,1.152-3.515,0.584l18.351-18.363c0-0.165,1.751-1.668,1.751-4.993V23.931l31.433,31.43
	C108.968,56.566,108.968,58.5,107.766,59.706L107.766,59.706z"/>
</svg>
