<svg viewBox="0 0 200 80" fill="#DD40DD" xmlns="http://www.w3.org/2000/svg">
	<path d="m198.38 60.21-34.02-0.68v-0.49l13.43-7.15c13.82-7.34 19.14-13.34 19.14-22.91 0-13.53-10.73-21.84-29.09-21.84-18.27 0-30.54 9.47-32.18 22.52-0.29 2.12 0.77 3.09 2.51 3.09h11.01c1.64 0 2.51-0.77 2.99-2.61 2.03-6.86 7.93-11.01 15.56-11.01 8.02 0 11.79 3.48 11.79 9.08 0 5.03-2.23 8.31-10.34 12.56l-31.01 16.43c-1.93 0.97-2.8 2.42-2.8 4.54v7.34c0 2.42 1.36 3.77 3.77 3.77h59.24c0.87 0 1.36-0.49 1.36-1.36v-9.84c0-0.86-0.49-1.44-1.36-1.44z"/>
	<path d="m8.87 24.93c5.32 0 8.6-3.77 8.6-8.6 0-4.73-3.29-8.51-8.6-8.51s-8.6 3.77-8.6 8.51c-0.01 4.83 3.28 8.6 8.6 8.6z"/>
	<path d="m128.71 32.37c-0.87-0.29-3.38-0.97-4.64-1.36-2.03-0.68-2.8-0.87-3.19-0.87-0.87 0-1.36 0.49-1.64 1.45-2.9 9.57-7.25 20.39-11.21 27.16-1.25-2.51-3.67-6.77-5.8-10.63-3.48-5.9-6.86-11.88-8.51-14.69-1.74-2.8-2.9-3.48-5.12-3.48-4.64 0-11.5 4.16-11.5 8.02 0 1.36 0.38 2.32 1.74 4.64 1.55 2.61 2.32 4.83 2.32 7.44 0 6.57-4.93 12.56-14.4 12.56-4.54 0-8.02-1.25-10.25-3.58-2.23-2.23-3.29-5.22-3.29-10.25v-8.4c1.64 0.68 3.58 1.06 5.9 1.06h7.54c1.06 0 1.36-0.38 1.36-1.36v-8.01c0-0.97-0.29-1.36-1.36-1.36h-13.43v-13.13c0-1.64-0.38-2.71-1.25-3.48-1.36-1.25-3.96-1.84-7.15-1.84-3.29 0-5.9 0.58-7.25 1.84-0.87 0.77-1.25 1.84-1.25 3.48v32.18c0 5.32-0.87 8.21-2.8 10.25-1.64 1.84-4.25 2.8-7.15 2.8-2.8 0-5.22-0.97-6.77-2.51-1.55-1.64-2.23-3.86-2.23-7.25v-20.97c0-0.97-0.38-1.36-1.36-1.36h-14.31c-0.97 0-1.36 0.38-1.36 1.36v18.94c0 7.54 2.03 11.88 5.41 15.27 4.45 4.45 11.99 6.47 19.14 6.47 7.25 0 14.69-2.61 19.14-6.67 4.35 3.96 12.28 6.67 20.97 6.67 11.5 0 19.91-4.83 24.84-12.86l5.41 8.21c2.32 3.38 4.35 4.64 9.08 4.64 4.35 0 7.06-1.06 9.38-4.73 6.28-9.57 11.69-20.97 15.56-31.41 0.38-1.25 0.77-2.23 0.77-2.8 0.01-0.66-0.37-1.05-1.34-1.44z"/>
</svg>