<svg viewBox="0 0 200 80" fill="#B682EB" xmlns="http://www.w3.org/2000/svg">
	<path d="m184.11 38.35c8.7-2.9 12.08-7.54 12.08-13.82 0-10.34-11.69-18.07-28.41-18.07-15.08 0-26.09 6.28-28.8 17.49-0.68 2.8 0.87 4.54 3.29 4.54h8.89c1.25 0 2.32-0.77 2.71-1.93 1.64-4.93 5.41-8.51 13.34-8.51 6.86 0 11.6 3.38 11.6 8.51 0 5.32-4.45 6.86-10.34 7.73l-9.67 1.35c-0.68 0.1-1.25 0.68-1.25 1.36v5.9c0 0.77 0.58 1.35 1.36 1.45l13.43 1.45c6.38 0.68 9.76 2.8 9.76 7.34 0 6.09-5.9 8.8-13.92 8.8-8.8 0-14.11-2.99-16.33-8.6-0.49-1.16-1.45-1.93-2.71-1.93h-10.05c-3.19 0-4.83 1.74-3.96 4.83 2.99 11.01 14.21 17.3 32.67 17.3 19.43 0 31.7-7.64 31.7-19.71-0.01-6.69-3.78-13.06-15.39-15.48z"/>
	<path d="m9.1 24.24c5.32 0 8.6-3.77 8.6-8.6 0-4.73-3.29-8.51-8.6-8.51s-8.6 3.77-8.6 8.51c0 4.83 3.29 8.6 8.6 8.6z"/>
	<path d="m128.94 31.68c-0.87-0.29-3.38-0.97-4.64-1.36-2.03-0.68-2.8-0.87-3.19-0.87-0.87 0-1.36 0.49-1.64 1.45-2.9 9.57-7.25 20.39-11.21 27.16-1.25-2.51-3.67-6.77-5.8-10.63-3.48-5.9-6.86-11.88-8.51-14.69-1.74-2.8-2.9-3.48-5.12-3.48-4.64 0-11.5 4.16-11.5 8.02 0 1.36 0.38 2.32 1.74 4.64 1.55 2.61 2.32 4.83 2.32 7.44 0 6.57-4.93 12.56-14.4 12.56-4.54 0-8.02-1.25-10.25-3.58-2.23-2.23-3.29-5.22-3.29-10.25v-8.39c1.64 0.68 3.58 1.06 5.9 1.06h7.54c1.06 0 1.36-0.38 1.36-1.36v-8.02c0-0.97-0.29-1.36-1.36-1.36h-13.43v-13.13c0-1.64-0.38-2.71-1.25-3.48-1.36-1.25-3.96-1.84-7.15-1.84-3.29 0-5.9 0.58-7.25 1.84-0.87 0.77-1.25 1.84-1.25 3.48v32.18c0 5.32-0.87 8.21-2.8 10.25-1.64 1.84-4.25 2.8-7.15 2.8-2.8 0-5.22-0.97-6.77-2.51-1.55-1.64-2.23-3.86-2.23-7.25v-20.97c0-0.97-0.38-1.36-1.36-1.36h-14.3c-0.97 0-1.36 0.38-1.36 1.36v18.94c0 7.54 2.03 11.88 5.41 15.27 4.45 4.45 11.99 6.47 19.14 6.47 7.25 0 14.69-2.61 19.14-6.67 4.35 3.96 12.28 6.67 20.97 6.67 11.5 0 19.91-4.83 24.84-12.86l5.41 8.21c2.32 3.38 4.35 4.64 9.08 4.64 4.35 0 7.06-1.06 9.38-4.73 6.28-9.57 11.69-20.97 15.56-31.41 0.38-1.25 0.77-2.23 0.77-2.8 0.01-0.67-0.38-1.05-1.35-1.44z"/>
</svg>
