<?xml version="1.0" encoding="UTF-8" standalone="no"?>
<!-- Created with Inkscape (http://www.inkscape.org/) -->

<svg
   version="1.1"
   id="svg182"
   width="1884.814"
   height="1593.854"
   viewBox="0 0 1884.814 1593.8541"
   xml:space="preserve"
   xmlns="http://www.w3.org/2000/svg"
   xmlns:svg="http://www.w3.org/2000/svg"><defs
     id="defs186">&#10;	&#10;	&#10;&#10;		&#10;		&#10;		&#10;		&#10;		&#10;		&#10;		&#10;	&#10;		&#10;		&#10;	</defs><g
     id="g188"
     transform="translate(-203.60536,-0.67712439)"><g
       id="g446"
       transform="matrix(4.9705389,0,0,-4.9705389,1425.2816,1575.8354)">&#10;</g><g
       id="g450"
       transform="matrix(4.9705389,0,0,-4.9705389,1482.6113,1576.3439)">&#10;</g><g
       id="g454"
       transform="matrix(4.9705389,0,0,-4.9705389,1550.2002,1603.3245)">&#10;</g><g
       id="g458"
       transform="matrix(4.9705389,0,0,-4.9705389,1404.3521,1419.5751)">&#10;</g><g
       id="g462"
       transform="matrix(4.9705389,0,0,-4.9705389,1190.7308,1455.7129)">&#10;</g><g
       id="g466"
       transform="matrix(4.9705389,0,0,-4.9705389,1281.3865,1336.8241)">&#10;</g><g
       id="g478"
       transform="matrix(4.9705389,0,0,-4.9705389,1505.4057,1457.7672)">&#10;</g><g
       id="g526"
       transform="matrix(4.9705389,0,0,-4.9705389,1223.6994,1507.0392)">&#10;</g><g
       id="g2921"><path
         fill="#ffffff"
         d="m 1751.3699,752.33638 c -36.4524,35.87935 -83.045,48.47558 -135.1243,47.32772 H 772.64169 c -0.87455,-8.99056 -2.8423,-18.55601 -5.92963,-28.58322 l -0.0528,-0.21864 h 0.0528 c -0.68042,-2.8423 -1.44753,-5.5734 -2.34848,-8.22345 -23.58281,-70.2829 -121.68181,-73.97148 -141.73813,-73.97148 h -1.99602 c -18.77276,0.0547 -46.45317,1.25718 -80.11974,5.90136 -11.61234,1.61152 -23.93715,3.63581 -36.83684,6.17466 -0.46366,-0.87456 -0.89905,-1.74911 -1.30994,-2.65006 -25.22071,-59.2699 -12.86952,-134.96222 34.56752,-179.91318 29.56899,-31.28983 66.92226,-44.07641 107.31009,-50.44332 -45.52395,-42.21798 -67.63284,-100.20245 -54.78782,-162.20723 9.26387,-50.30573 52.10761,-101.21271 101.24099,-118.75846 43.44876,-17.21402 102.1438,-14.20774 141.87572,9.20921 l 1.55686,-1.69445 C 822.07475,125.8086 852.51641,64.107295 909.108,26.314858 c 50.55076,-34.1566281 131.5733,-33.3913929 181.2231,3.006281 22.1881,13.689416 40.5782,37.025317 53.8869,58.504675 18.0358,-29.621761 48.0949,-60.417764 80.3667,-73.424876 55.4437,-25.467628 130.1239,-14.64690141 175.5404,25.467629 43.9407,39.786572 66.2098,94.274693 55.7434,155.293713 10.849,-1.99414 21.6433,-8.96418 33.1482,-12.81486 67.9024,-19.21004 140.0437,1.63791 183.6546,60.17085 32.9805,41.67139 41.4264,106.48832 21.7507,156.71299 -9.8387,25.41297 -26.4778,48.33987 -48.0948,67.74027 l 2.2147,2.07896 c 63.3976,3.14198 125.6983,52.32813 145.0441,112.77417 20.6858,60.90782 2.405,125.99804 -42.2161,170.51172 z"
         id="path3955"
         style="stroke-width:1.88482" /><path
         id="path496"
         fill="#5f53ae"
         d="m 1411.613,113.42348 c 20.0733,40.81945 8.4968,94.48204 -12.9373,131.22463 l -163.7848,368.7114 -1.3401,1.56251 -59.4019,-373.92668 c -4.7629,-35.77003 33.8155,-51.09546 56.29,-68.43389 -1.0046,-5.26993 -7.002,-5.0268 -10.7076,-7.44878 l -55.2252,-0.59561 -1.6417,-1.75099 c 0.1622,-46.29295 25.3452,-89.25166 67.5745,-111.724316 44.1706,-25.624069 106.5298,-18.659674 144.8123,14.058839 15.5478,13.945751 28.7509,30.130661 36.3618,48.322887 z"
         style="fill:#5a5a96;fill-opacity:1;stroke-width:1.88482" /><path
         id="path500"
         fill="#c81a46"
         d="m 1109.7504,100.48612 c 13.2634,24.74762 21.157,52.99534 16.3696,84.07218 l -66.7488,428.09817 c 0.2582,0.70493 -0.2488,1.18932 -0.8803,1.39288 l -17.1914,-34.3338 -167.47148,-374.00207 c -15.64774,-48.2117 -1.08,-98.48538 33.81359,-132.934149 35.3026,-35.937778 93.69609,-45.73505 139.72709,-26.125428 24.544,10.481459 47.7857,29.994955 62.3817,53.832217 z"
         style="fill:#b42846;fill-opacity:1;stroke-width:1.88482" /><path
         id="path504"
         fill="#0e88d3"
         d="m 1653.8928,280.8083 c 22.501,38.41631 17.395,96.51198 -7.5561,132.16892 -15.6026,25.06428 -41.3228,37.48333 -62.7192,53.98677 l -346.953,238.08425 h -0.95 l 3.9129,-11.43517 183.9165,-414.94592 c 27.5353,-48.97316 80.0085,-73.81315 135.7576,-66.31159 38.1204,6.91163 76.122,31.69507 94.5913,68.45274 z"
         style="fill:#008cc3;fill-opacity:1;stroke-width:1.88482" /><path
         id="path508"
         fill="#f25c19"
         d="M 865.75724,278.65961 1057.1358,705.0407 h -3.1628 L 668.16636,439.09889 c -39.29274,-32.99559 -55.22886,-82.5832 -41.92017,-132.69291 9.94617,-37.55683 41.13421,-72.64079 78.07848,-86.49607 60.68729,-22.23328 129.11741,1.36272 161.43257,58.7497 z"
         style="fill:#e16428;fill-opacity:1;stroke-width:1.88482" /><path
         id="path512"
         fill="#33b540"
         d="m 1754.5176,581.81524 c 19.0648,40.55934 11.535,96.23491 -15.8872,130.79488 -27.2563,33.12752 -63.7558,51.09358 -106.5279,49.94008 l -411.3516,0.34115 344.6179,-239.69577 c 33.7363,-21.71118 84.8506,-25.65988 121.5329,-8.11413 28.4569,11.02429 55.0648,38.89695 67.6159,66.73379 z"
         style="fill:#00a846;fill-opacity:1;stroke-width:1.88482" /><path
         fill="#fab20b"
         d="M 1070.1655,762.88381 764.36358,762.63879 C 740.78077,692.35589 642.68177,688.66731 622.62545,688.66731 h -1.99602 c -18.77276,0.0547 -46.45317,1.25718 -80.11974,5.90136 -17.59852,-33.93799 -20.30135,-78.6722 -4.09947,-112.74589 12.37947,-27.84438 39.076,-55.71892 67.44059,-66.73002 36.78028,-17.57025 88.01523,-13.60836 121.62526,8.11602 z"
         id="path3962"
         style="fill:#f0b428;fill-opacity:1;stroke-width:1.88482" /></g><g
       id="g20941"
       style="fill:#f0b428;fill-opacity:1"><path
         id="path3119_1_"
         d="m 1012.345,946.46659 c -21.39643,-16.58638 -51.86635,-3.5246 -51.86635,-3.5246 -58.55745,18.66155 -121.7082,65.38981 -171.74251,109.05531 22.95517,-26.3138 48.91285,-54.67838 78.50633,-85.28213 0,0 21.06847,-10.84901 4.86282,-26.83412 -16.14721,-15.90408 -35.38364,-31.01464 -35.38364,-31.01464 0,0 -7.707,-6.7778 -11.36731,-3.99015 -3.63582,2.76124 -0.92922,10.19307 -0.24692,11.25988 0.65592,1.03854 -9.6201,13.60837 -9.6201,13.60837 0,0 -0.71058,0.73885 -1.69256,1.83204 -16.96899,14.78261 -47.6293,29.62176 -63.23368,36.6427 -33.58176,12.29653 -76.48205,26.77945 -122.69207,43.17535 -2.65005,-2.5953 -5.73738,-5.1097 -9.42785,-7.4619 -55.19682,-34.53733 -220.18981,-37.54549 -283.55919,-42.21606 -68.42447,-5.13613 -83.83471,-9.6201 -86.37544,-20.93088 -3.33424,-14.72795 18.25444,-35.5495 49.15975,-58.09379 91.51346,-66.75828 209.64239,-92.85543 284.13218,-101.05439 22.92501,-2.54073 41.75433,-3.36062 54.35054,-3.14386 58.72332,0.93109 75.17398,7.78994 76.07493,12.10805 0.92922,4.12586 -1.88482,7.32251 -1.88482,7.32251 -0.54659,0.62953 -1.09318,1.25905 -1.66806,1.85843 -9.29214,9.97443 -21.55852,16.61276 -34.78616,25.1114 -53.74928,34.78615 -112.14464,60.52708 -112.14464,60.52708 -12.78847,11.88565 12.02513,14.89193 12.02513,14.89193 34.10197,-1.12147 66.80917,-9.34681 97.57878,-21.12313 63.61441,-24.34805 78.91724,-46.31747 80.721,-59.40751 0.95372,-6.83056 0.73697,-13.74407 0,-20.00166 -1.69445,-14.48293 -6.15015,-25.54868 -5.30199,-24.10114 -1.09318,-4.64607 -2.59538,-8.96229 -4.48208,-12.95434 -26.04062,-55.87536 -121.40663,-53.44394 -121.40663,-53.44394 -20.62931,0.0811 -43.47516,1.42116 -67.93064,4.42743 -12.56983,1.53048 -25.57694,3.52272 -38.88563,6.01068 -79.57126,14.80899 -170.97728,47.32584 -255.22099,109.13836 -64.46258,47.24479 -54.70489,81.07535 -54.70489,81.07535 0,0 -1.14785,65.58215 48.61128,81.51262 20.11286,6.44983 34.75789,9.86506 67.5499,13.14456 63.6408,6.3953 110.77816,7.2962 176.74294,11.7783 38.88374,2.6501 65.85356,7.0756 84.27198,11.8875 -53.96792,19.9188 -109.52098,42.2462 -157.99655,66.5095 -42.30092,21.2041 -105.61564,56.7555 -128.29563,85.173 -26.34218,32.9823 -3.30596,59.4338 -4.75162,55.6096 4.42555,8.1424 22.05047,37.2176 93.07032,28.2288 35.33274,-4.5103 76.56686,-21.2343 108.51071,-38.5576 45.7162,-24.8665 79.57315,-53.7512 100.03847,-73.5079 40.96082,-39.566 52.57505,-70.0887 52.6297,-96.6778 0,-10.2741 -2.05067,-18.6351 -4.64606,-25.1944 49.40667,-17.1593 92.71595,-30.24928 121.49144,-38.33703 -80.55702,96.84183 -216.44845,282.24543 -156.19655,367.42023 0,0 3.93549,6.6139 9.21109,12.5981 0,0 10.68314,8.853 14.67329,3.4436 3.98827,-5.3831 -7.87099,-11.175 -7.87099,-11.175 -3.47183,-4.2089 -5.62995,-10.9584 -4.09947,-22.3276 1.58513,-11.3409 4.64607,-29.0752 14.45464,-54.7634 l 16.61277,-37.2986 c -0.0528,0.055 -0.081,0.1112 -0.10931,0.1659 0.0547,-0.1659 0.13759,-0.2752 0.21863,-0.4108 l -0.1112,0.2449 c 20.65947,-35.851 55.93755,-85.2841 98.48349,-127.5567 106.07742,-105.3405 200.78941,-148.76093 220.16343,-154.99024 14.10031,-4.48209 20.27873,-3.30785 22.59705,-1.14597 13.55374,12.13256 -20.19203,66.45481 -20.19203,66.45481 -0.57487,0.8764 -1.12146,1.6397 -1.72272,2.4597 -60.80037,88.7559 -96.4592,113.4319 -128.26736,125.5908 -22.05045,6.5309 -35.44018,-0.7651 -39.48499,-3.5528 -7.73341,-7.3508 -12.02324,-17.4345 -11.31266,-22.352 1.36648,-9.3167 -2.81215,-9.0453 -2.81215,-9.0453 -15.16711,5.1381 -6.72503,31.861 -6.72503,31.861 11.25989,50.5809 81.48624,63.505 148.05416,13.663 88.04352,-65.9082 105.50442,-118.7302 118.12892,-150.8117 12.5699,-32.08134 -11.3673,-56.78374 -32.7072,-73.50771 z M 310.45288,1211.2266 c -1.50221,-4.4557 -4.39916,-6.3971 9.70114,-21.2871 16.58638,-17.3799 67.19179,-49.8968 113.94841,-74.0808 54.37693,-28.2006 115.01333,-53.1235 170.97727,-73.6417 2.32021,4.371 2.75938,9.9726 -1.39476,17.2141 -22.07873,38.503 -97.11512,84.6546 -122.11909,98.7021 -13.85339,7.8145 -45.82552,26.4779 -85.22758,40.7704 -43.47516,15.7402 -82.27786,22.9798 -85.88539,12.323 z"
         style="fill:#f0b428;fill-opacity:1;stroke-width:1.88482" /><path
         id="path3121_1_"
         d="m 2088.2769,909.14596 c -4.8326,-28.93945 -48.828,-35.76437 -125.9923,-29.59914 -40.7366,3.23435 -117.7238,14.16062 -186.7929,25.19057 l 67.8779,-75.73944 c 0,0 14.7562,-9.49381 -0.4109,-21.19852 -15.152,-11.6934 -31.6875,-19.53234 -31.6875,-19.53234 0,0 -6.7608,-6.49508 -18.5994,4.3068 -6.921,6.37634 -50.562,50.62049 -111.7582,127.13836 -68.1493,9.08858 -146.584,14.62993 -166.7817,17.00291 0,0 -9.9443,2.0488 -13.8082,-4.7912 0,0 -8.8529,-6.16523 -6.7891,8.61738 0,0 2.1638,39.23244 39.9582,32.09652 21.4284,-4.05989 64.994,-9.75203 119.337,-17.067 -9.2017,11.97612 -23.2963,29.91768 -38.2937,50.91454 -67.7818,73.9884 -182.8178,192.8977 -208.5361,177.1632 0,0 -5.6355,-5.2228 -1.6963,-17.9208 5.8109,-18.8934 27.6276,-53.1575 71.4911,-104.6016 0,0 20.1995,-23.9635 19.3607,-34.5525 -1.2703,-16.2451 -10.3532,-15.8889 -10.3532,-15.8889 0,0 -58.3087,-17.24422 -77.7731,-34.71647 8.1782,-12.67727 23.072,-40.96835 4.0372,-54.21106 0,0 -24.5101,-15.56104 -42.4668,21.33799 -7.2546,14.72042 -6.6082,28.89611 2.8273,41.96165 -13.3407,14.13613 -50.2756,50.25299 -87.0484,60.91539 -2.0902,-12.8318 -7.5241,-20.65 -15.7004,-24.7438 0,0 -20.2599,-10.1969 -31.2541,2.4992 -10.9413,12.6321 -1.2553,25.249 9.9801,33.8475 -3.3361,10.0216 -12.5962,23.1455 -25.5638,43.4695 -16.5769,26.0482 -38.1806,50.7166 -67.6667,70.7051 -10.0028,6.8268 -50.9126,30.4586 -61.6599,-1.8942 -5.8655,-17.804 3.9601,-52.2396 29.1732,-91.3758 51.9135,-80.82289 124.4921,-107.31209 144.1488,-94.73283 0,0 9.2281,9.13193 3.7621,19.20623 0,0 -2.0846,5.5395 5.3435,6.203 7.5072,0.7256 11.6613,-5.7902 12.9109,-12.32295 3.0798,-17.10094 -12.419,-36.68229 -30.091,-50.71851 -5.3001,-4.21445 -11.405,-7.14156 -18.4279,-10.66806 0,0 -30.8695,-10.88104 -73.0272,10.09696 -12.9467,6.39895 -68.2284,36.85757 -108.4164,108.44286 -12.7565,22.6612 -20.7914,46.9338 -20.5162,70.4393 0.096,15.4782 3.0006,30.7678 11.2881,44.985 3.1816,5.4226 20.0676,27.6294 42.7665,39.2475 45.294,23.2077 98.4514,-20.8988 119.1656,-39.7772 36.4241,-33.3668 64.2891,-77.5526 70.6843,-96.7608 47.7405,-12.3455 94.9684,-60.1802 110.3711,-76.98904 2.8064,1.8735 5.6581,3.72628 8.9339,5.52064 l 28.6588,15.2312 c -16.8052,19.342 -16.9012,19.423 -34.7222,44.5608 -18.3336,25.9106 -63.8481,86.7958 -34.4205,125.9924 5.7506,7.7767 13.5895,17.329 26.461,22.4217 38.8649,15.3877 82.913,-22.8156 151.0679,-94.4386 10.7793,-11.3523 21.176,-22.6611 31.0882,-33.7137 -4.256,8.5005 -8.1499,17.0406 -11.3673,25.445 -15.9004,41.4377 -6.6723,78.7382 26.6663,100.8772 19.7755,13.1165 45.4788,7.134 74.8253,-12.174 57.9939,-38.2561 143.6003,-124.4299 197.9641,-181.7377 -1.9659,7.8559 -3.8225,16.4733 -5.5376,26.1292 -12.911,71.8963 -56.5445,164.3653 -73.7698,140.6695 -0.3129,3.4736 -0.5485,-15.9908 -9.8877,-23.8467 -8.5194,-7.0756 -15.9701,-8.9491 -25.4846,-2.7104 -12.3664,8.131 -6.218,38.356 31.7666,57.7564 8.6947,4.45 16.4544,6.8098 23.5979,7.6505 20.6633,3.4906 62.5175,3.8205 111.8261,-33.1276 66.779,-50.1568 139.0787,-122.038 139.0787,-122.038 0,0 14.4905,-12.8073 0.7841,-20.7292 0,0 -6.6553,-3.468 -12.9242,2.1469 -3.6075,3.2399 -6.8268,7.4732 -6.8268,7.4732 0.9707,-0.9782 -101.2692,96.4668 -161.736,129.1288 9.7464,-11.9762 15.8475,-29.2731 20.9798,-49.7234 4.2862,-17.1877 11.6595,-63.5333 19.4231,-97.5034 4.2257,-18.4881 10.2006,-33.3254 12.1325,-37.71331 7.3489,-16.57695 17.5477,-15.17277 19.9037,-20.00732 1.7001,-3.40963 1.0574,-6.5158 -3.3323,-11.9158 -3.666,-4.60084 -8.5778,-9.34115 -12.6151,-13.06178 -4.7988,-4.42932 -14.8429,-11.23538 -20.1638,-12.24753 -3.666,-0.69926 -7.8615,-0.42785 -11.5614,2.4955 -3.372,2.6312 -9.264,7.89926 -15.8778,19.02909 -36.6389,39.97895 -156.7827,168.15015 -230.315,211.79495 3.9167,-2.3599 -59.7053,40.6573 -46.2553,-15.2897 6.1804,-25.4638 31.7328,-82.4399 103.4896,-172.38149 l 37.3006,-41.65065 c 30.6358,-4.38786 62.5023,-9.16398 94.2897,-14.31518 0,0 280.4248,-34.76542 204.495,24.94554 0,0 4.8779,9.39768 16.5939,0.1112 24.414,-19.31559 33.5195,-36.12814 32.0984,-45.03956 z"
         style="fill:#f0b428;fill-opacity:1;stroke-width:1.88482" /></g><g
       id="g47033"><path
         d="m 338.55956,1590.4573 h 116.78039 q 24.78189,0 43.79265,-5.0921 19.01076,-5.4317 31.91092,-14.937 12.90016,-9.8449 19.68972,-23.0845 6.78955,-13.2397 6.78955,-29.1951 0,-18.3318 -9.1659,-29.8741 -9.1659,-11.5422 -24.10293,-18.3318 23.0845,-5.0922 37.00309,-20.0292 13.91859,-14.937 13.91859,-38.7005 0,-11.8817 -4.75269,-22.4055 -4.75269,-10.8633 -14.59755,-18.6713 -9.84485,-8.1475 -25.12136,-12.5607 -14.93703,-4.7527 -35.98465,-4.7527 H 402.3814 Z m 88.9432,-141.5622 13.23964,-50.2428 h 49.2243 q 17.31337,0 25.12136,6.1106 7.80799,6.1106 7.80799,15.2765 0,14.9371 -11.20277,22.0661 -11.20277,6.7896 -31.57144,6.7896 z m -25.80031,95.7327 13.91859,-52.2796 h 57.37176 q 16.29494,0 24.44241,6.1106 8.14747,5.7712 8.14747,16.295 0,13.9186 -11.54225,22.066 -11.20277,7.808 -30.89249,7.808 z"
         style="font-style:italic;font-weight:bold;font-size:36px;line-height:1.1;font-family:Gotham;-inkscape-font-specification:'Gotham Bold Italic';text-align:center;text-anchor:middle;stroke-width:9.42993"
         id="path41140" /><path
         d="m 725.5437,1594.5311 q 31.91093,0 58.05072,-11.8817 26.47928,-12.2212 45.15056,-31.911 19.01076,-19.6897 29.1951,-44.811 10.52381,-25.4609 10.52381,-51.9402 0,-22.4055 -7.80799,-41.4163 -7.80799,-19.3502 -22.06606,-33.6083 -14.25807,-14.258 -34.28727,-22.066 -20.02919,-8.1475 -44.4716,-8.1475 -31.91092,0 -58.39019,12.2212 -26.1398,11.8817 -45.15056,31.5714 -18.67129,19.6898 -29.1951,45.1506 -10.18434,25.1214 -10.18434,51.6006 0,22.4056 7.80799,41.7558 7.80799,19.0108 22.06607,33.2688 14.25807,14.2581 34.28726,22.4056 20.0292,7.808 44.4716,7.808 z m 6.11061,-48.2059 q -14.59755,0 -26.1398,-4.4132 -11.20277,-4.4132 -19.01076,-12.5607 -7.46852,-8.1474 -11.54225,-19.0107 -3.73426,-11.2028 -3.73426,-24.4424 0,-15.2765 5.77113,-31.232 6.1106,-15.9555 16.63441,-28.5161 10.8633,-12.9002 26.1398,-21.0477 15.27651,-8.1474 33.94779,-8.1474 14.59755,0 25.80032,4.4132 11.54225,4.4132 19.01076,12.5606 7.80799,8.1475 11.54225,19.3503 4.07373,10.8633 4.07373,24.1029 0,15.2765 -6.1106,31.232 -5.77112,15.9554 -16.63442,28.8556 -10.52381,12.5607 -25.80031,20.7082 -15.27651,8.1474 -33.94779,8.1474 z"
         style="font-style:italic;font-weight:bold;font-size:36px;line-height:1.1;font-family:Gotham;-inkscape-font-specification:'Gotham Bold Italic';text-align:center;text-anchor:middle;stroke-width:9.42993"
         id="path41142" /><path
         d="m 993.1164,1593.8521 q 18.6713,0 35.6452,-5.0921 17.3134,-5.4317 30.2135,-15.616 12.9002,-10.1844 20.7082,-24.7819 7.808,-14.937 7.808,-33.6083 0,-12.9002 -4.4132,-22.745 -4.4132,-9.8449 -12.2212,-17.3134 -7.4686,-7.4685 -17.9924,-13.2396 -10.1843,-5.7712 -22.4055,-10.8633 -12.2212,-5.0922 -20.3687,-8.8265 -7.808,-3.7342 -12.5607,-7.129 -4.7527,-3.3948 -6.7895,-6.7896 -2.0369,-3.7342 -2.0369,-8.4869 0,-8.8264 8.8264,-16.2949 9.1659,-7.808 25.8004,-7.808 17.3133,0 30.2135,6.45 13.2396,6.4501 26.8187,19.0108 l 35.9847,-35.9847 q -15.2765,-16.2949 -36.6636,-25.8003 -21.3871,-9.5054 -52.2796,-9.5054 -19.0108,0 -36.3241,5.4317 -16.9739,5.4316 -29.87409,15.616 -12.90016,10.1843 -20.70815,24.7819 -7.46852,14.258 -7.46852,32.5898 0,13.2397 4.75269,23.0845 4.75269,9.8449 12.90016,17.6529 8.14747,7.4685 18.67131,13.2396 10.5238,5.4317 22.066,10.1844 11.8818,4.7527 19.6898,8.8264 7.8079,3.7342 12.2212,7.4685 4.7526,3.3948 6.45,7.129 2.0369,3.3948 2.0369,7.808 0,11.2028 -10.1843,17.9924 -10.1844,6.7895 -26.1398,6.7895 -20.3687,0 -36.32416,-7.808 -15.95546,-8.1475 -30.21353,-23.424 l -39.37944,33.2689 q 33.94779,43.7926 103.54073,43.7926 z"
         style="font-style:italic;font-weight:bold;font-size:36px;line-height:1.1;font-family:Gotham;-inkscape-font-specification:'Gotham Bold Italic';text-align:center;text-anchor:middle;stroke-width:9.42993"
         id="path41144" /><path
         d="m 1169.4119,1590.4573 h 52.2796 l 50.9217,-189.4286 h 72.3087 l 12.9002,-48.2059 h -196.8972 l -12.9001,48.2059 h 72.3088 z"
         style="font-style:italic;font-weight:bold;font-size:36px;line-height:1.1;font-family:Gotham;-inkscape-font-specification:'Gotham Bold Italic';text-align:center;text-anchor:middle;stroke-width:9.42993"
         id="path41146" /><path
         d="m 1470.5213,1594.5311 q 31.9109,0 58.0507,-11.8817 26.4793,-12.2212 45.1506,-31.911 19.0107,-19.6897 29.1951,-44.811 10.5238,-25.4609 10.5238,-51.9402 0,-22.4055 -7.808,-41.4163 -7.808,-19.3502 -22.0661,-33.6083 -14.258,-14.258 -34.2872,-22.066 -20.0292,-8.1475 -44.4716,-8.1475 -31.911,0 -58.3902,12.2212 -26.1398,11.8817 -45.1506,31.5714 -18.6713,19.6898 -29.1951,45.1506 -10.1843,25.1214 -10.1843,51.6006 0,22.4056 7.808,41.7558 7.808,19.0108 22.066,33.2688 14.2581,14.2581 34.2873,22.4056 20.0292,7.808 44.4716,7.808 z m 6.1106,-48.2059 q -14.5975,0 -26.1398,-4.4132 -11.2028,-4.4132 -19.0108,-12.5607 -7.4685,-8.1474 -11.5422,-19.0107 -3.7343,-11.2028 -3.7343,-24.4424 0,-15.2765 5.7712,-31.232 6.1106,-15.9555 16.6344,-28.5161 10.8633,-12.9002 26.1398,-21.0477 15.2765,-8.1474 33.9478,-8.1474 14.5975,0 25.8003,4.4132 11.5422,4.4132 19.0107,12.5606 7.808,8.1475 11.5423,19.3503 4.0737,10.8633 4.0737,24.1029 0,15.2765 -6.1106,31.232 -5.7711,15.9554 -16.6344,28.8556 -10.5238,12.5607 -25.8003,20.7082 -15.2765,8.1474 -33.9478,8.1474 z"
         style="font-style:italic;font-weight:bold;font-size:36px;line-height:1.1;font-family:Gotham;-inkscape-font-specification:'Gotham Bold Italic';text-align:center;text-anchor:middle;stroke-width:9.42993"
         id="path41148" /><path
         d="m 1642.069,1590.4573 h 51.6006 l 41.7558,-155.8203 71.9693,155.8203 h 44.4716 l 63.8219,-237.6345 h -51.6007 l -40.7373,151.0677 -69.2535,-151.0677 h -48.2059 z"
         style="font-style:italic;font-weight:bold;font-size:36px;line-height:1.1;font-family:Gotham;-inkscape-font-specification:'Gotham Bold Italic';text-align:center;text-anchor:middle;stroke-width:9.42993"
         id="path41150" /></g></g></svg>
