<?xml version="1.0" encoding="UTF-8" standalone="no"?>
<svg
   xmlns:dc="http://purl.org/dc/elements/1.1/"
   xmlns:cc="http://creativecommons.org/ns#"
   xmlns:rdf="http://www.w3.org/1999/02/22-rdf-syntax-ns#"
   xmlns:svg="http://www.w3.org/2000/svg"
   xmlns="http://www.w3.org/2000/svg"
   id="svg8"
   version="1.1"
   viewBox="0 0 105.83334 87.833565"
   height="331.96939"
   width="400.00003">
  <title
     id="title4646">Logo NDR Fernsehen 2017</title>
  <defs
     id="defs2" />
  <metadata
     id="metadata5">
    <rdf:RDF>
      <cc:Work
         rdf:about="">
        <dc:format>image/svg+xml</dc:format>
        <dc:type
           rdf:resource="http://purl.org/dc/dcmitype/StillImage" />
        <dc:title>Logo NDR Fernsehen 2017</dc:title>
      </cc:Work>
    </rdf:RDF>
  </metadata>
  <g
     transform="translate(333.29343,-195.38076)"
     id="layer1">
    <g
       transform="matrix(0.3601458,0,0,0.3601458,-119.72507,63.479391)"
       id="g4644">
      <g
         id="g4595"
         transform="matrix(0.79004629,0,0,0.79004629,-132.06053,375.4028)">
        <path
           style="fill:#00d2ff;fill-opacity:1;stroke:none;stroke-width:2.35525966"
           d="m -491.21875,2024.1094 c -9.78904,0 -17.36167,2.3916 -22.70703,7.1758 -5.59374,4.9313 -8.39063,11.8047 -8.39063,20.6093 0,9.0806 2.79689,17.0756 8.39063,23.9942 4.48972,5.6489 10.43423,11.5744 17.84961,17.7754 7.99499,6.8449 13.58876,12.5762 16.78125,17.1855 3.18328,4.5909 4.7832,9.2725 4.7832,14.0566 0,4.7106 -1.45293,8.4101 -4.3418,11.0782 -2.89809,2.6772 -6.90865,4.0117 -12.0332,4.0117 -11.6291,0 -17.44531,-6.3855 -17.44531,-19.1738 v -7.7657 h -16.63281 v 10.2676 c 0,9.1543 2.43695,16.4047 7.32226,21.75 5.98016,6.5046 14.84002,9.752 26.57031,9.752 10.12945,0 18.10736,-2.5859 23.92188,-7.7657 6.08135,-5.4649 9.12695,-12.9716 9.12695,-22.5214 0,-6.155 -1.41716,-12.0805 -4.23242,-17.7754 -3.44089,-7.1118 -11.40005,-15.9887 -23.88476,-26.6426 -7.65459,-6.569 -12.95436,-11.8875 -15.89844,-15.9356 -2.92566,-4.0481 -4.37891,-8.1154 -4.37891,-12.2187 0,-3.6801 1.06867,-6.6597 3.20313,-8.9414 2.62206,-2.8889 6.55916,-4.3438 11.8125,-4.3438 6.20094,0 10.46027,2.0166 12.76953,6.0372 1.71125,2.944 2.57617,7.2033 2.57617,12.7695 v 4.1582 h 16.48633 v -5.8516 c 0,-9.835 -2.41988,-17.4077 -7.25,-22.707 -5.40052,-5.9802 -13.53298,-8.9785 -24.39844,-8.9785 z m -347.27539,2.0605 v 126.5957 h 16.63476 v -58.8457 h 31.75782 v -13.6523 h -31.75782 v -40.4434 h 36.68946 v -13.6543 z m 67.76758,0 v 126.5957 h 55.38476 v -13.6172 h -38.75195 v -45.2285 h 32.45898 v -13.6523 h -32.45898 v -40.4434 h 36.83789 v -13.6543 z m 70.85351,0 v 126.5957 h 16.63477 v -56.9687 l 13.46875,-0.3301 23.2207,57.2988 h 17.40625 l -25.09765,-61.0898 c 6.37577,-2.7693 11.23452,-6.9193 14.57421,-12.4395 3.33047,-5.5201 5.00391,-12.1524 5.00391,-19.9082 0,-9.4394 -2.59509,-17.0121 -7.76562,-22.707 -6.32976,-6.9646 -15.87932,-10.4512 -28.63086,-10.4512 z m 86.67188,0 v 126.5957 h 16.30469 v -56.5273 l -0.36914,-38.5664 v -4.9317 c 7.08419,26.6991 17.269,60.0412 30.54492,100.0254 h 22.77929 v -126.5957 h -16.48632 v 47.6582 c 0,9.1266 0.0549,21.1132 0.18359,35.9531 l 0.11133,9.9376 0.0723,6.2929 c -7.65461,-27.3247 -17.72815,-60.612 -30.21289,-99.8418 z m 176.43359,0 v 126.5957 h 55.38477 v -13.6172 h -38.75 v -45.2285 h 32.45703 v -13.6523 h -32.45703 v -40.4434 h 36.83789 v -13.6543 z m 69.27344,0 v 126.5957 h 16.45117 v -59.9863 h 33.67188 v 59.9863 h 16.48828 v -126.5957 h -16.48828 v 53.3242 h -33.67188 v -53.3242 z m 89.81055,0 v 126.5957 h 55.38671 v -13.6172 h -38.75195 v -45.2285 h 32.45899 v -13.6523 h -32.45899 v -40.4434 h 36.83789 v -13.6543 z m 70.85547,0 v 126.5957 h 16.30273 v -56.5273 l -0.36914,-38.5664 v -4.9317 c 7.0842,26.6991 17.26901,60.0412 30.54492,100.0254 h 22.78125 v -126.5957 h -16.48828 v 47.6582 c 0,9.1266 0.0549,21.1132 0.18359,35.9531 l 0.11133,9.9376 0.0742,6.2929 c -7.65462,-27.3247 -17.7301,-60.612 -30.21484,-99.8418 z m -476.41016,13.6543 h 8.35351 c 8.5102,0 14.55448,1.6095 18.14258,4.8203 3.62489,3.2937 5.44727,8.4465 5.44727,15.4571 0,15.2355 -8.3831,22.8515 -25.13672,22.8515 h -6.80664 z"
           transform="matrix(0.33489599,0,0,0.33489599,-165.41307,-424.5399)"
           id="path4530" />
      </g>
      <g
         id="g4609"
         transform="matrix(2.3626393,0,0,-2.3626393,-729.77303,2248.0913)"
         style="fill:#173e7d">
        <path
           id="path4597"
           d="M 89.393,796.502 H 94.23 V 758.078 H 89.393 Z"
           style="fill:#00d2ff;fill-opacity:1" />
        <path
           id="path4599"
           d="m 89.393,717.233 h 4.837 v -17.45 h -4.837 z"
           style="fill:#00d2ff;fill-opacity:1" />
        <path
           id="path4601"
           d="m 80.7287,758.0781 h 8.664 v -40.846 h -9.619 l -13.222,23.815 v -23.815 h -8.664 v 40.848 l 9.039,-10e-4 13.802,-25.442 z" />
        <path
           id="path4603"
           d="m 108.682,758.0833 c 9.819,0 14.608,-4.53 15.257,-14.235 v -12.292 c -0.743,-10.392 -5.438,-14.322 -15.257,-14.322 H 94.229 v 40.844 z m -0.851,-7.733 -4.334,0.003 v -25.423 h 4.334 c 4.295,0 7.312,1.796 7.312,7.503 v 10.505 c 0,5.419 -2.742,7.412 -7.312,7.412"
           style="fill-rule:evenodd" />
        <path
           id="path4605"
           d="m 142.7492,750.8438 -5.751,0.002 v -10.555 h 5.751 c 3.507,0 5.791,1.987 5.791,5.535 0,3.549 -1.618,5.018 -5.791,5.018 m -0.66,-17.918 7.287,-15.693 h 9.759 l -8.657,17.316 c 4.888,1.937 6.825,5.874 6.725,11.167 -0.151,8.051 -4.171,12.362 -14.825,12.362 h -14.235 v -40.845 h 9.031 v 15.663 z"
           style="fill-rule:evenodd" />
      </g>
    </g>
  </g>
</svg>
