<svg enable-background="new 0 0 439.9 137" viewBox="0 0 439.9 137" xmlns="http://www.w3.org/2000/svg" xmlns:xlink="http://www.w3.org/1999/xlink"><clipPath id="a"><path d="m42.9 76.6c0-15.9 8.2-22.5 16.4-22.5 11.4 0 15.4 7.5 15.4 23.6 0 14.1-5.7 23.4-16.4 23.4-11.1 0-15.4-7-15.4-24.5m-42.9 4.5c0 40.7 22.3 55.9 56.1 55.9 34.1 0 61.6-24.1 61.6-61.8 0-35.9-18.9-56.6-55.9-56.6-34.8.1-61.8 24.1-61.8 62.5"/></clipPath><linearGradient id="b"><stop offset="0" stop-color="#f6c617"/><stop offset=".2349" stop-color="#f6c617"/><stop offset=".2831" stop-color="#f4bd20"/><stop offset=".3626" stop-color="#eea639"/><stop offset=".4638" stop-color="#e38062"/><stop offset=".5825" stop-color="#d54b9b"/><stop offset=".7054" stop-color="#c50ddd"/><stop offset="1" stop-color="#c50ddd"/></linearGradient><linearGradient id="c" gradientTransform="matrix(133.8636 367.7872 -367.7872 133.8636 225698.9062 263059.9062)" gradientUnits="userSpaceOnUse" x1="-828.8907" x2="-827.8907" xlink:href="#b" y1="311.9314" y2="311.9314"/><clipPath id="d"><path d="m162.9 36.4h-.2c.8-5 1.1-10 1.1-15h-38.2v112.9h41.4v-55c0-12.5 8.6-25.7 17.7-25.7 4.8 0 6.4 3.6 6.4 9.3v71.3h41.3v-80c0-19.3-8.4-35.7-33.4-35.7-17.3.2-29.1 7.9-36.1 17.9"/></clipPath><linearGradient id="e" gradientTransform="matrix(133.8636 367.7872 -367.7872 133.8636 225801.4062 263022.625)" gradientUnits="userSpaceOnUse" x1="-828.8907" x2="-827.8907" xlink:href="#b" y1="311.9204" y2="311.9204"/><clipPath id="f"><path d="m296.4 48.4c7.3 0 12 4.8 11.6 15.7h-25.4c.4-9.3 5.9-15.7 13.8-15.7m-55.4 30.9c0 40 21.6 57.7 59.5 57.7 13.9 0 30-2.5 43.6-7.9l-3.6-30.9c-10.5 4.6-21.9 7-33.4 7-16.1 0-23.6-6.4-24.3-14.3h64.1c.9-5.9 1.3-11.8 1.4-17.7 0-31.3-15.9-54.7-50.9-54.7-36.6-.1-56.4 25.8-56.4 60.8"/></clipPath><linearGradient id="g" gradientTransform="matrix(133.8636 367.7872 -367.7872 133.8636 225907.5938 262983.9688)" gradientUnits="userSpaceOnUse" x1="-828.8907" x2="-827.8907" xlink:href="#b" y1="311.9326" y2="311.9326"/><clipPath id="h"><path d="m368.9 39c0-17.7 14.3-32 32-32s32 14.3 32 32-14.3 32-32 32c-17.7-.1-32-14.4-32-32m-7 0c0 21.5 17.4 39 39 39 21.5 0 39-17.4 39-39s-17.4-39-39-39c-21.5 0-39 17.4-39 39"/></clipPath><linearGradient id="i" gradientTransform="matrix(133.8636 367.7872 -367.7872 133.8636 226013.6719 262945.3438)" gradientUnits="userSpaceOnUse" x1="-828.8907" x2="-827.8907" xlink:href="#b" y1="311.9319" y2="311.9319"/><clipPath id="j"><path d="m381.3 30.2v8l10.7-3.9v24l21.5-7.7v-32z"/></clipPath><linearGradient id="k" gradientTransform="matrix(133.8636 367.7872 -367.7872 133.8636 226013.9375 262945.25)" gradientUnits="userSpaceOnUse" x1="-828.8907" x2="-827.8907" xlink:href="#b" y1="311.9407" y2="311.9407"/><g clip-path="url(#a)"><path d="m-38 32.5 141.9-51.7 51.8 142.3-141.9 51.7z" fill="url(#c)"/></g><g clip-path="url(#d)"><path d="m88.5 32.2 131.4-47.8 49.6 136.4-131.4 47.8z" fill="url(#e)"/></g><g clip-path="url(#f)"><path d="m202.9 32.3 132.8-48.3 50.6 139.2-132.8 48.3z" fill="url(#g)"/></g><g clip-path="url(#h)"><path d="m336.9 9.1 93.8-34.1 34.2 93.9-93.9 34.1z" fill="url(#i)"/></g><g clip-path="url(#j)"><path d="m368.6 23.3 41.1-15 16.5 45.4-41.1 15z" fill="url(#k)"/></g></svg>