<?xml version="1.0" encoding="UTF-8" standalone="no"?>
<svg
   xmlns:dc="http://purl.org/dc/elements/1.1/"
   xmlns:cc="http://creativecommons.org/ns#"
   xmlns:rdf="http://www.w3.org/1999/02/22-rdf-syntax-ns#"
   xmlns:svg="http://www.w3.org/2000/svg"
   xmlns="http://www.w3.org/2000/svg"
   xmlns:sodipodi="http://sodipodi.sourceforge.net/DTD/sodipodi-0.dtd"
   xmlns:inkscape="http://www.inkscape.org/namespaces/inkscape"
   id="logo"
   viewBox="0 0 117 39.4"
   width="100%"
   height="100%"
   version="1.1"
   style="height:88px;width:1060.8px;perspective-origin:530.4px 44px;transform-origin:530.4px 44px;user-select:none;"
   sodipodi:docname="phoenix-logo-2018.svg"
   inkscape:version="0.92.1 r15371">
  <metadata
     id="metadata9">
    <rdf:RDF>
      <cc:Work
         rdf:about="">
        <dc:format>image/svg+xml</dc:format>
        <dc:type
           rdf:resource="http://purl.org/dc/dcmitype/StillImage" />
        <dc:title></dc:title>
      </cc:Work>
    </rdf:RDF>
  </metadata>
  <defs
     id="defs7" />
  <sodipodi:namedview
     pagecolor="#ffffff"
     bordercolor="#666666"
     borderopacity="1"
     objecttolerance="10"
     gridtolerance="10"
     guidetolerance="10"
     inkscape:pageopacity="0"
     inkscape:pageshadow="2"
     inkscape:window-width="640"
     inkscape:window-height="480"
     id="namedview5"
     showgrid="false"
     inkscape:zoom="3.7692308"
     inkscape:cx="58.5"
     inkscape:cy="19.7"
     inkscape:window-x="0"
     inkscape:window-y="0"
     inkscape:window-maximized="0"
     inkscape:current-layer="logo" />
  <path
     fill="#00687C"
     d="M4.3 6.6v1.9c.7-.7 1.6-1.3 2.5-1.7.9-.4 1.9-.6 2.9-.6 2.2 0 4.3.9 5.7 2.5 1.6 1.8 2.4 4.1 2.3 6.5.1 2.4-.8 4.7-2.4 6.4-1.5 1.6-3.6 2.6-5.8 2.6-.9 0-1.9-.2-2.8-.5-.9-.4-1.8-1-2.5-1.7v8.1H0V6.6h4.3zm4.5 3.6c-1.3 0-2.5.5-3.3 1.4-.9 1-1.4 2.3-1.3 3.6-.1 1.4.4 2.7 1.3 3.7.9.9 2.1 1.5 3.3 1.4 1.3 0 2.5-.5 3.3-1.4.9-1 1.4-2.3 1.3-3.7.1-1.3-.4-2.6-1.3-3.6-.8-.9-2-1.5-3.3-1.4m11 13.6H24v-6.9c0-1.2 0-2.4.2-3.5.2-.9.6-1.7 1.3-2.3.6-.6 1.4-.9 2.2-.9.6 0 1.2.2 1.7.5.5.4.8.9 1 1.6.2 1.3.3 2.7.3 4v7.5H35V12.5c.1-1.6-.4-3.3-1.5-4.5-1.1-1.2-2.7-1.8-4.3-1.8-.9 0-1.8.2-2.6.5-.9.4-1.8 1-2.5 1.6V0h-4.3v23.8zM45.6 6.2c1.6 0 3.2.4 4.6 1.2 1.4.8 2.5 1.9 3.3 3.3.8 1.4 1.2 2.9 1.2 4.5s-.4 3.2-1.2 4.6c-.8 1.4-1.9 2.5-3.3 3.3-1.4.8-3 1.2-4.6 1.2-2.4 0-4.7-.9-6.3-2.6-1.7-1.7-2.7-4-2.6-6.4-.1-2.6 1-5 3-6.7 1.5-1.6 3.7-2.4 5.9-2.4m.1 4c-1.3 0-2.5.5-3.3 1.4-.9 1-1.4 2.3-1.3 3.6-.1 1.3.4 2.6 1.3 3.6.9.9 2.1 1.4 3.3 1.4 1.3 0 2.5-.5 3.4-1.4.9-1 1.4-2.3 1.3-3.6.1-1.3-.4-2.6-1.3-3.6-.9-.9-2.2-1.4-3.4-1.4m28.4 6.3H60.3c.1 1.1.7 2.2 1.6 2.9.9.8 2.1 1.1 3.3 1.1 1.6 0 3.1-.6 4.2-1.7l3.6 1.7c-.8 1.2-1.9 2.2-3.3 2.8-1.4.6-2.9 1-4.5.9-2.5.1-4.8-.8-6.6-2.5-1.7-1.7-2.6-4-2.5-6.4-.1-2.4.8-4.8 2.5-6.5 1.7-1.7 4-2.7 6.4-2.6 2.5-.1 4.9.8 6.6 2.6 1.7 1.8 2.7 4.3 2.5 6.9v.8zm-4.3-3.4c-.3-1-.9-1.8-1.7-2.3-.9-.6-1.9-.9-2.9-.9-1.1 0-2.3.3-3.2 1-.7.6-1.2 1.4-1.6 2.2h9.4zM76 23.8h4.3v-6.9c0-1.2 0-2.3.2-3.5.2-.9.6-1.8 1.3-2.4.6-.6 1.4-.9 2.2-.8.6 0 1.2.2 1.7.5.5.4.8 1 1 1.6.2 1.3.3 2.7.3 4.1v7.5h4.3V12.5c.1-1.6-.4-3.2-1.5-4.5-1.1-1.2-2.7-1.8-4.3-1.8-.8 0-1.7.2-2.4.5-1 .4-1.9 1-2.7 1.7V6.6H76v17.2zm17.5 0h4.3V6.6h-4.3v17.2zm11.9-9l-6.5 9h4.9l4.1-5.6 4.1 5.6h5l-6.6-9.1 5.8-8.1h-4.9l-3.4 4.7-3.4-4.7h-5l5.9 8.2zM19.8 38.9v-8.8h2.9c1.1 0 2.3.4 3.1 1.1 1.8 1.6 2 4.4.4 6.2l-.4.4c-.9.7-2 1.1-3.1 1.1h-2.9zm.9-8V38h1.7c1.1.1 2.2-.3 3-1.1 1.3-1.4 1.3-3.5 0-4.9-.8-.8-1.9-1.2-3-1.1h-1.7zm8.8 5.7l-1 2.3h-1l3.8-8.8h.9l3.8 8.8h-1l-1-2.3h-4.5zm2.2-5.5l-1.9 4.6h3.8l-1.9-4.6zm10.5-.2l-.8.6c-.4-.6-1-.9-1.7-.9-.5 0-.9.1-1.3.4-.4.3-.6.7-.6 1.2 0 .7.5 1.3 1.2 1.5l2.2.8c.7.4 1.2 1.2 1.2 2 0 .7-.3 1.4-.9 1.9-.6.4-1.3.7-2 .7-1.1.1-2.1-.4-2.8-1.3l.8-.6c.4.7 1.2 1.2 2 1.1.5 0 .9-.1 1.3-.4.4-.3.6-.7.6-1.2 0-.7-.5-1.3-1.2-1.5-.7-.3-1.4-.5-2.2-.8-.7-.4-1.2-1.2-1.2-2 0-.7.3-1.5.9-1.9 1.4-1 3.3-.8 4.5.4zm12.5.2l-.7.7c-.7-.7-1.6-1.1-2.5-1-1 0-2 .4-2.7 1.1-1.3 1.5-1.3 3.8 0 5.3.7.8 1.6 1.2 2.6 1.2.9 0 1.7-.2 2.4-.7v-2.9h-2.1V34h3v4.3c-1 .6-2.2.9-3.3.9-1.2 0-2.4-.4-3.3-1.3-1.7-1.9-1.7-4.7 0-6.6.9-.9 2-1.3 3.3-1.3 1.3-.2 2.5.2 3.3 1.1zm3.2 5.5l-.9 2.3h-1l3.8-8.8h.9l3.8 8.8h-1.1l-1-2.3h-4.5zm2.2-5.5l-1.9 4.6H62l-1.9-4.6zm6.6-1l5.2 7.4v-7.4h.9v8.8h-1.1l-5.2-7.5v7.5h-.9v-8.8h1.1zm13.7 0v.7L75.3 38h5.2v.8h-6.3V38l5.1-7.2h-5.1V30l6.2.1zm2.2 4.6V38h4.7v.8h-5.6v-8.7h5.5v.8h-4.6v3h4.3v.8h-4.3zm9.9 4.2v-8.8h2.6c.7 0 1.4.1 2 .5.6.4.9 1 .9 1.7 0 .4-.1.9-.4 1.2-.3.4-.7.6-1.1.7.6 0 1.1.3 1.5.7.4.4.6 1 .5 1.6 0 .5-.2 1-.5 1.4-.7.7-1.7 1.1-2.7 1h-2.8zm.9-8v3h1.8c.4 0 .9-.1 1.2-.3.4-.3.6-.7.6-1.2 0-.3-.1-.6-.3-.9-.4-.4-1-.7-1.6-.6h-1.7zm0 3.8v3.4h1.7c.6 0 1.1-.1 1.6-.4.4-.3.7-.8.7-1.3 0-1.1-.7-1.7-2.2-1.7h-1.8zm7.7-4.6v8.8h-.9v-8.8h.9zm3.1 0v8h4.1v.8h-5v-8.7h.9zm5.2 8.8v-8.8h2.9c1.1 0 2.3.4 3.1 1.1 1.8 1.6 2 4.3.4 6.2l-.4.4c-.9.7-2 1.1-3.1 1.1h-2.9zm.9-8V38h1.7c1.1.1 2.2-.3 3-1.1 1.3-1.4 1.3-3.5 0-4.9-.8-.8-1.9-1.2-3-1.1h-1.7z"
     style="height:auto;overflow-x:visible;overflow-y:visible;width:auto;perspective-origin:0px 0px;transform-origin:0px 0px;user-select:none;fill:rgb(0, 104, 124);d:path('M 4.3 6.6 v 1.9 c 0.7 -0.7 1.6 -1.3 2.5 -1.7 c 0.9 -0.4 1.9 -0.6 2.9 -0.6 c 2.2 0 4.3 0.9 5.7 2.5 c 1.6 1.8 2.4 4.1 2.3 6.5 c 0.1 2.4 -0.8 4.7 -2.4 6.4 c -1.5 1.6 -3.6 2.6 -5.8 2.6 c -0.9 0 -1.9 -0.2 -2.8 -0.5 c -0.9 -0.4 -1.8 -1 -2.5 -1.7 v 8.1 H 0 V 6.6 h 4.3 Z m 4.5 3.6 c -1.3 0 -2.5 0.5 -3.3 1.4 c -0.9 1 -1.4 2.3 -1.3 3.6 c -0.1 1.4 0.4 2.7 1.3 3.7 c 0.9 0.9 2.1 1.5 3.3 1.4 c 1.3 0 2.5 -0.5 3.3 -1.4 c 0.9 -1 1.4 -2.3 1.3 -3.7 c 0.1 -1.3 -0.4 -2.6 -1.3 -3.6 c -0.8 -0.9 -2 -1.5 -3.3 -1.4 m 11 13.6 H 24 v -6.9 c 0 -1.2 0 -2.4 0.2 -3.5 c 0.2 -0.9 0.6 -1.7 1.3 -2.3 c 0.6 -0.6 1.4 -0.9 2.2 -0.9 c 0.6 0 1.2 0.2 1.7 0.5 c 0.5 0.4 0.8 0.9 1 1.6 c 0.2 1.3 0.3 2.7 0.3 4 v 7.5 H 35 V 12.5 c 0.1 -1.6 -0.4 -3.3 -1.5 -4.5 c -1.1 -1.2 -2.7 -1.8 -4.3 -1.8 c -0.9 0 -1.8 0.2 -2.6 0.5 c -0.9 0.4 -1.8 1 -2.5 1.6 V 0 h -4.3 v 23.8 Z M 45.6 6.2 c 1.6 0 3.2 0.4 4.6 1.2 c 1.4 0.8 2.5 1.9 3.3 3.3 c 0.8 1.4 1.2 2.9 1.2 4.5 s -0.4 3.2 -1.2 4.6 c -0.8 1.4 -1.9 2.5 -3.3 3.3 c -1.4 0.8 -3 1.2 -4.6 1.2 c -2.4 0 -4.7 -0.9 -6.3 -2.6 c -1.7 -1.7 -2.7 -4 -2.6 -6.4 c -0.1 -2.6 1 -5 3 -6.7 c 1.5 -1.6 3.7 -2.4 5.9 -2.4 m 0.1 4 c -1.3 0 -2.5 0.5 -3.3 1.4 c -0.9 1 -1.4 2.3 -1.3 3.6 c -0.1 1.3 0.4 2.6 1.3 3.6 c 0.9 0.9 2.1 1.4 3.3 1.4 c 1.3 0 2.5 -0.5 3.4 -1.4 c 0.9 -1 1.4 -2.3 1.3 -3.6 c 0.1 -1.3 -0.4 -2.6 -1.3 -3.6 c -0.9 -0.9 -2.2 -1.4 -3.4 -1.4 m 28.4 6.3 H 60.3 c 0.1 1.1 0.7 2.2 1.6 2.9 c 0.9 0.8 2.1 1.1 3.3 1.1 c 1.6 0 3.1 -0.6 4.2 -1.7 l 3.6 1.7 c -0.8 1.2 -1.9 2.2 -3.3 2.8 c -1.4 0.6 -2.9 1 -4.5 0.9 c -2.5 0.1 -4.8 -0.8 -6.6 -2.5 c -1.7 -1.7 -2.6 -4 -2.5 -6.4 c -0.1 -2.4 0.8 -4.8 2.5 -6.5 c 1.7 -1.7 4 -2.7 6.4 -2.6 c 2.5 -0.1 4.9 0.8 6.6 2.6 c 1.7 1.8 2.7 4.3 2.5 6.9 v 0.8 Z m -4.3 -3.4 c -0.3 -1 -0.9 -1.8 -1.7 -2.3 c -0.9 -0.6 -1.9 -0.9 -2.9 -0.9 c -1.1 0 -2.3 0.3 -3.2 1 c -0.7 0.6 -1.2 1.4 -1.6 2.2 h 9.4 Z M 76 23.8 h 4.3 v -6.9 c 0 -1.2 0 -2.3 0.2 -3.5 c 0.2 -0.9 0.6 -1.8 1.3 -2.4 c 0.6 -0.6 1.4 -0.9 2.2 -0.8 c 0.6 0 1.2 0.2 1.7 0.5 c 0.5 0.4 0.8 1 1 1.6 c 0.2 1.3 0.3 2.7 0.3 4.1 v 7.5 h 4.3 V 12.5 c 0.1 -1.6 -0.4 -3.2 -1.5 -4.5 c -1.1 -1.2 -2.7 -1.8 -4.3 -1.8 c -0.8 0 -1.7 0.2 -2.4 0.5 c -1 0.4 -1.9 1 -2.7 1.7 V 6.6 H 76 v 17.2 Z m 17.5 0 h 4.3 V 6.6 h -4.3 v 17.2 Z m 11.9 -9 l -6.5 9 h 4.9 l 4.1 -5.6 l 4.1 5.6 h 5 l -6.6 -9.1 l 5.8 -8.1 h -4.9 l -3.4 4.7 l -3.4 -4.7 h -5 l 5.9 8.2 Z M 19.8 38.9 v -8.8 h 2.9 c 1.1 0 2.3 0.4 3.1 1.1 c 1.8 1.6 2 4.4 0.4 6.2 l -0.4 0.4 c -0.9 0.7 -2 1.1 -3.1 1.1 h -2.9 Z m 0.9 -8 V 38 h 1.7 c 1.1 0.1 2.2 -0.3 3 -1.1 c 1.3 -1.4 1.3 -3.5 0 -4.9 c -0.8 -0.8 -1.9 -1.2 -3 -1.1 h -1.7 Z m 8.8 5.7 l -1 2.3 h -1 l 3.8 -8.8 h 0.9 l 3.8 8.8 h -1 l -1 -2.3 h -4.5 Z m 2.2 -5.5 l -1.9 4.6 h 3.8 l -1.9 -4.6 Z m 10.5 -0.2 l -0.8 0.6 c -0.4 -0.6 -1 -0.9 -1.7 -0.9 c -0.5 0 -0.9 0.1 -1.3 0.4 c -0.4 0.3 -0.6 0.7 -0.6 1.2 c 0 0.7 0.5 1.3 1.2 1.5 l 2.2 0.8 c 0.7 0.4 1.2 1.2 1.2 2 c 0 0.7 -0.3 1.4 -0.9 1.9 c -0.6 0.4 -1.3 0.7 -2 0.7 c -1.1 0.1 -2.1 -0.4 -2.8 -1.3 l 0.8 -0.6 c 0.4 0.7 1.2 1.2 2 1.1 c 0.5 0 0.9 -0.1 1.3 -0.4 c 0.4 -0.3 0.6 -0.7 0.6 -1.2 c 0 -0.7 -0.5 -1.3 -1.2 -1.5 c -0.7 -0.3 -1.4 -0.5 -2.2 -0.8 c -0.7 -0.4 -1.2 -1.2 -1.2 -2 c 0 -0.7 0.3 -1.5 0.9 -1.9 c 1.4 -1 3.3 -0.8 4.5 0.4 Z m 12.5 0.2 l -0.7 0.7 c -0.7 -0.7 -1.6 -1.1 -2.5 -1 c -1 0 -2 0.4 -2.7 1.1 c -1.3 1.5 -1.3 3.8 0 5.3 c 0.7 0.8 1.6 1.2 2.6 1.2 c 0.9 0 1.7 -0.2 2.4 -0.7 v -2.9 h -2.1 V 34 h 3 v 4.3 c -1 0.6 -2.2 0.9 -3.3 0.9 c -1.2 0 -2.4 -0.4 -3.3 -1.3 c -1.7 -1.9 -1.7 -4.7 0 -6.6 c 0.9 -0.9 2 -1.3 3.3 -1.3 c 1.3 -0.2 2.5 0.2 3.3 1.1 Z m 3.2 5.5 l -0.9 2.3 h -1 l 3.8 -8.8 h 0.9 l 3.8 8.8 h -1.1 l -1 -2.3 h -4.5 Z m 2.2 -5.5 l -1.9 4.6 H 62 l -1.9 -4.6 Z m 6.6 -1 l 5.2 7.4 v -7.4 h 0.9 v 8.8 h -1.1 l -5.2 -7.5 v 7.5 h -0.9 v -8.8 h 1.1 Z m 13.7 0 v 0.7 L 75.3 38 h 5.2 v 0.8 h -6.3 V 38 l 5.1 -7.2 h -5.1 V 30 l 6.2 0.1 Z m 2.2 4.6 V 38 h 4.7 v 0.8 h -5.6 v -8.7 h 5.5 v 0.8 h -4.6 v 3 h 4.3 v 0.8 h -4.3 Z m 9.9 4.2 v -8.8 h 2.6 c 0.7 0 1.4 0.1 2 0.5 c 0.6 0.4 0.9 1 0.9 1.7 c 0 0.4 -0.1 0.9 -0.4 1.2 c -0.3 0.4 -0.7 0.6 -1.1 0.7 c 0.6 0 1.1 0.3 1.5 0.7 c 0.4 0.4 0.6 1 0.5 1.6 c 0 0.5 -0.2 1 -0.5 1.4 c -0.7 0.7 -1.7 1.1 -2.7 1 h -2.8 Z m 0.9 -8 v 3 h 1.8 c 0.4 0 0.9 -0.1 1.2 -0.3 c 0.4 -0.3 0.6 -0.7 0.6 -1.2 c 0 -0.3 -0.1 -0.6 -0.3 -0.9 c -0.4 -0.4 -1 -0.7 -1.6 -0.6 h -1.7 Z m 0 3.8 v 3.4 h 1.7 c 0.6 0 1.1 -0.1 1.6 -0.4 c 0.4 -0.3 0.7 -0.8 0.7 -1.3 c 0 -1.1 -0.7 -1.7 -2.2 -1.7 h -1.8 Z m 7.7 -4.6 v 8.8 h -0.9 v -8.8 h 0.9 Z m 3.1 0 v 8 h 4.1 v 0.8 h -5 v -8.7 h 0.9 Z m 5.2 8.8 v -8.8 h 2.9 c 1.1 0 2.3 0.4 3.1 1.1 c 1.8 1.6 2 4.3 0.4 6.2 l -0.4 0.4 c -0.9 0.7 -2 1.1 -3.1 1.1 h -2.9 Z m 0.9 -8 V 38 h 1.7 c 1.1 0.1 2.2 -0.3 3 -1.1 c 1.3 -1.4 1.3 -3.5 0 -4.9 c -0.8 -0.8 -1.9 -1.2 -3 -1.1 h -1.7 Z');"
     id="path2" />
</svg>
