<?xml version="1.0" encoding="utf-8"?>
<!-- Generator: Adobe Illustrator 23.1.0, SVG Export Plug-In . SVG Version: 6.00 Build 0)  -->
<svg version="1.1"
	 id="svg2" inkscape:version="0.91 r13725" sodipodi:docname="Premier League 2016 Symbol.svg" xmlns:cc="http://creativecommons.org/ns#" xmlns:dc="http://purl.org/dc/elements/1.1/" xmlns:inkscape="http://www.inkscape.org/namespaces/inkscape" xmlns:rdf="http://www.w3.org/1999/02/22-rdf-syntax-ns#" xmlns:sodipodi="http://sodipodi.sourceforge.net/DTD/sodipodi-0.dtd" xmlns:svg="http://www.w3.org/2000/svg"
	 xmlns="http://www.w3.org/2000/svg" xmlns:xlink="http://www.w3.org/1999/xlink" x="0px" y="0px" viewBox="0 0 804.3 1000"
	 style="enable-background:new 0 0 804.3 1000;" xml:space="preserve">
<style type="text/css">
	.st0{fill:#360C3A;}
</style>
<g>
	<path class="st0" d="M214.4,191.4c65.8-36.5,142-57.3,223.1-57.3c42.2,0,83.2,5.7,122,16.2c3.6-36.4,11.8-81.8,28.9-114.7
		c-39.5,29.7-63,61.9-66.1,65.9c-0.9-8.3-4.5-63.2-7.2-101.6c-15.9,16.9-77.4,83.7-88.2,94.6c-8.8-13.2-60.3-94.5-60.3-94.5
		s-28.5,80.7-36.7,105.3c-20.2-13.5-81.5-55-107.9-72.8c5.1,34.1,14.1,89.1,16.5,100.5c-5.3-3.9-34.4-29.5-79.7-49.7
		C183.7,112.4,202.4,156.2,214.4,191.4z"/>
	<polygon class="st0" points="779.5,776.5 779.5,776.5 779.5,776.5 	"/>
	<path class="st0" d="M713.1,381l-3.4,25.8l-34.1-36c0,0,6.3-3,12.7-10.5c0.4-3-2.1-20.7-16.3-32.3c-13.8,3.4-23.9,11-29.3,18.5
		c-18.8-16.5-39.9-22.8-39.9-22.8c3.7,2.8,25.9,32.9,28.4,41.5c20.3,16.4,46.5,35.7,64.7,58.7c-14.4-16.3-84.3-20.2-116.5-3
		c0,0-31.6-36.2-60.7-61.5c-6.1-22.1,14-40.3,14-40.3s-20.2-0.6-39.6,17.8c-29.1-21-66-31.1-66-31.1c-40.8,6.2-68.7,34.1-68.7,34.1
		c9.9,6.1,22.6,13.4,33.5,17.5c22.7,8.6,43.4,6,57.3,5.9c11.1-0.1,26.9,3.1,26.9,3.1s27.5,20,67.3,64.8
		c-60.5-23.7-124.7,3.4-169.4-18.4c-52.1-25.5-48.5-66.1-48.5-66.1s-35.5-4.9-35.8-5.5c0,0,26-33.5,66-45.5l-20.2-16.8
		c23.2-19.6,65.9-44.6,132.3-53.9c0,0,29.7,10.7,90.2,53.3c10.4-13.7,12.9-42.3,12.9-42.3c30.4,10.7,94,55.3,119.3,83
		c-13.4-31.3-23.5-51.1-26.7-84c-15.6-15-52.9-46-131-64.5c12,25.6,11,46.7,11,46.7c-14.4-18-45.2-46.8-66.1-55
		c-13.1-1.2-26.6-1.7-40.1-1.7c-72.1,0-140.3,17-200.4,47.1h0c31.8,1.8,53,27.8,60.3,48.5c-24.3-18.6-62.5-26.8-85.1-2.8
		c-22.7,23.7-20,69.6,1.6,106.7c-51.1-25.2-50.8-91.5-33.4-118.4l-0.1,0C122.3,282.4,74.8,337,43,400.4h0l46.8,7.3
		C36.7,467,0,572.5,0,622.2l74.9-22.6c-13.4,43.6-17.5,191.5,27.5,265.3c0,0,59-39.4,125.6-140.1c28.5,90.2,15.2,165.6,0.3,240
		c120.3,66.4,260.4,29.1,342-28.4l14.7,56.2c96.2-61.8,148.5-150.3,158.7-254.6l35.7,38.6C834.6,617.2,791.7,490.5,713.1,381z
		 M502.6,605.3c-24.8-45.4-47.6-87.4-47.6-87.4s67.2-54.5,122.7-62.7c27.6,20.9,53.5,29,53.5,29l0.1,56.6h0
		C610.7,557.5,546.3,611.3,502.6,605.3z M687.3,643.4c-9.5,47.1-36.3,77-55.8,88.1c1.7-34.1-7.5-63-7.5-63
		c-13.9,15.8-48.4,30.9-68,35c-9.9-18.6-29.6-54.2-29.6-54.2c35.6-1.2,94-50.1,94-50.1l43.3-1C682.8,620,687.3,643.4,687.3,643.4
		L687.3,643.4z M707.5,599c-11.5-25.7-27-39.8-42.6-56.8l-0.3-56.8c0,0,18.5-10,40.4-27.9h0C725.2,504,729.4,560.6,707.5,599z"/>
</g>
</svg>
