<svg width="111" height="50" viewBox="0 0 111 50" fill="none" xmlns="http://www.w3.org/2000/svg">
<path d="M48.3741 16.5253H38.5196V11.5192H44.8262C44.9817 11.5192 45.1089 11.3956 45.1089 11.2416V8.29299C45.1089 8.13903 44.9841 8.01306 44.8262 8.01306H38.5196V3.50848H48.3741C48.5296 3.50848 48.6568 3.38251 48.6568 3.22855V0.279931C48.6568 0.125969 48.532 0 48.3741 0H34.7456C34.5901 0 34.4629 0.125969 34.4629 0.279931V19.7492C34.4629 19.9032 34.5877 20.0268 34.7456 20.0268H48.3741C48.5296 20.0268 48.6568 19.9032 48.6568 19.7492V16.8006C48.6568 16.6466 48.532 16.5207 48.3741 16.5207" fill="#FFFF00"/>
<path d="M75.469 28.0508C75.2593 28.0508 75.125 28.2677 75.2169 28.452L76.9461 31.8695C77.0026 31.9838 77.1204 32.0538 77.2476 32.0538H81.8533V47.7837C81.8533 47.9376 81.9782 48.0636 82.136 48.0636H85.6274C85.7828 48.0636 85.9101 47.9376 85.9101 47.7837V32.0538H90.5157C90.6453 32.0538 90.7631 31.9838 90.8173 31.8695L92.5465 28.452C92.6407 28.2677 92.504 28.0508 92.2944 28.0508H75.4666H75.469Z" fill="white"/>
<path d="M54.7376 9.62579L60.6201 15.3107C60.7285 15.4157 60.9028 15.4157 61.0135 15.3107L66.9031 9.62579V19.7523C66.9031 19.9063 67.028 20.0323 67.1858 20.0323H70.6772C70.8327 20.0323 70.9599 19.9063 70.9599 19.7523V0.283052C70.9599 0.0334453 70.656 -0.08786 70.4793 0.0847648L61.0182 9.43217C60.9075 9.53948 60.7285 9.53948 60.6201 9.43217L51.1661 0.0917646C50.9894 -0.083193 50.6855 0.0404434 50.6855 0.29005V19.7523C50.6855 19.9063 50.8104 20.0323 50.9682 20.0323H54.4596C54.6151 20.0323 54.7423 19.9063 54.7423 19.7523V9.62579H54.7376Z" fill="#FFFF00"/>
<path d="M10.1326 36.6725L7.80032 35.6694C7.03232 35.3242 6.441 34.9999 6.02637 34.6967C5.61175 34.3934 5.40443 33.9478 5.40443 33.36C5.40443 32.6905 5.65179 32.1983 6.15123 31.8833C6.64831 31.5684 7.25141 31.4121 7.9558 31.4121C8.80626 31.4121 9.54835 31.6151 10.1797 32.021C10.7428 32.3826 11.254 32.8701 11.711 33.4906C11.8052 33.6166 11.9819 33.6446 12.1091 33.5489L14.5451 31.7107C14.6582 31.6267 14.6888 31.4704 14.6181 31.3491C14.0221 30.3507 13.1858 29.5133 12.1115 28.8414C10.9595 28.1229 9.56484 27.7637 7.92518 27.7637C6.97106 27.7637 6.0782 27.8966 5.24895 28.1602C4.41969 28.4238 3.70352 28.8041 3.10278 29.2986C2.50204 29.7955 2.02381 30.395 1.67043 31.0949C1.31941 31.7947 1.14272 32.5808 1.14272 33.4533C1.14272 34.1625 1.26758 34.8016 1.5173 35.3685C1.76466 35.9354 2.10862 36.4532 2.54445 36.9198C2.98028 37.3863 3.50563 37.8062 4.11579 38.1818C4.72831 38.5574 5.39501 38.9073 6.12296 39.2316L8.30211 40.2043C9.13137 40.5706 9.77451 40.9135 10.2315 41.2377C10.6862 41.562 10.9171 42.0495 10.9171 42.6981C10.9171 43.4072 10.6627 43.9554 10.1538 44.3403C9.64494 44.7252 8.93583 44.9189 8.02177 44.9189C7.39983 44.9189 6.83914 44.8372 6.34205 44.6762C5.84497 44.5129 5.39265 44.296 4.9898 44.0231C4.5846 43.7501 4.21709 43.4399 3.88492 43.0946C3.61871 42.8194 3.37134 42.5301 3.14518 42.2268C3.05331 42.1009 2.87662 42.0775 2.75176 42.1685L0.289909 43.9811C0.172118 44.0651 0.14149 44.226 0.216877 44.3473C0.973101 45.5837 1.99318 46.5868 3.27475 47.3519C4.63407 48.1637 6.2172 48.5696 8.02177 48.5696C9.03713 48.5696 9.98182 48.432 10.8535 48.1591C11.7251 47.8861 12.4814 47.4896 13.1245 46.9717C13.7677 46.4538 14.2742 45.8216 14.6487 45.0705C15.0233 44.3217 15.2094 43.4795 15.2094 42.5464C15.2094 41.1071 14.7665 39.9454 13.8854 39.0636C13.0044 38.1818 11.7534 37.384 10.1373 36.6748" fill="white"/>
<path d="M101.365 36.6725L99.0327 35.6694C98.2647 35.3242 97.6734 34.9999 97.2588 34.6967C96.8442 34.3934 96.6368 33.9478 96.6368 33.36C96.6368 32.6905 96.8842 32.1983 97.3837 31.8833C97.8807 31.5684 98.4838 31.4121 99.1882 31.4121C100.039 31.4121 100.781 31.6151 101.412 32.021C101.978 32.3826 102.486 32.8701 102.943 33.4906C103.038 33.6166 103.214 33.6446 103.342 33.5489L105.777 31.7107C105.891 31.6267 105.921 31.4704 105.851 31.3491C105.254 30.3507 104.418 29.5133 103.344 28.8414C102.192 28.1229 100.797 27.7637 99.1576 27.7637C98.2035 27.7637 97.3106 27.8966 96.4814 28.1602C95.6521 28.4238 94.9359 28.8041 94.3352 29.2986C93.7345 29.7955 93.2562 30.395 92.9028 31.0949C92.5518 31.7947 92.3751 32.5808 92.3751 33.4533C92.3751 34.1625 92.5 34.8016 92.7497 35.3685C92.9971 35.9354 93.341 36.4532 93.7769 36.9198C94.2127 37.3863 94.738 37.8062 95.3482 38.1818C95.9607 38.5574 96.6274 38.9073 97.3554 39.2316L99.5345 40.2043C100.364 40.5706 101.007 40.9135 101.464 41.2377C101.919 41.562 102.15 42.0495 102.15 42.6981C102.15 43.4072 101.895 43.9554 101.386 44.3403C100.877 44.7252 100.168 44.9189 99.2542 44.9189C98.6322 44.9189 98.0716 44.8372 97.5745 44.6762C97.0774 44.5129 96.6251 44.296 96.2222 44.0231C95.817 43.7501 95.4495 43.4399 95.1173 43.0946C94.8511 42.8194 94.6038 42.5301 94.3776 42.2268C94.2857 42.1009 94.109 42.0775 93.9842 42.1685L91.5223 43.9811C91.4045 44.0651 91.3739 44.226 91.4493 44.3473C92.2055 45.5837 93.2256 46.5868 94.5072 47.3519C95.8665 48.1637 97.4496 48.5696 99.2542 48.5696C100.27 48.5696 101.214 48.432 102.086 48.1591C102.958 47.8861 103.714 47.4896 104.357 46.9717C105 46.4538 105.507 45.8216 105.881 45.0705C106.256 44.3217 106.442 43.4795 106.442 42.5464C106.442 41.1071 105.999 39.9454 105.118 39.0636C104.237 38.1818 102.986 37.384 101.37 36.6748" fill="white"/>
<path d="M9.1218 0.00390625H0.280345C0.12486 0.00390625 0 0.129875 0 0.283838V19.7531C0 19.9071 0.12486 20.0331 0.280345 20.0331H3.7717C3.92718 20.0331 4.0544 19.9071 4.0544 19.7531V3.51006H8.56111C10.2455 3.51006 11.6685 4.87006 11.6567 6.53566C11.652 7.35446 11.3127 8.09861 10.7662 8.63748C10.2149 9.18102 9.45633 9.51693 8.6153 9.51693H5.06505C4.8436 9.51693 4.70932 9.75721 4.82476 9.9415L6.67409 12.8901C6.72592 12.9741 6.81544 13.0231 6.91203 13.0231H9.14536C9.84269 13.0231 10.5165 12.9158 11.1502 12.7175V12.7105C13.7934 11.866 15.7111 9.41196 15.7111 6.51466C15.7111 4.71843 14.9737 3.09016 13.7816 1.91444C12.5896 0.736396 10.9429 0.008571 9.1218 0.008571" fill="#FFFF00"/>
<path d="M32.9439 6.489C32.9321 2.89187 29.9237 0.00390625 26.2816 0.00390625H17.5132C17.3577 0.00390625 17.2305 0.127544 17.2305 0.281506V19.7508C17.2305 19.9048 17.3577 20.0284 17.5132 20.0284H21.0045C21.16 20.0284 21.2849 19.9048 21.2849 19.7508V3.50772H25.801C27.4713 3.50772 28.866 4.82107 28.8872 6.47034C28.9084 8.1476 27.5396 9.5146 25.8458 9.5146H22.2955C22.0741 9.5146 21.9398 9.75254 22.0552 9.93917L28.2958 19.8954C28.3477 19.9794 28.4395 20.0284 28.5361 20.0284H32.4374C32.6565 20.0284 32.7931 19.7904 32.6753 19.6038L28.3571 12.7128C31.0239 11.8754 32.9533 9.40263 32.9416 6.489" fill="#FFFF00"/>
<path d="M111.001 6.489C110.989 2.89187 107.98 0.00390625 104.338 0.00390625H95.5698C95.4143 0.00390625 95.2871 0.127544 95.2871 0.281506V19.7508C95.2871 19.9048 95.4143 20.0284 95.5698 20.0284H99.0612C99.2166 20.0284 99.3415 19.9048 99.3415 19.7508V3.50772H103.858C105.528 3.50772 106.923 4.82107 106.944 6.47034C106.965 8.1476 105.596 9.5146 103.902 9.5146H100.352C100.131 9.5146 99.9964 9.75254 100.112 9.93917L106.352 19.8954C106.404 19.9794 106.496 20.0284 106.593 20.0284H110.494C110.713 20.0284 110.85 19.7904 110.732 19.6038L106.414 12.7128C109.081 11.8754 111.01 9.40263 110.998 6.489" fill="#FFFF00"/>
<path d="M92.9776 16.5253H83.1232V11.5192H89.4297C89.5852 11.5192 89.7124 11.3956 89.7124 11.2416V8.29299C89.7124 8.13903 89.5876 8.01306 89.4297 8.01306H83.1232V3.50848H92.9776C93.1331 3.50848 93.2603 3.38251 93.2603 3.22855V0.279931C93.2603 0.125969 93.1355 0 92.9776 0H79.3491C79.1936 0 79.0664 0.125969 79.0664 0.279931V19.7492C79.0664 19.9032 79.1913 20.0268 79.3491 20.0268H92.9776C93.1331 20.0268 93.2603 19.9032 93.2603 19.7492V16.8006C93.2603 16.6466 93.1355 16.5207 92.9776 16.5207" fill="#FFFF00"/>
<path d="M76.758 0.00390625H73.2667C73.1112 0.00390625 72.9863 0.129875 72.9863 0.283838V19.7531C72.9863 19.9071 73.1112 20.0331 73.2667 20.0331H76.758C76.9135 20.0331 77.0407 19.9071 77.0407 19.7531V0.283838C77.0407 0.129875 76.9159 0.00390625 76.758 0.00390625Z" fill="#FFFF00"/>
<path d="M26.3542 28.043H17.5128C17.3573 28.043 17.2324 28.1689 17.2324 28.3229V47.7922C17.2324 47.9461 17.3573 48.0721 17.5128 48.0721H21.0041C21.1596 48.0721 21.2868 47.9461 21.2868 47.7922V31.5491H25.7935C27.478 31.5491 28.9009 32.9091 28.8891 34.5747C28.8844 35.3935 28.5452 36.1377 27.9986 36.6765C27.4473 37.2201 26.6888 37.556 25.8477 37.556H22.2975C22.076 37.556 21.9417 37.7963 22.0572 37.9806L23.9065 40.9292C23.9583 41.0132 24.0479 41.0621 24.1468 41.0621H26.3542C27.0515 41.0621 27.7253 40.9548 28.359 40.7566C31.0188 39.9191 32.9435 37.458 32.9435 34.5537C32.9435 32.7575 32.2061 31.1292 31.0141 29.9535C29.822 28.7755 28.1753 28.0476 26.3542 28.0476" fill="white"/>
<path d="M75.6021 34.5281C75.5903 30.9309 72.5819 28.043 68.9398 28.043H60.1714C60.0159 28.043 59.8887 28.1666 59.8887 28.3206V47.7899C59.8887 47.9438 60.0159 48.0675 60.1714 48.0675H63.6627C63.8182 48.0675 63.9431 47.9438 63.9431 47.7899V31.5468H68.4592C70.1295 31.5468 71.5242 32.8601 71.5454 34.5094C71.5666 36.1867 70.1978 37.5537 68.504 37.5537H64.9537C64.7323 37.5537 64.598 37.7916 64.7134 37.9782L70.954 47.9345C71.0059 48.0185 71.0977 48.0675 71.1943 48.0675H75.0956C75.3147 48.0675 75.4513 47.8295 75.3335 47.6429L71.0153 40.7519C73.6821 39.9144 75.6115 37.4417 75.5998 34.5281" fill="white"/>
<path d="M33.957 38.0537C33.957 44.2472 38.7017 49.3467 44.7962 49.9975C44.9635 50.0162 45.1072 49.8855 45.1072 49.7199V46.2418C45.1072 46.1041 45.0059 45.9875 44.8693 45.9665C40.9845 45.374 38.0114 42.0544 38.0114 38.0514C38.0114 34.0484 40.9845 30.7312 44.8693 30.1363C45.0059 30.1153 45.1072 29.9987 45.1072 29.861V26.3829C45.1072 26.2173 44.9635 26.0866 44.7962 26.1053C38.7017 26.7585 33.957 31.8556 33.957 38.0491" fill="#FFFF00"/>
<path d="M47.1348 26.386V29.8642C47.1348 30.0018 47.2361 30.1185 47.3727 30.1395C51.2575 30.732 54.2305 34.0515 54.2305 38.0545C54.2305 42.0576 51.2575 45.3748 47.3727 45.9696C47.2361 45.9906 47.1348 46.1073 47.1348 46.2426V49.7207C47.1348 49.8863 47.2785 50.017 47.4457 49.9983C53.5426 49.3475 58.2849 44.248 58.2849 38.0545C58.2849 31.8611 53.5426 26.7616 47.4457 26.1108C47.2785 26.0944 47.1348 26.2228 47.1348 26.3884" fill="#FFFF00"/>
</svg>
