<svg xmlns="http://www.w3.org/2000/svg" width="413.967" height="205.395" viewBox="0 0 413.967 205.395">
  <g>
    <path d="M395.489,100.112A34.582,34.582,0,0,0,370.563,89.73h-6.248A47.124,47.124,0,0,0,347.73,92.7a38.03,38.03,0,0,0-4.188-5.024,35,35,0,0,0-33.576-9.273,53.455,53.455,0,0,0-15.292-31.1l-.07-.044a54.159,54.159,0,0,0-5.156-4.619,32.376,32.376,0,0,0-.88-5.429,37.3,37.3,0,0,0-9.379-16.726,37.037,37.037,0,0,0-52.88.044h.044a7.774,7.774,0,0,0-.625.555l-1.6,1.566-4.848,4.733L212.2,34.3l-.053.07-.238.247a29.536,29.536,0,0,0-4.3,6.027,44.808,44.808,0,0,0-31.7-12.591h-1.75a46.489,46.489,0,0,0-11.183-11.2,46.047,46.047,0,0,0-59.717,4.963,44.217,44.217,0,0,0-6.379,7.971,46.339,46.339,0,0,0-12.424-1.733H74.382c-18.107,0-33.848,6.546-46.773,19.489A64.218,64.218,0,0,0,8.12,94.472v19.779a45.134,45.134,0,0,0,13.515,32.978,45.084,45.084,0,0,0,33,13.514,44.86,44.86,0,0,0,32.819-13.514,45.416,45.416,0,0,0,11.5-18.829,66.854,66.854,0,0,0,10.329,13.092c13.022,12.776,28.745,19.251,46.7,19.251H166a44.975,44.975,0,0,0,32.845-13.664,50.267,50.267,0,0,0,3.537-4.039A61.575,61.575,0,0,0,246.6,160.8l18.926-.035a43.259,43.259,0,0,0,5.675-.422c-.052.642-.07,1.267-.07,1.838A35.179,35.179,0,0,0,306.2,197.258a46.165,46.165,0,0,0,33.637-13.893l.052-.053.018-.018s.185-.22.282-.308a34.971,34.971,0,0,0,11.8,2.059,34.546,34.546,0,0,0,24.926-10.285,35.026,35.026,0,0,0,9.652-18.31,35.052,35.052,0,0,0,19.287-31.429,34.57,34.57,0,0,0-10.365-24.909" fill="#7ac143"/>
    <path d="M389.112,106.472a25.4,25.4,0,0,0-18.548-7.742h-6.247a37.2,37.2,0,0,0-20.615,6.009,26.27,26.27,0,0,0-42.718-11.614,44.35,44.35,0,0,0,.555-6.977v-.106a44.971,44.971,0,0,0-13.356-32.476h-.009a45.26,45.26,0,0,0-7.549-6.308c.008-.141.061-1.179.061-1.179a26.554,26.554,0,0,0-.827-6.617,28.422,28.422,0,0,0-7.118-12.688,26.832,26.832,0,0,0-20.219-8.358h-.088a27.28,27.28,0,0,0-19.806,8.508l-13.99,13.682-.149.132a19.528,19.528,0,0,0-5.068,10.268,60.252,60.252,0,0,0-5.227,4.575,39.007,39.007,0,0,0-5.842-7.488A36.147,36.147,0,0,0,175.9,37.06h-6.669A36.931,36.931,0,0,0,157.751,24.2,37.054,37.054,0,0,0,109.6,28.173,36.556,36.556,0,0,0,101.2,41.011,36.265,36.265,0,0,0,84.45,37.06H74.385A55.4,55.4,0,0,0,33.972,53.9a55.539,55.539,0,0,0-16.849,40.57V114.25a37.165,37.165,0,0,0,37.509,37.491,36.071,36.071,0,0,0,26.44-10.875A36.463,36.463,0,0,0,92.123,114.25v-2.982a35.855,35.855,0,0,0,8.3-2.71,54.931,54.931,0,0,0,15.16,26.536c11.289,11.043,24.874,16.647,40.4,16.647h10.022A36.2,36.2,0,0,0,192.48,140.7a37.329,37.329,0,0,0,8.561-12.951,60.642,60.642,0,0,0,6.4,7.672,53.118,53.118,0,0,0,39.136,16.392l18.917-.053a34.969,34.969,0,0,0,20.721-6.493c-.414.5-.827.985-1.214,1.513a25.874,25.874,0,0,0-4.866,15.4,26.2,26.2,0,0,0,26.07,26.079,37.408,37.408,0,0,0,27.329-11.324,39.007,39.007,0,0,0,4.259-4.98,25.678,25.678,0,0,0,14.2,4.074,26.186,26.186,0,0,0,26.247-25.851,26.281,26.281,0,0,0,18.617-25.155,25.4,25.4,0,0,0-7.742-18.548" fill="#c1d52f"/>
    <path d="M236.616,55.315l.2.22s15.732-.756,15.838-.774a8.007,8.007,0,0,0,7.655-4.549l.026-.044.018-.035a8.05,8.05,0,0,0-1.531-9.74,8.356,8.356,0,0,0-5.711-2.6,7.95,7.95,0,0,0-5.913,2.1l-.052.053L235.375,51.294l-.088.115a2.7,2.7,0,0,0-.5,1.513,2.4,2.4,0,0,0,.756,1.733,2.1,2.1,0,0,0,1.074.66" fill="#fff"/>
    <path d="M84.447,62.905H74.381a31.77,31.77,0,0,0-31.552,31.57v19.77a11.944,11.944,0,0,0,11.8,11.8,11.1,11.1,0,0,0,8.236-3.519,11.543,11.543,0,0,0,3.405-8.28V94.475a7.92,7.92,0,0,1,2.384-5.887A7.827,7.827,0,0,1,74.381,86.2H84.447a11.628,11.628,0,0,0,8.209-19.876,11.278,11.278,0,0,0-8.209-3.414" fill="#fff"/>
    <path d="M175.9,62.905H147.85V54.626a11.7,11.7,0,0,0-11.641-11.65,11.621,11.621,0,0,0-8.305,3.405,11.235,11.235,0,0,0-3.5,8.245V93.032h-.027s.027,1.742.027,1.777v.105A31.455,31.455,0,0,0,133.86,116.9a30.283,30.283,0,0,0,22.129,9.142H166a11.117,11.117,0,0,0,8.261-3.519,11.54,11.54,0,0,0,3.406-8.28A11.687,11.687,0,0,0,166,102.6H155.989c-5.174-.307-7.682-2.657-8.139-7.927V86.2H175.9a11.64,11.64,0,0,0,8.227-19.876,11.3,11.3,0,0,0-8.227-3.414" fill="#fff"/>
    <path d="M276.784,116.1v-1.6a1.8,1.8,0,0,1-.149-.3c0-.018-.018-1.531-.018-1.531a2.013,2.013,0,0,1-.149-.15v-1.082a2.665,2.665,0,0,1-.309-.079v-.37s-.167-.158-.3-.308v-.3l-.51-.528a11.72,11.72,0,0,0-4.778-4.822c-.026,0-.554-.563-.554-.563s-.167.018-.317.018c-.132-.15-.29-.3-.29-.3h-.757a1.188,1.188,0,0,0-.483-.106,1.931,1.931,0,0,0-.608-.167c4.566-2.824,7.47-7.3,8.632-13.392.1-.1.219-.22.219-.22s-.017-1.2-.017-1.231a2.372,2.372,0,0,0,.141-.836v-.475l.053-.484L276.7,86.1A20.457,20.457,0,0,0,270.608,71.3a20.079,20.079,0,0,0-14.773-6.141l-9.459.026a28.98,28.98,0,0,0-21.337,9.124,30.825,30.825,0,0,0,.1,43.334,29.008,29.008,0,0,0,21.372,9l18.917-.036a10.318,10.318,0,0,0,8.9-4.61h.959v-.3h.15v-.458h.282v-.756h.316v-1.2a.072.072,0,0,0,.018-.026h.422v-1.655a.975.975,0,0,1,.159-.149v-1.214l.149-.15" fill="#fff"/>
    <path d="M383.685,111.891a17.878,17.878,0,0,0-13.119-5.472h-6.247a29.784,29.784,0,0,0-21.82,9.106,30.765,30.765,0,0,0-6.511,9.362,20.973,20.973,0,0,0-1.3-2.815,19.014,19.014,0,0,0,2.516-9.494,18.579,18.579,0,1,0-37.157,0,17.542,17.542,0,0,0,2.64,9.494,17.93,17.93,0,0,0-2.64,9.493v13.11a17.92,17.92,0,0,0-8.807,6.59,18.175,18.175,0,0,0-3.414,10.911A18.52,18.52,0,0,0,306.2,180.582a29.81,29.81,0,0,0,21.917-9.106,29.447,29.447,0,0,0,7.725-12.318,18.732,18.732,0,0,0,29.264,3.81,18,18,0,0,0,5.464-13.216v-6.159a18.547,18.547,0,0,0,13.119-31.7" fill="#242c69"/>
    <path d="M312.468,149.755q0,4.817-4.5,5.974a7.776,7.776,0,0,1-1.777.3,6.017,6.017,0,0,0-4.233,1.751,5.66,5.66,0,0,0-1.918,4.391,6.158,6.158,0,0,0,6.151,6.176,18,18,0,0,0,12.925-5.279,17.538,17.538,0,0,0,5.657-12.828V131.568a6.189,6.189,0,0,0-6.15-6.265,6.072,6.072,0,0,0-4.3,1.769,5.66,5.66,0,0,0-1.857,4.293Z" fill="#e7427a"/>
    <path d="M358.148,137.437a5.987,5.987,0,0,1,1.821-4.444,5.807,5.807,0,0,1,4.347-1.812h6.247a6.168,6.168,0,0,0,0-12.336h-6.247a18.734,18.734,0,0,0-18.592,18.592v12.318a6.386,6.386,0,0,0,6.265,6.273,5.839,5.839,0,0,0,4.355-1.865,6.071,6.071,0,0,0,1.8-4.408Z" fill="#9c98b6"/>
    <polygon points="326.361 122.628 319.048 118.686 311.693 122.496 313.18 114.33 307.303 108.479 315.52 107.362 319.242 99.962 322.841 107.432 331.059 108.708 325.041 114.436 326.361 122.628" fill="#fff"/>
    <path d="M290.734,101.609a39.6,39.6,0,0,0,3.114-15.548,37.422,37.422,0,0,0-11.156-27.144,37.99,37.99,0,0,0-10.33-7.654,20.273,20.273,0,0,0,.062-9.846,20.673,20.673,0,0,0-5.192-9.274A19.333,19.333,0,0,0,252.556,26.1a19.769,19.769,0,0,0-14.544,6.317L224.216,45.9l-.088.071a11.86,11.86,0,0,0-3.282,7.69,9.8,9.8,0,0,0,0,1.434A52.2,52.2,0,0,0,205.537,71.1a28.615,28.615,0,0,0-8.614-17.571A28.644,28.644,0,0,0,175.9,44.752H164.289a28.922,28.922,0,0,0-10.972-14.289A29.411,29.411,0,0,0,115.034,33.6,28.687,28.687,0,0,0,106.4,54.527c-.308-.334-.607-.677-.932-.994a28.714,28.714,0,0,0-21.02-8.781H74.384A47.721,47.721,0,0,0,39.409,59.34,47.857,47.857,0,0,0,24.821,94.473v19.779a29.491,29.491,0,0,0,29.81,29.819A29.787,29.787,0,0,0,84.45,114.252v-9.881a28.646,28.646,0,0,0,21.02-8.631c.325-.326.624-.66.932-.977V94.8a47.649,47.649,0,0,0,14.588,34.834q14.769,14.439,34.993,14.439H166a30.029,30.029,0,0,0,29.819-29.819,28.539,28.539,0,0,0-3.916-14.6,31.361,31.361,0,0,0,7.022-6.238c-.045.853-.071,1.751-.071,2.622a46.865,46.865,0,0,0,14.043,33.98,45.481,45.481,0,0,0,33.655,14.1l18.917-.044a27.262,27.262,0,0,0,20.228-8.438,28.283,28.283,0,0,0,8.226-20.615,30.029,30.029,0,0,0-3.193-13.409M91.418,81.53a9.51,9.51,0,0,1-6.968,2.912H74.384a9.5,9.5,0,0,0-6.978,2.9,9.725,9.725,0,0,0-2.894,7.136v19.779a9.8,9.8,0,0,1-2.912,7.065,9.39,9.39,0,0,1-6.969,2.974,10.154,10.154,0,0,1-10.039-10.039V94.473a29.966,29.966,0,0,1,29.792-29.8H84.45A9.873,9.873,0,0,1,91.418,81.53m91.462,0a9.5,9.5,0,0,1-6.978,2.912H146.093V94.8c.528,6.177,3.836,9.248,9.89,9.248l10.021.325a9.882,9.882,0,0,1,9.9,9.881,9.78,9.78,0,0,1-2.894,7.065,9.452,9.452,0,0,1-7,2.974H155.983a28.424,28.424,0,0,1-20.871-8.631A29.6,29.6,0,0,1,126.155,94.8V54.624a9.435,9.435,0,0,1,3-6.986,9.763,9.763,0,0,1,7.057-2.886,9.869,9.869,0,0,1,9.881,9.872V64.672H175.9A9.873,9.873,0,0,1,182.88,81.53m53.839-29.08c1.935-1.882,3.871-3.765,5.825-5.613,1.953-1.874,3.9-3.739,5.851-5.64a6.169,6.169,0,0,1,4.645-1.636,6.635,6.635,0,0,1,4.532,2.058,6.344,6.344,0,0,1,1.188,7.761,6.309,6.309,0,0,1-6.142,3.634l-15.09.739a.419.419,0,0,0-.29-.088.668.668,0,0,1-.458-.238.678.678,0,0,1-.061-.977M265.931,105.5c4.935,0,8.948,4.321,8.948,9.679,0,5.332-4.013,9.67-8.948,9.67l-19.419.052a27.21,27.21,0,0,1-20.132-8.5,29.019,29.019,0,0,1-.079-40.852,27.085,27.085,0,0,1,20.079-8.605l9.458-.018a18.2,18.2,0,0,1,13.506,5.6,18.524,18.524,0,0,1,5.6,13.568,20.063,20.063,0,0,1-.44,3.95q-2.362,12.671-15.274,15.151s-.669.115-.907.15l-1.038.167s8.148-.018,8.65-.018" fill="#242c69"/>
    <path d="M246.426,86.162a9.083,9.083,0,0,1,6.678,2.806,9.5,9.5,0,0,1,2.8,6.934,9.274,9.274,0,0,1-2.754,6.783,9.059,9.059,0,0,1-6.67,2.842,9.2,9.2,0,0,1-6.836-2.806,9.3,9.3,0,0,1-2.8-6.766A9.531,9.531,0,0,1,239.6,89a9.222,9.222,0,0,1,6.828-2.842" fill="#242c69"/>
    <path d="M401.245,94.357a42.645,42.645,0,0,0-30.682-12.741h-6.246a55.6,55.6,0,0,0-13.691,1.716c-.467-.484-.906-.977-1.338-1.39a42.55,42.55,0,0,0-30.663-12.758c-.712,0-1.434.017-2.182.053a61.605,61.605,0,0,0-15.969-27.6l-.044-.053h-.018c-.959-.994-2.059-2.015-3.282-3.1-.2-1.144-.413-2.252-.695-3.308a.7.7,0,0,0-.009-.07A45.449,45.449,0,0,0,285,14.808,44.011,44.011,0,0,0,252.354,1.293h-.079a44.256,44.256,0,0,0-31.605,13.4l-.018-.018L206.372,28.64l-.369.369a52.2,52.2,0,0,0-27.742-8.983A54.09,54.09,0,0,0,167.7,10.268V10.25l-.053-.035a54.2,54.2,0,0,0-70.178,5.843,61.765,61.765,0,0,0-4.1,4.628,55.657,55.657,0,0,0-8.921-.757H74.384c-20.352,0-38.019,7.347-52.52,21.856S0,74.014,0,94.471V114.25c0,15.143,5.349,28.182,15.9,38.714,10.55,10.559,23.572,15.908,38.732,15.908A52.777,52.777,0,0,0,93.2,152.964a57.468,57.468,0,0,0,7.285-8.913c.986,1.091,2.006,2.174,3.045,3.212,14.658,14.342,32.291,21.609,52.449,21.609H166a52.628,52.628,0,0,0,37.016-14.553,69.355,69.355,0,0,0,43.615,14.624s12.062-.036,16.911-.053a42.823,42.823,0,0,0,12.1,23.756c1.346,1.346,3.458,4.021,5.956,5.763,20.739,14.316,52.889,3.951,61.16-7.206,14.931,3.951,33.6-3.889,39.893-10.69,5.684-6.142,9.019-11.693,11-18.759a43.345,43.345,0,0,0,7.594-67.4" fill="#fff"/>
    <path d="M395.489,100.112A34.582,34.582,0,0,0,370.563,89.73h-6.248A47.124,47.124,0,0,0,347.73,92.7a38.03,38.03,0,0,0-4.188-5.024,35,35,0,0,0-33.576-9.273,53.455,53.455,0,0,0-15.292-31.1l-.07-.044a54.159,54.159,0,0,0-5.156-4.619,32.376,32.376,0,0,0-.88-5.429,37.3,37.3,0,0,0-9.379-16.726,37.037,37.037,0,0,0-52.88.044h.044a7.774,7.774,0,0,0-.625.555l-1.6,1.566-4.848,4.733L212.2,34.3l-.053.07-.238.247a29.536,29.536,0,0,0-4.3,6.027,44.808,44.808,0,0,0-31.7-12.591h-1.75a46.489,46.489,0,0,0-11.183-11.2,46.047,46.047,0,0,0-59.717,4.963,44.217,44.217,0,0,0-6.379,7.971,46.339,46.339,0,0,0-12.424-1.733H74.382c-18.107,0-33.848,6.546-46.773,19.489A64.218,64.218,0,0,0,8.12,94.472v19.779a45.134,45.134,0,0,0,13.515,32.978,45.084,45.084,0,0,0,33,13.514,44.86,44.86,0,0,0,32.819-13.514,45.416,45.416,0,0,0,11.5-18.829,66.854,66.854,0,0,0,10.329,13.092c13.022,12.776,28.745,19.251,46.7,19.251H166a44.975,44.975,0,0,0,32.845-13.664,50.267,50.267,0,0,0,3.537-4.039A61.575,61.575,0,0,0,246.6,160.8l18.926-.035a43.259,43.259,0,0,0,5.675-.422c-.052.642-.07,1.267-.07,1.838A35.179,35.179,0,0,0,306.2,197.258a46.165,46.165,0,0,0,33.637-13.893l.052-.053.018-.018s.185-.22.282-.308a34.971,34.971,0,0,0,11.8,2.059,34.546,34.546,0,0,0,24.926-10.285,35.026,35.026,0,0,0,9.652-18.31,35.052,35.052,0,0,0,19.287-31.429,34.57,34.57,0,0,0-10.365-24.909" fill="#7ac143"/>
    <path d="M389.112,106.472a25.4,25.4,0,0,0-18.548-7.742h-6.247a37.2,37.2,0,0,0-20.615,6.009,26.27,26.27,0,0,0-42.718-11.614,44.35,44.35,0,0,0,.555-6.977v-.106a44.971,44.971,0,0,0-13.356-32.476h-.009a45.26,45.26,0,0,0-7.549-6.308c.008-.141.061-1.179.061-1.179a26.554,26.554,0,0,0-.827-6.617,28.422,28.422,0,0,0-7.118-12.688,26.832,26.832,0,0,0-20.219-8.358h-.088a27.28,27.28,0,0,0-19.806,8.508l-13.99,13.682-.149.132a19.528,19.528,0,0,0-5.068,10.268,60.252,60.252,0,0,0-5.227,4.575,39.007,39.007,0,0,0-5.842-7.488A36.147,36.147,0,0,0,175.9,37.06h-6.669A36.931,36.931,0,0,0,157.751,24.2,37.054,37.054,0,0,0,109.6,28.173,36.556,36.556,0,0,0,101.2,41.011,36.265,36.265,0,0,0,84.45,37.06H74.385A55.4,55.4,0,0,0,33.972,53.9a55.539,55.539,0,0,0-16.849,40.57V114.25a37.165,37.165,0,0,0,37.509,37.491,36.071,36.071,0,0,0,26.44-10.875A36.463,36.463,0,0,0,92.123,114.25v-2.982a35.855,35.855,0,0,0,8.3-2.71,54.931,54.931,0,0,0,15.16,26.536c11.289,11.043,24.874,16.647,40.4,16.647h10.022A36.2,36.2,0,0,0,192.48,140.7a37.329,37.329,0,0,0,8.561-12.951,60.642,60.642,0,0,0,6.4,7.672,53.118,53.118,0,0,0,39.136,16.392l18.917-.053a34.969,34.969,0,0,0,20.721-6.493c-.414.5-.827.985-1.214,1.513a25.874,25.874,0,0,0-4.866,15.4,26.2,26.2,0,0,0,26.07,26.079,37.408,37.408,0,0,0,27.329-11.324,39.007,39.007,0,0,0,4.259-4.98,25.678,25.678,0,0,0,14.2,4.074,26.186,26.186,0,0,0,26.247-25.851,26.281,26.281,0,0,0,18.617-25.155,25.4,25.4,0,0,0-7.742-18.548" fill="#c1d52f"/>
    <path d="M236.616,55.315l.2.22s15.732-.756,15.838-.774a8.007,8.007,0,0,0,7.655-4.549l.026-.044.018-.035a8.05,8.05,0,0,0-1.531-9.74,8.356,8.356,0,0,0-5.711-2.6,7.95,7.95,0,0,0-5.913,2.1l-.052.053L235.375,51.294l-.088.115a2.7,2.7,0,0,0-.5,1.513,2.4,2.4,0,0,0,.756,1.733,2.1,2.1,0,0,0,1.074.66" fill="#c7c8ca"/>
    <path d="M84.447,62.905H74.381a31.77,31.77,0,0,0-31.552,31.57v19.77a11.944,11.944,0,0,0,11.8,11.8,11.1,11.1,0,0,0,8.236-3.519,11.543,11.543,0,0,0,3.405-8.28V94.475a7.92,7.92,0,0,1,2.384-5.887A7.827,7.827,0,0,1,74.381,86.2H84.447a11.628,11.628,0,0,0,8.209-19.876,11.278,11.278,0,0,0-8.209-3.414" fill="#fff"/>
    <path d="M175.9,62.905H147.85V54.626a11.7,11.7,0,0,0-11.641-11.65,11.621,11.621,0,0,0-8.305,3.405,11.235,11.235,0,0,0-3.5,8.245V93.032h-.027s.027,1.742.027,1.777v.105A31.455,31.455,0,0,0,133.86,116.9a30.283,30.283,0,0,0,22.129,9.142H166a11.117,11.117,0,0,0,8.261-3.519,11.54,11.54,0,0,0,3.406-8.28A11.687,11.687,0,0,0,166,102.6H155.989c-5.174-.307-7.682-2.657-8.139-7.927V86.2H175.9a11.64,11.64,0,0,0,8.227-19.876,11.3,11.3,0,0,0-8.227-3.414" fill="#fff"/>
    <path d="M276.784,116.1v-1.6a1.8,1.8,0,0,1-.149-.3c0-.018-.018-1.531-.018-1.531a2.013,2.013,0,0,1-.149-.15v-1.082a2.665,2.665,0,0,1-.309-.079v-.37s-.167-.158-.3-.308v-.3l-.51-.528a11.72,11.72,0,0,0-4.778-4.822c-.026,0-.554-.563-.554-.563s-.167.018-.317.018c-.132-.15-.29-.3-.29-.3h-.757a1.188,1.188,0,0,0-.483-.106,1.931,1.931,0,0,0-.608-.167c4.566-2.824,7.47-7.3,8.632-13.392.1-.1.219-.22.219-.22s-.017-1.2-.017-1.231a2.372,2.372,0,0,0,.141-.836v-.475l.053-.484L276.7,86.1A20.457,20.457,0,0,0,270.608,71.3a20.079,20.079,0,0,0-14.773-6.141l-9.459.026a28.98,28.98,0,0,0-21.337,9.124,30.825,30.825,0,0,0,.1,43.334,29.008,29.008,0,0,0,21.372,9l18.917-.036a10.318,10.318,0,0,0,8.9-4.61h.959v-.3h.15v-.458h.282v-.756h.316v-1.2a.072.072,0,0,0,.018-.026h.422v-1.655a.975.975,0,0,1,.159-.149v-1.214l.149-.15" fill="#fff"/>
    <path d="M383.685,111.891a17.878,17.878,0,0,0-13.119-5.472h-6.247a29.784,29.784,0,0,0-21.82,9.106,30.765,30.765,0,0,0-6.511,9.362,20.973,20.973,0,0,0-1.3-2.815,19.014,19.014,0,0,0,2.516-9.494,18.579,18.579,0,1,0-37.157,0,17.542,17.542,0,0,0,2.64,9.494,17.93,17.93,0,0,0-2.64,9.493v13.11a17.92,17.92,0,0,0-8.807,6.59,18.175,18.175,0,0,0-3.414,10.911A18.52,18.52,0,0,0,306.2,180.582a29.81,29.81,0,0,0,21.917-9.106,29.447,29.447,0,0,0,7.725-12.318,18.732,18.732,0,0,0,29.264,3.81,18,18,0,0,0,5.464-13.216v-6.159a18.547,18.547,0,0,0,13.119-31.7" fill="#242c69"/>
    <path d="M312.468,149.755q0,4.817-4.5,5.974a7.776,7.776,0,0,1-1.777.3,6.017,6.017,0,0,0-4.233,1.751,5.66,5.66,0,0,0-1.918,4.391,6.158,6.158,0,0,0,6.151,6.176,18,18,0,0,0,12.925-5.279,17.538,17.538,0,0,0,5.657-12.828V131.568a6.189,6.189,0,0,0-6.15-6.265,6.072,6.072,0,0,0-4.3,1.769,5.66,5.66,0,0,0-1.857,4.293Z" fill="#e7427a"/>
    <path d="M358.148,137.437a5.987,5.987,0,0,1,1.821-4.444,5.807,5.807,0,0,1,4.347-1.812h6.247a6.168,6.168,0,0,0,0-12.336h-6.247a18.734,18.734,0,0,0-18.592,18.592v12.318a6.386,6.386,0,0,0,6.265,6.273,5.839,5.839,0,0,0,4.355-1.865,6.071,6.071,0,0,0,1.8-4.408Z" fill="#6ab2e2"/>
    <polygon points="326.361 122.628 319.048 118.686 311.693 122.496 313.18 114.33 307.303 108.479 315.52 107.362 319.242 99.962 322.841 107.432 331.059 108.708 325.041 114.436 326.361 122.628" fill="#ffda23"/>
    <path d="M290.734,101.609a39.6,39.6,0,0,0,3.114-15.548,37.422,37.422,0,0,0-11.156-27.144,37.99,37.99,0,0,0-10.33-7.654,20.273,20.273,0,0,0,.062-9.846,20.673,20.673,0,0,0-5.192-9.274A19.333,19.333,0,0,0,252.556,26.1a19.769,19.769,0,0,0-14.544,6.317L224.216,45.9l-.088.071a11.86,11.86,0,0,0-3.282,7.69,9.8,9.8,0,0,0,0,1.434A52.2,52.2,0,0,0,205.537,71.1a28.615,28.615,0,0,0-8.614-17.571A28.644,28.644,0,0,0,175.9,44.752H164.289a28.922,28.922,0,0,0-10.972-14.289A29.411,29.411,0,0,0,115.034,33.6,28.687,28.687,0,0,0,106.4,54.527c-.308-.334-.607-.677-.932-.994a28.714,28.714,0,0,0-21.02-8.781H74.384A47.721,47.721,0,0,0,39.409,59.34,47.857,47.857,0,0,0,24.821,94.473v19.779a29.491,29.491,0,0,0,29.81,29.819A29.787,29.787,0,0,0,84.45,114.252v-9.881a28.646,28.646,0,0,0,21.02-8.631c.325-.326.624-.66.932-.977V94.8a47.649,47.649,0,0,0,14.588,34.834q14.769,14.439,34.993,14.439H166a30.029,30.029,0,0,0,29.819-29.819,28.539,28.539,0,0,0-3.916-14.6,31.361,31.361,0,0,0,7.022-6.238c-.045.853-.071,1.751-.071,2.622a46.865,46.865,0,0,0,14.043,33.98,45.481,45.481,0,0,0,33.655,14.1l18.917-.044a27.262,27.262,0,0,0,20.228-8.438,28.283,28.283,0,0,0,8.226-20.615,30.029,30.029,0,0,0-3.193-13.409M91.418,81.53a9.51,9.51,0,0,1-6.968,2.912H74.384a9.5,9.5,0,0,0-6.978,2.9,9.725,9.725,0,0,0-2.894,7.136v19.779a9.8,9.8,0,0,1-2.912,7.065,9.39,9.39,0,0,1-6.969,2.974,10.154,10.154,0,0,1-10.039-10.039V94.473a29.966,29.966,0,0,1,29.792-29.8H84.45A9.873,9.873,0,0,1,91.418,81.53m91.462,0a9.5,9.5,0,0,1-6.978,2.912H146.093V94.8c.528,6.177,3.836,9.248,9.89,9.248l10.021.325a9.882,9.882,0,0,1,9.9,9.881,9.78,9.78,0,0,1-2.894,7.065,9.452,9.452,0,0,1-7,2.974H155.983a28.424,28.424,0,0,1-20.871-8.631A29.6,29.6,0,0,1,126.155,94.8V54.624a9.435,9.435,0,0,1,3-6.986,9.763,9.763,0,0,1,7.057-2.886,9.869,9.869,0,0,1,9.881,9.872V64.672H175.9A9.873,9.873,0,0,1,182.88,81.53m53.839-29.08c1.935-1.882,3.871-3.765,5.825-5.613,1.953-1.874,3.9-3.739,5.851-5.64a6.169,6.169,0,0,1,4.645-1.636,6.635,6.635,0,0,1,4.532,2.058,6.344,6.344,0,0,1,1.188,7.761,6.309,6.309,0,0,1-6.142,3.634l-15.09.739a.419.419,0,0,0-.29-.088.668.668,0,0,1-.458-.238.678.678,0,0,1-.061-.977M265.931,105.5c4.935,0,8.948,4.321,8.948,9.679,0,5.332-4.013,9.67-8.948,9.67l-19.419.052a27.21,27.21,0,0,1-20.132-8.5,29.019,29.019,0,0,1-.079-40.852,27.085,27.085,0,0,1,20.079-8.605l9.458-.018a18.2,18.2,0,0,1,13.506,5.6,18.524,18.524,0,0,1,5.6,13.568,20.063,20.063,0,0,1-.44,3.95q-2.362,12.671-15.274,15.151s-.669.115-.907.15l-1.038.167s8.148-.018,8.65-.018" fill="#242c69"/>
    <path d="M246.426,86.162a9.083,9.083,0,0,1,6.678,2.806,9.5,9.5,0,0,1,2.8,6.934,9.274,9.274,0,0,1-2.754,6.783,9.059,9.059,0,0,1-6.67,2.842,9.2,9.2,0,0,1-6.836-2.806,9.3,9.3,0,0,1-2.8-6.766A9.531,9.531,0,0,1,239.6,89a9.222,9.222,0,0,1,6.828-2.842" fill="#242c69"/>
  </g>
</svg>
