<svg id="Layer_1" data-name="Layer 1" xmlns="http://www.w3.org/2000/svg" width="100" height="100" viewBox="0 0 100 100"><script xmlns=""/>
  <defs>
    <style>
      .cls-1 {
        fill: #0090d4;
      }

      .cls-2 {
        fill: #fff;
      }
    </style>
  </defs>
  <title>TV</title>
  
  <rect class="cls-1" width="100" height="100" rx="0" ry="0"/><path class="cls-2" d="M66.689,41.524a10.352,10.352,0,0,0,3.908-.861l.073,2.911a10.547,10.547,0,0,1-3.98.669c-5.3,0-9.935-3.779-9.935-9.375,0-5.177,4.635-9.239,9.935-9.239a11.483,11.483,0,0,1,3.745.555L70.4,29a12.883,12.883,0,0,0-3.707-.761,6.4,6.4,0,0,0-6.341,5.349H66.27c.794,0,2.219-.105,2.219-.105v2.675s-1.454-.14-2.115-.14H60.348a6.374,6.374,0,0,0,6.341,5.508m-14.4,2.649a17.376,17.376,0,0,1-.236-2.532V28.8H53.12c1.213,0,3.005,0,4.4.129l.069-2.98H43.526l.114,2.98c1.345-.129,3.172-.129,4.354-.129h.866V41.641a20.266,20.266,0,0,1-.2,2.532Zm18.2-21.323A14.269,14.269,0,0,0,59,24.693l-.034,2.191a11.531,11.531,0,0,1,7.966-2.922,14,14,0,0,1,3.522.495ZM42.364,41.676a36.427,36.427,0,0,0,3.172,2.5H40.7a34.62,34.62,0,0,1-2.947-2.7l-1.74-1.811L32.563,36.05v5.385a16.965,16.965,0,0,0,.236,2.737H29.135a15.919,15.919,0,0,0,.236-2.5V28.438c0-.9-.163-2.7-.163-2.7s2.489-.174,6.119-.174c.236,0,.464.005.681.014,5.246.219,7,2.931,7,5.989,0,2.88-2.528,5.1-5.534,5.387l4.885,4.722M35.188,34.8a6.088,6.088,0,0,0,.821-.051c2.028-.288,3.444-1.649,3.444-3.449,0-1.6-1-2.935-3.444-3.139-.2-.007-.422-.024-.647-.024-1.523,0-2.8.036-2.8.036V34.8h2.625m5.533,16.588c0,.631-.011,1.845-.011,2.945,0,.37.011,17.45.011,19.812a.789.789,0,0,0,.756.759c.3,0,1.539.005,2.124.005a.8.8,0,0,0,.774-.758l0-8.985,0-6.634c0-.025,0-.417,0-.663a.217.217,0,0,1,.209-.207.213.213,0,0,1,.165.065c.507.419,12.674,15.632,13.651,16.839a.786.786,0,0,0,.642.343c.181,0,.58,0,1.066,0,.373,0,.62,0,1.035,0a.779.779,0,0,0,.517-.192.807.807,0,0,0,.27-.52c-.013-.662.011-3.076,0-7.68-.024-7.522,0-14.716-.009-15.153a.8.8,0,0,0-.2-.5.767.767,0,0,0-.555-.259c-.3,0-1.675-.015-2.126,0a.706.706,0,0,0-.506.189.747.747,0,0,0-.27.576c0,.591,0,5.534,0,6.924v9.36a.2.2,0,0,1-.118.163.218.218,0,0,1-.288-.092c-.357-.556-13-16.085-13.654-16.848a.783.783,0,0,0-.616-.3c-.254,0-1.849,0-2.077,0a.826.826,0,0,0-.558.225.772.772,0,0,0-.232.571m43.888-.792c-.232.007-.825.007-2,0-2.724-.014-7.488,0-8.887.013-3.009.022-3.1.009-4.238.009a2.1,2.1,0,0,0-1.916.948,2.174,2.174,0,0,0-.433,1.524c0,1.818-.007,18.075-.007,19.623A2.23,2.23,0,0,0,69.337,74.9c1.127,0,5.655-.022,8.715-.016,2.445.005,5.11-.005,6.146-.005a.773.773,0,0,0,.611-.3.854.854,0,0,0,.17-.52c0-.241.009-.475.009-.821,0-.37,0-.642,0-.868a.8.8,0,0,0-.263-.638.712.712,0,0,0-.513-.2c-1.254,0-2.6-.007-3.623-.018-1.077-.009-5.168.013-7.192.013-1.619,0-1.91.062-2.286-.2-.4-.288-.259-1.02-.259-2.431,0-1.813,0-3.583-.007-4.985,2.329,0,7.259,0,9.5,0,.134,0,1.113.007,1.789,0a.846.846,0,0,0,.555-.23.857.857,0,0,0,.218-.457c.073-.411.16-.848.221-1.287s.116-.707.154-.948a.388.388,0,0,0-.386-.408c-.243,0-.319,0-.721,0-.343,0-8.115,0-11.336-.007,0-1.987-.009-4.446.011-5.842a.737.737,0,0,1,.263-.611.818.818,0,0,1,.489-.2c.223,0,.43.007.687.007,1,0,2.666-.007,3.806-.007,1.626.005,6.621,0,7.789.007a.749.749,0,0,0,.549-.234c.18-.2.18-.368.274-.921.1-.589.225-1.211.294-1.711a.4.4,0,0,0-.388-.462m-60.305-.3a12.579,12.579,0,0,1,.007,25.155A12.58,12.58,0,0,1,24.3,50.288m.027,21.572c4.745,0,8.486-4.035,8.486-9.1a8.567,8.567,0,0,0-8.5-8.923c-4.785,0-8.459,3.738-8.459,8.923,0,5.142,3.658,9.1,8.476,9.1"/>
<script xmlns=""/></svg>