<svg xmlns="http://www.w3.org/2000/svg" version="1.1" id="Calque_1" x="0" y="0" viewBox="0 0 1663 396" xml:space="preserve"><style>.st1{fill-rule:evenodd;clip-rule:evenodd;fill:#fff}</style><g id="PLAY-LOGOS"><g id="Group-10"><path id="Fill-1" d="M0 333.5h343.7V103H0v230.5zM1309.7 208h-16.8v-67.2h16.3c14.2 0 21 11.5 21 33.1 0 25.2-7.8 34.1-20.5 34.1zm39.5 23.6c16.3-8.9 26.8-27.3 26.8-60.9 0-46.7-23.7-68.3-62.5-68.3h-66.2V333h45.7v-91.4h15.2l23.7 91.4h47.3l-30-101.4zM1179.9 103v171.2c.5 13.6-6.8 23.1-20 23.1-12.1 0-20.5-7.9-20.5-23.1V103h-45.7v172.8c0 41.5 24.2 60.9 63.6 60.9 37.3 0 66.2-22.1 66.2-62.5V102.5h-43.6v.5zm-670.1 77.7V155c0-35.7-27.3-55.7-62-55.7-37.3 0-66.7 21.5-66.7 59.3v118.1c0 40.4 28.4 59.9 66.2 59.9 35.2 0 62-21.5 62-57.8v-23.1h-41.5v21c0 12.1-7.9 19.9-20 19.9-13.1 0-20.5-7.9-20.5-22.1v-115c0-12.6 6.3-21 20.5-21 12.1 0 20.5 7.9 20.5 20V180h41.5v.7zm371.6 113.4V103h-45.2v230.5h111.4v-38.9h-66.2v-.5zm-265.9-19.4c0 12.6-7.4 22.1-20.5 22.1-13.7 0-20.5-9.4-20.5-22.1V160.8c0-13.1 6.8-21.5 20.5-21.5 12.6 0 21 7.9 21 21v114.5h-.5zM594.4 99.3c-38.4 0-66.7 21.5-66.7 62.5v111.8c0 43.1 27.3 63 66.7 63 37.3 0 66.7-20.5 66.7-63.5V161.3c.1-42.6-29.4-62-66.7-62zm416.3 194.8v-59.9h52v-38.9h-52v-54.1h65.7V103H965.5v230.5h111.4v-38.9h-66.2v-.5zM768.9 103v171.2c.5 13.6-6.8 23.1-19.4 23.1-12.1 0-20.5-7.9-20.5-23.1V103h-45.7v172.8c0 41.5 24.2 60.9 63.6 60.9 37.3 0 66.2-22.1 66.2-62.5V102.5H769v.5zm646-15.2l78.3 25.2c6.3-18.9 22.6-31 42.6-31V.1c-55.8 0-103.6 34.1-120.9 87.7zm120.8 53.5v82.4c24.7 0 44.7 20 44.7 44.6 0 24.7-20 44.6-44.7 44.6s-44.7-20-44.7-44.6c0-5.3.5-8.9 2.1-13.7l-78.3-25.2c-4.2 13.1-6.3 25.7-6.3 39.4 0 69.8 56.8 127.1 127.2 127.1 69.9 0 127.2-56.7 127.2-127.1 0-70.8-56.7-127.5-127.2-127.5z" fill-rule="evenodd" clip-rule="evenodd" fill="#e60096"/></g></g><path id="Fill-4" class="st1" d="M307 240.8c0 25.3-19.9 34.2-46.6 34.2-12 0-24.6-1.1-29.3-1.6-2.1-.5-3.1-1.6-3.1-3.7l2.1-13.2c.5-2.6 1.6-3.7 3.7-4.2h2.6c4.2.5 16.7 1.6 23.5 1.6 15.7 0 22-1.6 22-11 0-6.3-4.2-9.5-14.6-12.1l-12.6-3.2c-16.2-4.2-25.6-14.7-25.6-32.1 0-19.5 13.6-31.6 41.3-31.6 13.6 0 24.6 1.1 29.3 1.6 2.1.5 3.1 1.6 3.1 3.7l-2.1 12.6c-.5 2.6-1.6 3.7-3.7 4.2h-2.6c-4.2-.5-14.6-1.1-25.1-1.1-7.8 0-15.7 1.6-15.7 10.5 0 4.7 2.1 7.4 6.8 9.5 1.6.5 3.1 1.1 5.8 1.6l12.6 3.2c21.9 5.3 28.2 16.4 28.2 31.1"/><path id="Fill-6" class="st1" d="M221 169.2v11.5c0 3.1-1.1 4.7-4.2 4.7h-28.9v83.9c0 3.1-1.1 4.7-4.2 4.7H165.8c-1.1-.5-1.6-1-2.1-2.1V186h-28.9c-1.6 0-2.6-.5-3.7-1-.5-.5-1.1-2.1-1.1-3.7v-11.5c0-1.6.5-2.6 1.1-3.7.5-.5 1.6-1 3.7-1h82.1c3-.1 4.1.9 4.1 4.1"/><path id="Fill-8" class="st1" d="M129 270.9c0 2.1-2.1 3.1-3.7 3.1H107c-2.1 0-3.1-.5-4.7-1.1-1-.5-1.6-1.6-2.6-3.1l-19.9-36.2c-1-2.1-1.6-3.1-1.6-5.2 0-.5 0-1.6.5-3.7l1.6-7.3c.5-1.6.5-2.6 1-3.1 1.6-2.1 3.1-1.6 6.8-2.6 3.7-1.6 7.9-4.2 7.9-13.1 0-2.6-.5-4.2-1-6.3-2.1-5.2-6.3-7.3-14.1-7.3H65.1v84.4c0 3.1-1 4.7-4.2 4.7H43.1c-1-.5-1.6-1.1-2.1-2.1V168.2c.5-1 1-2.1 2.1-2.1H82.9c26.2 0 37.7 12.1 37.7 33 0 10.5-3.7 16.8-8.4 22-2.6 3.1-6.3 5.2-9.4 7.3l24.6 40.9c1.1-.5 1.6.5 1.6 1.6"/></svg>