<svg fill="none" xmlns="http://www.w3.org/2000/svg" viewBox="0 0 251.08 80.03">
    <clipPath id="a">
        <path d="m0 0h251.077v80h-251.077z"/>
    </clipPath>
    <g clip-path="url(#a)">
        <path d="m119.51 0h-119.51v79.9719h119.51z" fill="#fff" style="--darkreader-inline-fill: #181a1b;" data-darkreader-inline-fill=""/>
        <path d="m0 0v79.9719h119.51v-79.9719zm43.5653 58.9304h-6.4364c-1.4194 0-1.8831-.4068-2.4734-1.4168l-7.0266-12.6109c-.4076-.7154-.5903-1.1783-.5903-1.7675 0-.2385.0562-.5892.2389-1.2906l.5903-2.4688c.534-2.2445 1.1242-1.4729 2.8387-2.1743 1.3632-.5892 2.7123-1.529 2.7123-4.531 0-3.2965-1.7145-4.6011-5.2559-4.6011h-5.6073v29.2899c0 1.1783-.3513 1.5851-1.5318 1.5851h-5.4246c-1.1805 0-1.5318-.4068-1.5318-1.5851v-34.7046c0-1.1783.3513-1.5851 1.5318-1.5851h13.168c9.0925 0 13.2242 4.1242 13.2242 11.4887 0 5.7233-3.2464 8.3044-6.1413 10.142l8.6147 14.2662c.9415 1.4729-.0563 2.006-.8854 2.006zm33.0816-32.2918c0 1.1783-.3513 1.5851-1.5318 1.5851h-10.0341v29.1075c0 1.1784-.3513 1.5852-1.5318 1.5852h-5.4246c-1.1805 0-1.5318-.4068-1.5318-1.5852v-29.1075h-10.0341c-1.1805 0-1.5318-.4208-1.5318-1.5851v-4.0119c0-1.1783.3513-1.5851 1.5318-1.5851h28.5704c1.1805 0 1.5318.4068 1.5318 1.5851v4.0119zm13.969 32.6425c-4.1879 0-8.5023-.2946-10.2168-.5331-.7729-.1122-1.1804-.4769-1.068-1.3607l.7027-4.5309c.2389-1.3046.6464-1.4729 2.1782-1.3607 1.4756.1122 5.79.4769 8.2634.4769 5.4246 0 7.6731-.5891 7.6731-3.8856 0-2.2445-1.5318-3.2965-5.1435-4.2504l-4.3706-1.1222c-5.7338-1.4729-9.0363-5.064-9.0363-11.138 0-6.7193 4.7219-10.9557 14.4609-10.9557 4.7781 0 8.558.2946 10.273.5331.773.1122 1.18.4629 1.068 1.3466l-.703 4.4188c-.239 1.3045-.646 1.4729-2.178 1.3607-1.476-.1123-5.1996-.4069-8.8535-.4069-2.7123 0-5.5511.5892-5.5511 3.6613 0 2.1743 1.3632 3.1282 4.3144 3.8857l4.3706 1.1222c7.7996 2.0059 10.0336 5.8355 10.0336 10.9556 0 8.7252-6.8435 11.7833-16.2311 11.7833z" fill="#1f1f1f" style="--darkreader-inline-fill: #17191a;" data-darkreader-inline-fill=""/>
        <path d="m251.077.0280762h-131.567v79.9719238h131.567z" fill="#3787ff" style="--darkreader-inline-fill: #0044ab;" data-darkreader-inline-fill=""/>
        <g fill="#1f1f1f" style="--darkreader-inline-fill: #17191a;" data-darkreader-inline-fill="">
            <path d="m140.73 21.0837h7.434v37.8748h-7.434z"/>
            <path d="m155.107 30.9733h7.153v3.1141c.407-.5891.885-1.1222 1.419-1.6132.534-.4909 1.139-.8977 1.813-1.2344.675-.3367 1.405-.6032 2.206-.7996.802-.1823 1.673-.2805 2.628-.2805 1.631 0 3.05.2525 4.259.7575 1.208.505 2.192 1.2344 2.993 2.2163.787.982 1.377 2.1603 1.771 3.5771.393 1.4028.59 3.016.59 4.8255v17.4365h-7.153v-16.0617c0-1.1643-.113-2.1884-.323-3.0861-.211-.8978-.549-1.6413-.984-2.2305-.436-.5891-.998-1.038-1.658-1.3326-.661-.2946-1.448-.4489-2.347-.4489-.9 0-1.631.1543-2.291.4489-.661.2946-1.209.7435-1.658 1.3326-.436.5892-.759 1.3327-.97 2.2305-.211.8977-.309 1.9218-.309 3.0861v16.0617h-7.153v-27.9853z"/>
            <path d="m187.233 36.5002h-3.935v-5.5269h3.935v-1.6132c0-1.5992.168-2.9178.52-3.9699.351-1.052.899-1.9077 1.672-2.539.773-.6312 1.743-1.0941 2.937-1.3607 1.195-.2665 2.628-.4068 4.286-.4068h3.443v5.4849h-2.698c-.604 0-1.11.0421-1.518.1403-.407.0841-.716.2524-.941.4769-.225.2385-.38.533-.464.8978-.084.3647-.126.8276-.126 1.3887v1.501h5.733v5.5269h-5.733v22.4583h-7.125v-22.4583z"/>
            <path d="m210.252 58.7479c-1.743-.6873-3.204-1.6552-4.399-2.9318-1.194-1.2765-2.094-2.8055-2.712-4.601-.618-1.7956-.928-3.8016-.928-6.0039v-.5611c0-2.2164.31-4.2223.928-6.0179.618-1.7955 1.518-3.3246 2.712-4.5871 1.195-1.2765 2.656-2.2584 4.399-2.9458 1.743-.6873 3.724-1.038 5.945-1.038 2.22 0 4.216.3507 5.958 1.038 1.743.6874 3.218 1.6693 4.399 2.9458 1.18 1.2766 2.08 2.8056 2.698 4.5871.618 1.7956.928 3.8015.928 6.0179v.5611c0 2.2023-.31 4.2083-.928 6.0039-.618 1.7955-1.518 3.3386-2.698 4.601-1.181 1.2766-2.656 2.2445-4.399 2.9318-1.757.6874-3.738 1.0241-5.958 1.0241-2.221 0-4.202-.3367-5.945-1.0241zm8.854-5.092c.829-.4068 1.503-.996 2.051-1.7675.534-.7856.942-1.7254 1.195-2.8336s.393-2.3707.393-3.7594v-.7295c0-1.4308-.126-2.6933-.393-3.8015s-.661-2.048-1.195-2.8196c-.534-.7715-1.222-1.3747-2.051-1.7674-.83-.3928-1.799-.6032-2.909-.6032-1.111 0-2.08.1964-2.91.6032-.829.4068-1.503.9959-2.051 1.7674-.534.7856-.928 1.7255-1.181 2.8196-.253 1.0942-.379 2.3707-.379 3.8015v.7295c0 1.4027.126 2.6512.379 3.7594s.647 2.048 1.181 2.8336c.534.7715 1.222 1.3747 2.051 1.7675.83.4068 1.799.6032 2.91.6032 1.11 0 2.079-.1964 2.909-.6032z"/>
        </g>
    </g>
</svg>