<?xml version="1.0" encoding="utf-8"?>
<!-- Generator: Adobe Illustrator 23.0.1, SVG Export Plug-In . SVG Version: 6.00 Build 0)  -->
<!DOCTYPE svg PUBLIC "-//W3C//DTD SVG 1.1//EN" "http://www.w3.org/Graphics/SVG/1.1/DTD/svg11.dtd" [
	<!ENTITY ns_extend "http://ns.adobe.com/Extensibility/1.0/">
	<!ENTITY ns_ai "http://ns.adobe.com/AdobeIllustrator/10.0/">
	<!ENTITY ns_graphs "http://ns.adobe.com/Graphs/1.0/">
	<!ENTITY ns_vars "http://ns.adobe.com/Variables/1.0/">
	<!ENTITY ns_imrep "http://ns.adobe.com/ImageReplacement/1.0/">
	<!ENTITY ns_sfw "http://ns.adobe.com/SaveForWeb/1.0/">
	<!ENTITY ns_custom "http://ns.adobe.com/GenericCustomNamespace/1.0/">
	<!ENTITY ns_adobe_xpath "http://ns.adobe.com/XPath/1.0/">
]>
<svg version="1.1" id="Livello_1" xmlns:x="&ns_extend;" xmlns:i="&ns_ai;" xmlns:graph="&ns_graphs;"
	 xmlns="http://www.w3.org/2000/svg" xmlns:xlink="http://www.w3.org/1999/xlink" x="0px" y="0px" viewBox="0 0 2975.2 500"
	 enable-background="new 0 0 2975.2 500" xml:space="preserve">
<metadata>
	<sfw  xmlns="&ns_sfw;">
		<slices></slices>
		<sliceSourceBounds  bottomLeftOrigin="true" height="500" width="2975.2" x="1303.4" y="-1161.6"></sliceSourceBounds>
	</sfw>
</metadata>
<g>
	<g>
		<path fill="#002A91" d="M2941.9,0h-864.3c-18.4,0-33.3,14.9-33.3,33.3v433.3c0,18.4,14.9,33.3,33.3,33.3h864.3
			c18.4,0,33.3-14.9,33.3-33.3V33.3C2975.2,14.9,2960.3,0,2941.9,0 M2941.9,10c12.8,0,23.3,10.4,23.3,23.3v433.3
			c0,12.8-10.5,23.3-23.3,23.3h-864.3c-12.8,0-23.3-10.5-23.3-23.3V33.3c0-12.9,10.5-23.3,23.3-23.3H2941.9"/>
		<path fill="#FFFFFF" d="M2941.9,10c12.8,0,23.3,10.4,23.3,23.3v433.3c0,12.8-10.5,23.3-23.3,23.3h-864.3
			c-12.8,0-23.3-10.5-23.3-23.3V33.3c0-12.9,10.5-23.3,23.3-23.3H2941.9"/>
		<polygon fill="#D60048" points="2875.7,241.4 2869.2,241.4 2865.6,258.6 2863,258.6 2866.6,241.4 2860.1,241.4 2860.6,239.2 
			2876.1,239.2 		"/>
		<polygon fill="#D60048" points="2878.3,239.3 2881.8,239.3 2884.4,255.9 2884.5,255.9 2894,239.3 2897.6,239.3 2893.5,258.5 
			2891,258.5 2895,241.7 2894.9,241.7 2885.1,258.5 2882.6,258.5 2880.1,241.7 2880,241.7 2876.7,258.5 2874.2,258.5 		"/>
		<path fill-rule="evenodd" clip-rule="evenodd" d="M2258.4,89.8c10-18.6,33.1-33.7,51.7-33.7h130.3L2353,221.2h-163.9L2258.4,89.8z
			"/>
		<path fill-rule="evenodd" clip-rule="evenodd" d="M2524.6,138.8c7-13.1,23.4-23.8,36.5-23.8h89.1l-43,82.4
			c-7,13.1-23.4,23.7-36.5,23.7h-89.1L2524.6,138.8z"/>
		<path fill-rule="evenodd" clip-rule="evenodd" d="M2673.9,69c3.7-7,12.4-12.6,19.3-12.6h46.6l-25,46.6c-3.7,7-12.4,12.6-19.3,12.6
			h-46.6L2673.9,69z"/>
		<polygon fill-rule="evenodd" clip-rule="evenodd" points="2353,221.2 2481.8,221.2 2413,349.7 2284.2,349.7 		"/>
		<path fill-rule="evenodd" clip-rule="evenodd" d="M2413,349.6h90.3l-41.2,76.8c-5.1,9.6-17.2,17.5-26.8,17.5h-72.8L2413,349.6z"/>
		<path fill="#D60048" d="M2657.5,262.2l-24.7,46.5c-1.6,3.1,0.4,5.2,3.4,5.5c2.3,0.2,4.6,0,7.6-1.3l-10,18.7
			c-3.4,0.9-5.3,1.4-8.7,1.4c-14.7,0-21.5-9.9-15-22.1l41.5-78.2c2.7-5.1,9-9.2,14.1-9.2h12.1l-9.7,18.4h12.5l-10.7,20.2H2657.5z
			 M2532.4,265.6l-0.4,0.8l-10.2,19.3l-19.1,36c-1.6,3.1-4.5,5.7-7.7,7.5c-2.2,1.2-4.5,1.9-6.6,1.9h-12.5l24.2-45.4l10.7-20.1
			c0-0.2,0.2-0.5,0.3-0.7c1.1-2.7-0.1-4.8-3-4.8c-3.1,0-6.9,2.5-8.5,5.6l-10.7,20.1l-19.1,36.1c-2.7,5.1-9.1,9.3-14.3,9.3h-12.4
			l34.8-65.5c7.4-15.3,16.2-25.7,41.4-25.7h32.8c12.6,0,23,7.3,13.3,25.8l-29.9,56.1c-2.7,5.1-9.1,9.3-14.3,9.3h-12.4l24.1-45.4
			l10.7-20.1c1.6-3.1,0.5-5.6-2.6-5.6C2537.9,260,2534.1,262.5,2532.4,265.6 M2790,261.7l-7.7,14.6h-21l6.3-11.8
			c1.6-3.1,0.5-5.5-2.6-5.5s-6.9,2.5-8.5,5.5l-21.1,39.7l-1.9,3.6c-1.6,3-0.5,5.5,2.6,5.5c3,0,6.8-2,10.1-8.7l2.8-5.4h-5.3l8.4-15.9
			h26.3l-14.4,27.2l-0.2,0.4c-6.5,12.3-23.7,22.2-38.4,22.2c-14.7,0-21.2-9.9-14.7-22.2l3.6-6.7l22.8-42.9
			c6.5-12.2,23.7-22.2,38.3-22.2c14.7,0,21.3,9.9,14.7,22.2L2790,261.7z M2672.1,307.8c-1.6,3-0.5,5.5,2.6,5.5
			c3.1,0,6.8-2.5,8.5-5.5l22.9-43.1c1.6-3.1,0.5-5.6-2.6-5.6s-6.8,2.5-8.4,5.6L2672.1,307.8z M2728.7,261.9l-26,48.6l-0.2,0.4
			c-6.5,12.3-23.7,22.2-38.3,22.2s-21.3-9.9-14.8-22.2l26.3-49.4c6.5-12.2,23.7-22.2,38.4-22.2c14.7,0,21.3,10,14.7,22.2
			L2728.7,261.9z M2572.7,307.8c-1.6,3-0.5,5.5,2.6,5.5c3,0,6.8-2.5,8.4-5.5l23-43.1c1.6-3.1,0.5-5.6-2.6-5.6
			c-3.1,0-6.9,2.5-8.4,5.6L2572.7,307.8z M2628.3,261.9l-26,48.6l-0.2,0.4c-6.5,12.3-23.7,22.2-38.3,22.2
			c-14.7,0-21.3-9.9-14.8-22.2l26.3-49.4c6.5-12.2,23.7-22.2,38.4-22.2c14.7,0,21.3,10,14.7,22.2L2628.3,261.9z M2817.9,264.6
			l-1,1.9l-9.2,17.3h3.6c4.1,0,9.2-3.3,11.4-7.4l6.3-11.8c1.6-3.1,0.5-5.5-2.6-5.5C2823.3,259.1,2819.5,261.5,2817.9,264.6
			 M2797.3,303.2l-10,18.7c-2.7,5.1-9,9.3-14.1,9.3h-12.3l26.5-49.9l8-15.1c11.4-22.3,25.3-27,41.5-27c18.3,0,20.7,12.1,12.7,27.1
			l-0.6,1.1l-7,13.1l-0.5,0.9c-6.6,12.4-24.1,22.4-39,22.4C2800.7,303.7,2798.9,303.5,2797.3,303.2"/>
	</g>
	<g>
		
			<linearGradient id="Plinth_1_" gradientUnits="userSpaceOnUse" x1="1456.6582" y1="198.0042" x2="1456.6582" y2="698.0042" gradientTransform="matrix(1 0 0 1 0 -198)">
			<stop  offset="0.4" style="stop-color:#FF0000"/>
			<stop  offset="1" style="stop-color:#D42321"/>
		</linearGradient>
		<path id="Plinth_2_" fill="url(#Plinth_1_)" d="M832.1,0h1249.2c18.4,0,33.3,14.9,33.3,33.3v433.4c0,18.4-14.9,33.3-33.3,33.3
			H832.1c-18.4,0-33.3-14.9-33.3-33.3V33.3C798.8,14.9,813.7,0,832.1,0z"/>
		
			<linearGradient id="p40_2_" gradientUnits="userSpaceOnUse" x1="1459.4656" y1="431.7325" x2="1450.7686" y2="182.6788" gradientTransform="matrix(1 0 0 1 0 -198)">
			<stop  offset="0" style="stop-color:#FFFFFF"/>
			<stop  offset="0.1203" style="stop-color:#FFFFFF;stop-opacity:0.8347"/>
			<stop  offset="0.2693" style="stop-color:#FFFFFF;stop-opacity:0.6576"/>
			<stop  offset="0.4195" style="stop-color:#FFFFFF;stop-opacity:0.5107"/>
			<stop  offset="0.5684" style="stop-color:#FFFFFF;stop-opacity:0.3965"/>
			<stop  offset="0.7156" style="stop-color:#FFFFFF;stop-opacity:0.3152"/>
			<stop  offset="0.8603" style="stop-color:#FFFFFF;stop-opacity:0.2664"/>
			<stop  offset="1" style="stop-color:#FFFFFF;stop-opacity:0.25"/>
		</linearGradient>
		<path id="p40_1_" opacity="0.4" fill="url(#p40_2_)" enable-background="new    " d="M822.8,248.1c0,0,1.1-0.1,3.2-0.2
			c98.6-3.5,1263.7-44.1,1263.7-44.1c13.9-0.1,25-11.5,24.9-25.3V33.3c0-18.4-14.9-33.3-33.3-33.3H832.1
			c-18.4,0-33.3,14.9-33.3,33.3V274C798.4,260.3,809.1,248.8,822.8,248.1z"/>
		
			<linearGradient id="Sky_Logo_1_" gradientUnits="userSpaceOnUse" x1="361.9225" y1="226.81" x2="361.9225" y2="669.2239" gradientTransform="matrix(1 0 0 1 0 -198)">
			<stop  offset="0" style="stop-color:#002A91"/>
			<stop  offset="0.8" style="stop-color:#002672"/>
		</linearGradient>
		<path id="Sky_Logo_2_" fill="url(#Sky_Logo_1_)" d="M499.6,464.1c10.5,4.6,21.8,7.1,33.2,7.1c26.1,0.6,40.4-9.4,50.9-32.8
			l140.1-311.9c-9.1-4.1-19-6.4-29-6.7c-18.1-0.4-42.3,3.3-57.6,40.1l-45.3,106.8l-89-144.6c-9.8-2.6-19.9-4-30-4.2
			c-31.5,0-49,11.5-67.2,31.3l-86.5,94.4L388.7,353c12.9,19.9,29.8,30.1,57.3,30.1c13.7,0.2,27.3-2.3,40-7.5l-83.8-126l59.4-62.9
			L559,339.4L499.6,464.1z M315.9,346.2c0,23-9,36.2-54,36.2c-5.4,0-10.8-0.4-16.1-1.1V76.2c0-23.2,7.9-47.4,53.2-47.4
			c5.7,0,11.4,0.6,16.9,1.7V346.2z M223.1,300.1c0,43-28.1,74.2-85.1,80.4c-41.3,4.4-101.1-0.8-129.5-4c-1-4.9-1.6-9.9-1.7-15
			c0-37.4,20.2-46,39.2-46c19.8,0,50.9,3.5,74,3.5c25.5,0,33.2-8.6,33.2-16.9c0-10.7-10.2-15.2-30-19L69,272.7
			C24,264.1,0,233,0,199.9c0-40.1,28.4-73.6,84.3-79.8c42.3-4.6,93.8,0.6,122,4c1,4.7,1.5,9.5,1.5,14.4c0,37.4-19.8,45.5-38.8,45.5
			c-14.6,0-37.3-2.7-63.2-2.7c-26.3,0-37.3,7.3-37.3,16.1c0,9.4,10.4,13.2,26.9,16.1l51.7,9.6C200.2,233,223.1,263.1,223.1,300.1z"
			/>
		
			<linearGradient id="s25_2_" gradientUnits="userSpaceOnUse" x1="365.4495" y1="461.252" x2="359.6001" y2="293.7556" gradientTransform="matrix(1 0 0 1 0 -198)">
			<stop  offset="0" style="stop-color:#FFFFFF"/>
			<stop  offset="0.1203" style="stop-color:#FFFFFF;stop-opacity:0.8347"/>
			<stop  offset="0.2693" style="stop-color:#FFFFFF;stop-opacity:0.6576"/>
			<stop  offset="0.4195" style="stop-color:#FFFFFF;stop-opacity:0.5107"/>
			<stop  offset="0.5684" style="stop-color:#FFFFFF;stop-opacity:0.3965"/>
			<stop  offset="0.7156" style="stop-color:#FFFFFF;stop-opacity:0.3152"/>
			<stop  offset="0.8603" style="stop-color:#FFFFFF;stop-opacity:0.2664"/>
			<stop  offset="1" style="stop-color:#FFFFFF;stop-opacity:0.25"/>
		</linearGradient>
		<path id="s25_1_" opacity="0.25" fill="url(#s25_2_)" enable-background="new    " d="M723.9,126.5l-51.3,114.2
			c-4,8.2-12.3,13.4-21.4,13.4l-46.8,1.6c-5.1,0.3-9.6,3.7-11.4,8.5v-0.1l44.2-104.2c15.4-36.8,39.6-40.5,57.6-40.1
			C704.9,120.1,714.7,122.4,723.9,126.5z M589.5,263l-86.6-140.8c-9.8-2.6-19.9-4-30-4.2c-31.5,0-49,11.5-67.2,31.3l-86.5,94.4
			l6.9,10.9c4.5,6.8,12.3,10.7,20.5,10.3c4.1-0.1,45.9-1.6,49.3-1.7c8.5-0.7,16.7,3,21.8,9.8l0,0l-15.5-23.3l59.4-62.9l39.9,62.5
			l0,0c4.9,6.2,12.5,9.7,20.4,9.5c2.1-0.1,54.3-1.9,56.7-2C583,256.8,587.2,259.2,589.5,263L589.5,263z M299,28.9
			c-45.3,0-53.2,24.2-53.2,47.4v209c0-9.6,7.7-17.4,17.3-17.7l35.1-1.2c9.8,0,17.8-8,17.8-17.8l0,0v-218
			C310.3,29.4,304.7,28.8,299,28.9z M147.2,223.1l-51.7-9.6c-16.5-2.9-26.9-6.7-26.9-16.1c0-8.8,11-16.1,37.3-16.1
			c25.9,0,48.6,2.7,63.2,2.7c19,0,38.8-8.1,38.8-45.5c0-4.8-0.5-9.7-1.5-14.4c-28.2-3.5-79.7-8.6-122-4C28.4,126.3,0,159.9,0,199.9
			c0.1,21.4,10.2,41.6,27.3,54.5c12.6,7.8,26.8,12.9,41.5,14.8c19.2,2.6,38.5,3.6,57.8,3c6.1-0.2,51.7-1.8,61.7-2.2
			c23.1-0.8,35.7,18.9,34.4,38.7c0-0.3,0-0.5,0.1-0.8v-0.2c0.2-2.6,0.3-5.2,0.3-7.8C223.1,263.1,200.2,233,147.2,223.1z"/>
		<path fill="#FFFFFF" d="M894.4,359.3c-3-20.6,3.4-31.4,15.2-31.4c11.2,0,38.7,12.3,77,12.3c40.3,0,55.5-14.3,55.5-32.9
			c0-13.2-5.9-25-42.2-34.9l-41.7-11.2c-46.1-12.3-64.3-35.4-64.3-63.9c0-35.3,28-66.8,91.3-66.8c28.5,0,63.9,6.4,85.4,14.8
			c3.9,20.1-2.5,30.9-14.7,30.9c-10.8,0-35.3-10.3-70.2-10.3c-37.3,0-51.1,12.7-51.1,29.4c0,11.7,5.4,22.6,38.8,31.9l42.7,11.8
			c47.7,13.2,66.8,35.3,66.8,66.7c0,36.9-28.5,69.7-97.2,69.7C955.3,375.5,917.4,368.1,894.4,359.3"/>
		<path fill="#FFFFFF" d="M1365.6,252.8c0,77-54,122.7-113.4,122.7c-35.3,0-64.3-16.7-81.5-40.2v99.2c0,9.3-5.4,15.2-21.1,15.2
			c-7.9,0-15.2-1-19.1-1.9V135c3.9-1,11.2-2,19.1-2c15.7,0,21.1,5.9,21.1,15.2v22.5c17.2-23.5,46.2-40.2,81.5-40.2
			C1311.6,130.6,1365.6,176.2,1365.6,252.8 M1324.9,252.8c0-51.5-34.3-86.9-80.5-86.9c-31.4,0-60.4,18.2-73.6,44.7v84.9
			c13.2,26.5,42.2,44.7,73.6,44.7C1290.5,340.1,1324.9,304.8,1324.9,252.8"/>
		<path fill="#FFFFFF" d="M1403.3,252.8c0-70.2,51.5-122.2,120.7-122.2c69.7,0,121.2,52,121.2,122.2c0,69.7-51.5,122.7-121.2,122.7
			C1454.8,375.4,1403.3,322.4,1403.3,252.8 M1604.5,252.8c0-54-36.4-86.9-80.5-86.9c-43.6,0-80,32.9-80,86.9
			c0,53.5,36.4,87.3,80,87.3C1568.1,340.1,1604.5,306.3,1604.5,252.8"/>
		<path fill="#FFFFFF" d="M1839.8,152.6c0,16.2-6.8,19.6-23.6,19.6c-33.8,0-62.3,15.7-80,52.5v133.1c0,9.8-5.4,15.2-21.6,15.2
			c-6.9,0-14.8-1-18.7-1.9V135c3.9-1,11.7-1.9,18.7-1.9c16.1,0,21.6,5.9,21.6,15.2v32.9c23-34.9,57.9-52.5,101.6-46.6
			C1838.3,137.9,1839.8,145.3,1839.8,152.6"/>
		<path fill="#FFFFFF" d="M2016.3,359.3c-20.6,9.8-44.2,16.2-67.7,16.2c-46.6,0-74.6-27.5-74.6-73.1V99.7c0-10.3,5.9-17.2,21.6-17.2
			c6.8,0,14.7,1.4,18.7,2.5v51h91.7c0.5,3.4,1.5,10.3,1.5,16.2c0,14.2-5.9,19.1-14.7,19.1h-78.5v128.2c0,27.4,12.7,40.7,38.7,40.7
			c23.6,0,36.8-10.3,48.1-10.3C2012.9,329.8,2018.8,339.6,2016.3,359.3"/>
	</g>
</g>
</svg>
