<svg width="343" height="48" viewBox="0 0 343 48" fill="none" xmlns="http://www.w3.org/2000/svg">
<g clip-path="url(#clip0_1105_2166)">
<g clip-path="url(#clip1_1105_2166)">
<path d="M340.04 -0.115387H220.424C218.659 -0.115387 217.228 1.31551 217.228 3.08061V44.6886C217.228 46.4537 218.659 47.8846 220.424 47.8846H340.04C341.805 47.8846 343.236 46.4537 343.236 44.6886V3.08061C343.236 1.31551 341.805 -0.115387 340.04 -0.115387Z" fill="white"/>
<path d="M220.768 -0.115387H79.8641C78.0968 -0.115387 76.6641 1.3173 76.6641 3.08461V44.6846C76.6641 46.4519 78.0968 47.8846 79.8641 47.8846H220.768C222.535 47.8846 223.968 46.4519 223.968 44.6846V3.08461C223.968 1.3173 222.535 -0.115387 220.768 -0.115387Z" fill="url(#paint0_linear_1105_2166)"/>
<path opacity="0.4" d="M78.9681 23.7006C78.9681 23.7006 79.0721 23.6926 79.2721 23.6846C88.7361 23.3486 221.58 18.7166 221.58 18.7166C222.784 18.6726 223.968 17.7806 223.968 16.2846V3.08461C223.968 1.31661 222.536 -0.115387 220.768 -0.115387H79.8641C78.0961 -0.115387 76.6641 1.31661 76.6641 3.08461V26.1886C76.6641 25.9366 76.7401 23.9126 78.9681 23.7006Z" fill="url(#paint1_linear_1105_2166)"/>
<path d="M47.956 44.4326C48.528 44.7246 49.688 45.0766 51.148 45.1126C53.656 45.1686 55.02 44.2086 56.036 41.9646L69.48 12.0286C68.928 11.7326 67.692 11.4006 66.696 11.3846C64.964 11.3486 62.64 11.6966 61.164 15.2326L56.812 25.4886L48.272 11.6046C47.72 11.4366 46.372 11.2006 45.396 11.2006C42.372 11.2006 40.692 12.3046 38.94 14.2006L30.64 23.2606L37.316 33.7566C38.552 35.6726 40.176 36.6486 42.812 36.6486C44.544 36.6486 45.984 36.2446 46.648 35.9326L38.608 23.8366L44.308 17.7966L53.66 32.4526L47.96 44.4406L47.956 44.4326ZM30.316 33.1086C30.316 35.3166 29.448 36.5886 25.132 36.5886C24.56 36.5886 24.064 36.5526 23.584 36.4766V7.20455C23.584 4.97655 24.34 2.65656 28.692 2.65656C29.244 2.65656 29.8 2.71256 30.316 2.82456V33.1126V33.1086ZM21.412 28.6886C21.412 32.8126 18.72 35.8126 13.24 36.4046C9.276 36.8286 3.54 36.3326 0.808 36.0166C0.716 35.5766 0.644 35.0246 0.644 34.5806C0.644 30.9886 2.58 30.1606 4.408 30.1606C6.236 30.1606 9.296 30.4926 11.508 30.4926C13.96 30.4926 14.7 29.6646 14.7 28.8726C14.7 27.8406 13.724 27.4166 11.824 27.0486L6.624 26.0526C2.304 25.2286 0 22.2446 0 19.0766C0 15.2286 2.728 12.0046 8.096 11.4166C12.152 10.9726 17.096 11.4726 19.808 11.8046C19.9 12.2646 19.956 12.7086 19.956 13.1846C19.956 16.7726 18.056 17.5486 16.232 17.5486C14.832 17.5486 12.652 17.2926 10.164 17.2926C7.676 17.2926 6.584 17.9926 6.584 18.8406C6.584 19.7446 7.58 20.1126 9.168 20.3886L14.128 21.3086C19.22 22.2486 21.412 25.1366 21.412 28.6926V28.6886Z" fill="url(#paint2_linear_1105_2166)"/>
<path opacity="0.25" d="M69.48 12.029L64.556 22.989C64.412 23.285 63.864 24.225 62.504 24.273C62.184 24.285 58.008 24.429 58.008 24.429C57.188 24.457 56.92 25.233 56.912 25.245L61.16 15.233C62.636 11.697 64.96 11.349 66.692 11.385C67.688 11.405 68.924 11.733 69.476 12.029H69.48ZM56.588 25.125L48.272 11.605C47.72 11.437 46.372 11.201 45.396 11.201C42.372 11.201 40.692 12.305 38.94 14.201L30.64 23.261L31.304 24.301C31.588 24.689 32.156 25.329 33.268 25.293C33.664 25.281 37.672 25.141 38 25.129C39.036 25.093 39.696 25.537 40.096 26.069L38.612 23.833L44.312 17.793L48.14 23.793C48.836 24.697 49.876 24.713 50.096 24.705C50.296 24.697 55.312 24.521 55.536 24.517C55.884 24.505 56.288 24.697 56.592 25.129L56.588 25.125ZM28.692 2.65295C24.34 2.65295 23.584 4.97295 23.584 7.20095V27.265C23.584 26.457 24.204 25.605 25.24 25.569C25.964 25.545 28.004 25.473 28.608 25.453C29.272 25.429 30.3 24.977 30.312 23.741V2.82095C29.796 2.70895 29.24 2.65295 28.688 2.65295H28.692ZM14.128 21.305L9.168 20.385C7.58 20.109 6.584 19.741 6.584 18.837C6.584 17.989 7.636 17.289 10.164 17.289C12.692 17.289 14.832 17.545 16.232 17.545C18.056 17.545 19.956 16.773 19.956 13.181C19.956 12.701 19.9 12.261 19.808 11.801C17.096 11.469 12.152 10.973 8.096 11.413C2.728 12.009 0 15.229 0 19.077C0 21.053 0.9 22.957 2.624 24.313C3.936 25.173 5.264 25.505 6.608 25.737C7.708 25.925 10.264 26.097 12.16 26.029C12.748 26.009 17.128 25.853 18.08 25.821C20.3 25.745 21.504 27.641 21.38 29.537C21.38 29.513 21.384 29.485 21.388 29.461C21.388 29.453 21.388 29.445 21.388 29.437C21.408 29.193 21.42 28.941 21.42 28.689C21.42 25.137 19.224 22.245 14.136 21.305H14.128Z" fill="url(#paint3_linear_1105_2166)"/>
<path d="M85.8719 34.3722C85.5879 32.3922 86.2 31.3562 87.332 31.3562C88.464 31.3562 91.056 32.5362 94.728 32.5362C98.592 32.5362 100.052 31.1682 100.052 29.3802C100.052 28.1082 99.4879 26.9762 95.9999 26.0362L91.996 24.9522C87.568 23.7762 85.8239 21.5602 85.8239 18.8282C85.8239 15.4362 88.5079 12.4202 94.5879 12.4202C97.3199 12.4202 100.712 13.0322 102.788 13.8322C103.164 15.7642 102.552 16.8002 101.376 16.8002C100.34 16.8002 97.984 15.8122 94.64 15.8122C91.06 15.8122 89.74 17.0362 89.74 18.6402C89.74 19.7722 90.26 20.8082 93.464 21.7042L97.564 22.8362C102.136 24.1082 103.972 26.2282 103.972 29.2442C103.972 32.7762 101.24 35.9362 94.6439 35.9362C91.7239 35.9362 88.0959 35.2282 85.8799 34.3802L85.8719 34.3722Z" fill="white"/>
<path d="M131.2 24.1482C131.2 31.5442 126.016 35.9282 120.316 35.9282C116.924 35.9282 114.144 34.3282 112.496 32.0642V41.5802C112.496 42.4762 111.976 43.0402 110.468 43.0402C109.716 43.0402 109.008 42.9442 108.632 42.8522V12.8402C109.008 12.7442 109.716 12.6522 110.468 12.6522C111.976 12.6522 112.496 13.2162 112.496 14.1122V16.2802C114.144 14.0202 116.924 12.4162 120.316 12.4162C126.016 12.4162 131.2 16.8002 131.2 24.1482ZM127.288 24.1482C127.288 19.2002 123.988 15.8082 119.56 15.8082C116.544 15.8082 113.764 17.5522 112.492 20.0962V28.2482C113.764 30.7922 116.544 32.5362 119.56 32.5362C123.988 32.5362 127.288 29.1442 127.288 24.1482Z" fill="white"/>
<path d="M134.92 24.1482C134.92 17.4082 139.868 12.4162 146.512 12.4162C153.156 12.4162 158.152 17.4122 158.152 24.1482C158.152 30.8842 153.204 35.9282 146.512 35.9282C139.82 35.9282 134.92 30.8402 134.92 24.1482ZM154.24 24.1482C154.24 18.9642 150.752 15.8082 146.512 15.8082C142.272 15.8082 138.832 18.9642 138.832 24.1482C138.832 29.3322 142.32 32.5362 146.512 32.5362C150.704 32.5362 154.24 29.2842 154.24 24.1482Z" fill="white"/>
<path d="M176.904 14.5362C176.904 16.0922 176.244 16.4202 174.644 16.4202C171.392 16.4202 168.66 17.9282 166.964 21.4602V34.2282C166.964 35.1722 166.444 35.6882 164.892 35.6882C164.232 35.6882 163.48 35.5922 163.1 35.5002V12.8362C163.476 12.7402 164.232 12.6482 164.892 12.6482C166.448 12.6482 166.964 13.2122 166.964 14.1082V17.2642C169.18 13.9202 172.524 12.2242 176.716 12.7882C176.764 13.1162 176.904 13.8242 176.904 14.5322V14.5362Z" fill="white"/>
<path d="M193.868 34.3722C191.888 35.3162 189.628 35.9282 187.364 35.9282C182.888 35.9282 180.2 33.2882 180.2 28.9082V9.44817C180.2 8.46017 180.764 7.80017 182.272 7.80017C182.932 7.80017 183.684 7.94017 184.064 8.03617V12.9362H192.876C192.924 13.2642 193.016 13.9242 193.016 14.4922C193.016 15.8602 192.452 16.3282 191.604 16.3282H184.064V28.6282C184.064 31.2682 185.288 32.5402 187.788 32.5402C190.048 32.5402 191.32 31.5522 192.404 31.5522C193.488 31.5522 194.1 32.4962 193.864 34.3802L193.868 34.3722Z" fill="white"/>
<path d="M196.552 34.3722C196.268 32.3922 196.88 31.3562 198.012 31.3562C199.144 31.3562 201.736 32.5362 205.408 32.5362C209.272 32.5362 210.732 31.1682 210.732 29.3802C210.732 28.1082 210.168 26.9762 206.68 26.0362L202.676 24.9522C198.248 23.7762 196.504 21.5602 196.504 18.8282C196.504 15.4362 199.188 12.4202 205.268 12.4202C208 12.4202 211.392 13.0322 213.468 13.8322C213.844 15.7642 213.232 16.8002 212.056 16.8002C211.02 16.8002 208.664 15.8122 205.316 15.8122C201.736 15.8122 200.416 17.0362 200.416 18.6402C200.416 19.7722 200.936 20.8082 204.14 21.7042L208.24 22.8362C212.812 24.1082 214.648 26.2282 214.648 29.2442C214.648 32.7762 211.916 35.9362 205.32 35.9362C202.4 35.9362 198.772 35.2282 196.556 34.3802L196.552 34.3722Z" fill="white"/>
<path d="M245.588 32.5766C243.948 33.3566 242.072 33.8646 240.196 33.8646C236.484 33.8646 234.26 31.6766 234.26 28.0446V11.9126C234.26 11.0926 234.728 10.5446 235.98 10.5446C236.528 10.5446 237.152 10.6606 237.464 10.7406V14.8046H244.768C244.808 15.0766 244.884 15.6246 244.884 16.0926C244.884 17.2246 244.416 17.6166 243.712 17.6166H237.464V27.8126C237.464 30.0006 238.48 31.0566 240.548 31.0566C242.424 31.0566 243.476 30.2366 244.376 30.2366C245.276 30.2366 245.784 31.0166 245.588 32.5806V32.5766Z" fill="#002A91"/>
<path d="M264.784 25.2725H250.252C250.68 28.9045 253.18 30.9365 256.892 30.9365C258.492 30.9365 259.744 30.6245 260.916 30.2325C261.736 29.9605 262.088 29.8405 262.4 29.8405C263.3 29.8405 263.884 30.5845 263.728 32.3005C262.048 33.0445 259.472 33.8645 256.776 33.8645C250.916 33.8645 246.972 29.9205 246.972 24.0605C246.972 18.2005 251.152 14.3725 256.268 14.3725C262.048 14.3725 264.9 18.8645 264.9 23.3965C264.9 23.9445 264.86 24.6085 264.784 25.2725ZM250.252 22.7725H261.776C261.66 19.5685 259.588 17.0685 256.268 17.0685C253.376 17.0685 250.76 19.0605 250.252 22.7725Z" fill="#002A91"/>
<path d="M285.352 22.3446V32.4606C285.352 33.2046 284.924 33.6726 283.632 33.6726C283.084 33.6726 282.46 33.5926 282.148 33.5166V22.7726C282.148 19.0206 280.312 17.2246 277.54 17.2246C275.392 17.2246 273.048 18.7086 272.112 20.4686V32.4606C272.112 33.2046 271.684 33.6726 270.392 33.6726C269.844 33.6726 269.22 33.5926 268.908 33.5166V14.7286C269.22 14.6486 269.844 14.5726 270.392 14.5726C271.68 14.5726 272.112 15.0406 272.112 15.7846V17.3846C273.48 15.7046 275.548 14.3766 278.324 14.3766C282.152 14.3766 285.356 16.7966 285.356 22.3446H285.352Z" fill="#002A91"/>
<path d="M306.724 22.3446V32.4606C306.724 33.2046 306.296 33.6726 305.004 33.6726C304.456 33.6726 303.832 33.5926 303.52 33.5166V22.7726C303.52 19.0206 301.684 17.2246 298.912 17.2246C296.764 17.2246 294.42 18.7086 293.484 20.4686V32.4606C293.484 33.2046 293.056 33.6726 291.764 33.6726C291.216 33.6726 290.592 33.5926 290.28 33.5166V14.7286C290.592 14.6486 291.216 14.5726 291.764 14.5726C293.052 14.5726 293.484 15.0406 293.484 15.7846V17.3846C294.852 15.7046 296.92 14.3766 299.696 14.3766C303.524 14.3766 306.728 16.7966 306.728 22.3446H306.724Z" fill="#002A91"/>
<path d="M311.144 10.4686C311.144 9.29658 312.08 8.43658 313.176 8.43658C314.348 8.43658 315.248 9.29658 315.248 10.4686C315.248 11.5246 314.348 12.5006 313.176 12.5006C312.084 12.5006 311.144 11.5246 311.144 10.4686ZM311.572 33.5166V15.7806C311.572 15.0366 312 14.5686 313.292 14.5686C313.84 14.5686 314.424 14.6486 314.736 14.7246V32.4606C314.736 33.2406 314.344 33.6726 313.056 33.6726C312.508 33.6726 311.884 33.5926 311.572 33.5166Z" fill="#002A91"/>
<path d="M318.816 32.5765C318.58 30.9365 319.088 30.0765 320.028 30.0765C320.968 30.0765 323.112 31.0525 326.16 31.0525C329.364 31.0525 330.576 29.9205 330.576 28.4365C330.576 27.3805 330.108 26.4445 327.216 25.6645L323.896 24.7645C320.224 23.7885 318.78 21.9525 318.78 19.6845C318.78 16.8725 321.008 14.3725 326.044 14.3725C328.308 14.3725 331.124 14.8805 332.84 15.5445C333.152 17.1445 332.644 18.0045 331.668 18.0045C330.808 18.0045 328.856 17.1845 326.084 17.1845C323.116 17.1845 322.02 18.2005 322.02 19.5285C322.02 20.4645 322.448 21.3245 325.104 22.0685L328.504 23.0045C332.292 24.0605 333.816 25.8165 333.816 28.3165C333.816 31.2445 331.552 33.8645 326.08 33.8645C323.66 33.8645 320.652 33.2805 318.816 32.5765Z" fill="#002A91"/>
<path d="M245.588 32.5766C243.948 33.3566 242.072 33.8646 240.196 33.8646C236.484 33.8646 234.26 31.6766 234.26 28.0446V11.9126C234.26 11.0926 234.728 10.5446 235.98 10.5446C236.528 10.5446 237.152 10.6606 237.464 10.7406V14.8046H244.768C244.808 15.0766 244.884 15.6246 244.884 16.0926C244.884 17.2246 244.416 17.6166 243.712 17.6166H237.464V27.8126C237.464 30.0006 238.48 31.0566 240.548 31.0566C242.424 31.0566 243.476 30.2366 244.376 30.2366C245.276 30.2366 245.784 31.0166 245.588 32.5806V32.5766Z" fill="#002A91"/>
<path d="M264.784 25.2725H250.252C250.68 28.9045 253.18 30.9365 256.892 30.9365C258.492 30.9365 259.744 30.6245 260.916 30.2325C261.736 29.9605 262.088 29.8405 262.4 29.8405C263.3 29.8405 263.884 30.5845 263.728 32.3005C262.048 33.0445 259.472 33.8645 256.776 33.8645C250.916 33.8645 246.972 29.9205 246.972 24.0605C246.972 18.2005 251.152 14.3725 256.268 14.3725C262.048 14.3725 264.9 18.8645 264.9 23.3965C264.9 23.9445 264.86 24.6085 264.784 25.2725ZM250.252 22.7725H261.776C261.66 19.5685 259.588 17.0685 256.268 17.0685C253.376 17.0685 250.76 19.0605 250.252 22.7725Z" fill="#002A91"/>
<path d="M285.352 22.3446V32.4606C285.352 33.2046 284.924 33.6726 283.632 33.6726C283.084 33.6726 282.46 33.5926 282.148 33.5166V22.7726C282.148 19.0206 280.312 17.2246 277.54 17.2246C275.392 17.2246 273.048 18.7086 272.112 20.4686V32.4606C272.112 33.2046 271.684 33.6726 270.392 33.6726C269.844 33.6726 269.22 33.5926 268.908 33.5166V14.7286C269.22 14.6486 269.844 14.5726 270.392 14.5726C271.68 14.5726 272.112 15.0406 272.112 15.7846V17.3846C273.48 15.7046 275.548 14.3766 278.324 14.3766C282.152 14.3766 285.356 16.7966 285.356 22.3446H285.352Z" fill="#002A91"/>
<path d="M306.724 22.3446V32.4606C306.724 33.2046 306.296 33.6726 305.004 33.6726C304.456 33.6726 303.832 33.5926 303.52 33.5166V22.7726C303.52 19.0206 301.684 17.2246 298.912 17.2246C296.764 17.2246 294.42 18.7086 293.484 20.4686V32.4606C293.484 33.2046 293.056 33.6726 291.764 33.6726C291.216 33.6726 290.592 33.5926 290.28 33.5166V14.7286C290.592 14.6486 291.216 14.5726 291.764 14.5726C293.052 14.5726 293.484 15.0406 293.484 15.7846V17.3846C294.852 15.7046 296.92 14.3766 299.696 14.3766C303.524 14.3766 306.728 16.7966 306.728 22.3446H306.724Z" fill="#002A91"/>
<path d="M311.144 10.4686C311.144 9.29658 312.08 8.43658 313.176 8.43658C314.348 8.43658 315.248 9.29658 315.248 10.4686C315.248 11.5246 314.348 12.5006 313.176 12.5006C312.084 12.5006 311.144 11.5246 311.144 10.4686ZM311.572 33.5166V15.7806C311.572 15.0366 312 14.5686 313.292 14.5686C313.84 14.5686 314.424 14.6486 314.736 14.7246V32.4606C314.736 33.2406 314.344 33.6726 313.056 33.6726C312.508 33.6726 311.884 33.5926 311.572 33.5166Z" fill="#002A91"/>
<path d="M318.816 32.5765C318.58 30.9365 319.088 30.0765 320.028 30.0765C320.968 30.0765 323.112 31.0525 326.16 31.0525C329.364 31.0525 330.576 29.9205 330.576 28.4365C330.576 27.3805 330.108 26.4445 327.216 25.6645L323.896 24.7645C320.224 23.7885 318.78 21.9525 318.78 19.6845C318.78 16.8725 321.008 14.3725 326.044 14.3725C328.308 14.3725 331.124 14.8805 332.84 15.5445C333.152 17.1445 332.644 18.0045 331.668 18.0045C330.808 18.0045 328.856 17.1845 326.084 17.1845C323.116 17.1845 322.02 18.2005 322.02 19.5285C322.02 20.4645 322.448 21.3245 325.104 22.0685L328.504 23.0045C332.292 24.0605 333.816 25.8165 333.816 28.3165C333.816 31.2445 331.552 33.8645 326.08 33.8645C323.66 33.8645 320.652 33.2805 318.816 32.5765Z" fill="#002A91"/>
</g>
</g>
<defs>
<linearGradient id="paint0_linear_1105_2166" x1="150.316" y1="-0.115387" x2="150.316" y2="47.8846" gradientUnits="userSpaceOnUse">
<stop offset="0.4" stop-color="#FF0000"/>
<stop offset="1" stop-color="#D42321"/>
</linearGradient>
<linearGradient id="paint1_linear_1105_2166" x1="150.572" y1="21.9606" x2="149.74" y2="-1.94339" gradientUnits="userSpaceOnUse">
<stop stop-color="white"/>
<stop offset="0.12" stop-color="white" stop-opacity="0.83"/>
<stop offset="0.27" stop-color="white" stop-opacity="0.66"/>
<stop offset="0.42" stop-color="white" stop-opacity="0.51"/>
<stop offset="0.57" stop-color="white" stop-opacity="0.4"/>
<stop offset="0.72" stop-color="white" stop-opacity="0.32"/>
<stop offset="0.86" stop-color="white" stop-opacity="0.27"/>
<stop offset="1" stop-color="white" stop-opacity="0.25"/>
</linearGradient>
<linearGradient id="paint2_linear_1105_2166" x1="34.74" y1="2.65656" x2="34.74" y2="45.1166" gradientUnits="userSpaceOnUse">
<stop stop-color="#002A91"/>
<stop offset="0.8" stop-color="#002672"/>
</linearGradient>
<linearGradient id="paint3_linear_1105_2166" x1="35.072" y1="25.153" x2="34.512" y2="9.07695" gradientUnits="userSpaceOnUse">
<stop stop-color="white"/>
<stop offset="0.12" stop-color="white" stop-opacity="0.83"/>
<stop offset="0.27" stop-color="white" stop-opacity="0.66"/>
<stop offset="0.42" stop-color="white" stop-opacity="0.51"/>
<stop offset="0.57" stop-color="white" stop-opacity="0.4"/>
<stop offset="0.72" stop-color="white" stop-opacity="0.32"/>
<stop offset="0.86" stop-color="white" stop-opacity="0.27"/>
<stop offset="1" stop-color="white" stop-opacity="0.25"/>
</linearGradient>
<clipPath id="clip0_1105_2166">
<rect width="343" height="48" fill="white"/>
</clipPath>
<clipPath id="clip1_1105_2166">
<rect width="343.385" height="48" fill="white"/>
</clipPath>
</defs>
</svg>
