<?xml version="1.0" encoding="utf-8"?>
<!-- Generator: Adobe Illustrator 23.0.1, SVG Export Plug-In . SVG Version: 6.00 Build 0)  -->
<!DOCTYPE svg PUBLIC "-//W3C//DTD SVG 1.1//EN" "http://www.w3.org/Graphics/SVG/1.1/DTD/svg11.dtd" [
	<!ENTITY ns_extend "http://ns.adobe.com/Extensibility/1.0/">
	<!ENTITY ns_ai "http://ns.adobe.com/AdobeIllustrator/10.0/">
	<!ENTITY ns_graphs "http://ns.adobe.com/Graphs/1.0/">
	<!ENTITY ns_vars "http://ns.adobe.com/Variables/1.0/">
	<!ENTITY ns_imrep "http://ns.adobe.com/ImageReplacement/1.0/">
	<!ENTITY ns_sfw "http://ns.adobe.com/SaveForWeb/1.0/">
	<!ENTITY ns_custom "http://ns.adobe.com/GenericCustomNamespace/1.0/">
	<!ENTITY ns_adobe_xpath "http://ns.adobe.com/XPath/1.0/">
]>
<svg version="1.1" id="Livello_1" xmlns:x="&ns_extend;" xmlns:i="&ns_ai;" xmlns:graph="&ns_graphs;"
	 xmlns="http://www.w3.org/2000/svg" xmlns:xlink="http://www.w3.org/1999/xlink" x="0px" y="0px" viewBox="0 0 2975.2 500"
	 enable-background="new 0 0 2975.2 500" xml:space="preserve">
<metadata>
	<sfw  xmlns="&ns_sfw;">
		<slices></slices>
		<sliceSourceBounds  bottomLeftOrigin="true" height="500" width="2975.2" x="-102.2" y="-1839.5"></sliceSourceBounds>
	</sfw>
</metadata>
<g>
	<g>
		<path fill="#002A91" d="M2941.9,0h-864.3c-18.4,0-33.3,14.9-33.3,33.3v433.3c0,18.4,14.9,33.3,33.3,33.3h864.3
			c18.4,0,33.3-14.9,33.3-33.3V33.3C2975.2,14.9,2960.3,0,2941.9,0 M2941.9,10c12.8,0,23.3,10.4,23.3,23.3v433.3
			c0,12.8-10.5,23.3-23.3,23.3h-864.3c-12.9,0-23.3-10.5-23.3-23.3V33.3c0-12.9,10.4-23.3,23.3-23.3H2941.9"/>
		<path fill="#FFFFFF" d="M2941.9,10c12.8,0,23.3,10.4,23.3,23.3v433.3c0,12.8-10.5,23.3-23.3,23.3h-864.3
			c-12.9,0-23.3-10.5-23.3-23.3V33.3c0-12.9,10.4-23.3,23.3-23.3H2941.9"/>
		<path fill="#20448B" d="M2467.1,435.3h-43.6V64.7h67.5l45.2,305.8c-6.7-72.7-15.6-190-15.6-251.8v-54h43.6v370.7h-61.8l-41.5-297
			c3.6,66.5,6.2,145.9,6.2,190.6V435.3z"/>
		<path fill="#20448B" d="M2639,274.4v114.2h8.3c15.6,0,20.2-8.8,20.2-26.5v-62.8c0-18.1-5.7-24.9-22.3-24.9H2639z M2639,111.4
			v122.5h6.2c17.6,0,22.3-6.7,22.3-27v-70.6c0-17.1-5.2-24.9-20.2-24.9H2639z M2589.1,435.3V64.7h61.8c41,0,66.5,22.3,66.5,74.2
			v54.5c0,33.7-10.4,50.9-24.9,59.7c14.5,9.4,24.9,26,24.9,54.5v54c0,50.9-27,73.7-66.5,73.7H2589.1z"/>
		<path fill="#20448B" d="M2781.6,323.7h26.5l-4.2-68c-1.6-27-5.7-112.7-8.8-158.9h-2.1l-7.3,158.9L2781.6,323.7z M2810.7,365.8
			h-31.2l-4.2,69.6H2725l36.4-370.7h70.6l35.3,370.7h-52.4L2810.7,365.8z"/>
		<path fill="#FFFFFF" d="M2337.1,55.1h-91.3c-22.3,0-40.3,18.1-40.3,40.3v309c0,22.3,18.1,40.4,40.3,40.4h91.2
			c22.3,0,40.4-18.1,40.4-40.4v-309C2377.4,73.2,2359.3,55.1,2337.1,55.1"/>
		<path fill="#C70726" d="M2314.4,126.6l0.1,1.3c2.8,1.6,4.2,2.9,7,4.7c7.4,4.7,16.6,13,15.4,41.7c2.1,6.2,3,18.6,4.9,22.5
			c3.9,7.7,6.5,12.7,7.6,19.9c0,0,1.1,11.3,2.6,12.1c7.7,1.8,5.4,2.5,6.6,3.8c1.2,1.5,5.6,1.5,5.6,5.6c1.5,2,2.7,4.2,3.6,6.4V95.5
			c0-17-13.8-30.8-30.8-30.8h-29.5c4.7,1.7,7.4,3.7,9,6.8c3.8,0.3,8.4,8.9,1.3,21.5c3.1,2.1,0.7,5.2-1.6,8.8c-0.6,1.2-1.4,3.2-3.5,3
			c-2.7,5.6-5.9,11.1-8.4,11.4c-0.7,0.9-1.2,3.3-0.1,4.5C2307.9,122.3,2312.3,124.6,2314.4,126.6"/>
		<path fill="#C70726" d="M2367.9,265c-4,10.2-13.9,17.3-25.6,17.3c-15.2,0-27.5-12.3-27.5-27.5c0-13,8.9-23.9,21-26.7
			c-3.1-7.9-9.8-20.8-11.8-25c-1.9-4.2-6.4-30.3-7.4-35.5c-0.2-1.2-11.9,6.7-11.9,7.2c-0.7,0.6-8.7,21.7-9,22.8
			c-0.2,0.7-0.2,3.5-0.2,3.5s3.9,0.5,6.2,7.4c2.3,6.9,9.1,32.1,9.1,32.1s-1.8,1.9-1.9,1.8c8.7,29.1,5.7,41.6,9.6,50.1
			c4.9,12,6.2,10.5,10.4,20.5c3,7.4,6.4,36.3,7.5,37.6c4.7,5.9,7.2,10.6,7.2,13.9s-4,13.3-2.5,19.2c0.9,3.4,1.3,11,3,12.5
			c0,0,1.4,2.9,0.7,4.2c-0.2,0.4-0.6,1.1-0.5,1.6c2.6,9.1,10.9,24.7-2.6,32.9h0.3c14.8-2.3,25.9-15,25.9-30.5V265z"/>
		<path fill="#20448B" d="M2333.1,398.6c-4.9-4.4-1.7-6.3-1.8-8c-3.3-13.5-14-21.7-8.4-26.1c-1.3-4.5-4.2-10.1-4.1-10
			c-16.7-9.6-30.9-25.2-33.3-27.5c-3-3.2-7.9-6.4-8.9-9c-4-3.7-23.7-31.6-28.3-41.9l-8-1.1c-3.6-14.9-15.8-27.3-16.1-42.2
			c-0.1-5.6,2.5-17.7,3.5-20.1c1-2.4,5.6-6.5,5.6-6.5v-4c-17.4,0.5-12.4-1.3-15.4-8.1c-2.1-4.7-0.6-5.7,0.2-9
			c2.3-9.6,10.1-24.4,13.3-31.2c1-3.4,4.3-11.6,4.3-11.6c13-26.5,17.9-24.5,33.3-26l0.8-1.1c15.5-0.6,12.9-1.8,15.1-16.7
			c-2.2,1-2.9-4.7-2.9-4.7c-1.2-8.5,2.4-6.9,4-7.1c0.4-13.9,1.8-18.3,11.9-22.2h-52.1c-17.1,0-30.9,13.8-30.9,30.8v309
			c0,17.1,13.8,30.9,30.9,30.9h91.2C2326.6,429.7,2332.8,419,2333.1,398.6"/>
	</g>
	<g>
		
			<linearGradient id="Plinth_1_" gradientUnits="userSpaceOnUse" x1="1456.6582" y1="198" x2="1456.6582" y2="698" gradientTransform="matrix(1 0 0 1 0 -198)">
			<stop  offset="0.4" style="stop-color:#FF0000"/>
			<stop  offset="1" style="stop-color:#D42321"/>
		</linearGradient>
		<path id="Plinth_2_" fill="url(#Plinth_1_)" d="M832.1,0h1249.2c18.4,0,33.3,14.9,33.3,33.3v433.4c0,18.4-14.9,33.3-33.3,33.3
			H832.1c-18.4,0-33.3-14.9-33.3-33.3V33.3C798.8,14.9,813.7,0,832.1,0z"/>
		
			<linearGradient id="p40_2_" gradientUnits="userSpaceOnUse" x1="1459.4656" y1="431.7283" x2="1450.7686" y2="182.6746" gradientTransform="matrix(1 0 0 1 0 -198)">
			<stop  offset="0" style="stop-color:#FFFFFF"/>
			<stop  offset="0.1203" style="stop-color:#FFFFFF;stop-opacity:0.8347"/>
			<stop  offset="0.2693" style="stop-color:#FFFFFF;stop-opacity:0.6576"/>
			<stop  offset="0.4195" style="stop-color:#FFFFFF;stop-opacity:0.5107"/>
			<stop  offset="0.5684" style="stop-color:#FFFFFF;stop-opacity:0.3965"/>
			<stop  offset="0.7156" style="stop-color:#FFFFFF;stop-opacity:0.3152"/>
			<stop  offset="0.8603" style="stop-color:#FFFFFF;stop-opacity:0.2664"/>
			<stop  offset="1" style="stop-color:#FFFFFF;stop-opacity:0.25"/>
		</linearGradient>
		<path id="p40_1_" opacity="0.4" fill="url(#p40_2_)" enable-background="new    " d="M822.8,248c0,0,1.1-0.1,3.2-0.2
			c98.6-3.5,1263.7-44.1,1263.7-44.1c13.9-0.1,25-11.5,24.9-25.3V33.3c0-18.4-14.9-33.3-33.3-33.3H832.1
			c-18.4,0-33.3,14.9-33.3,33.3V274C798.4,260.3,809.1,248.7,822.8,248z"/>
		
			<linearGradient id="Sky_Logo_1_" gradientUnits="userSpaceOnUse" x1="361.9225" y1="226.8058" x2="361.9225" y2="669.2197" gradientTransform="matrix(1 0 0 1 0 -198)">
			<stop  offset="0" style="stop-color:#002A91"/>
			<stop  offset="0.8" style="stop-color:#002672"/>
		</linearGradient>
		<path id="Sky_Logo_2_" fill="url(#Sky_Logo_1_)" d="M499.6,464.1c10.5,4.6,21.8,7.1,33.2,7.1c26.1,0.6,40.4-9.4,50.9-32.8
			l140.1-311.9c-9.1-4.1-19-6.4-29-6.7c-18.1-0.4-42.3,3.3-57.6,40.1l-45.3,106.8l-89-144.6c-9.8-2.6-19.9-4-30-4.2
			c-31.5,0-49,11.5-67.2,31.3l-86.5,94.4L388.7,353c12.9,19.9,29.8,30.1,57.3,30.1c13.7,0.2,27.3-2.3,40-7.5l-83.8-126l59.4-62.9
			L559,339.4L499.6,464.1z M315.9,346.2c0,23-9,36.2-54,36.2c-5.4,0-10.8-0.4-16.1-1.1V76.2c0-23.2,7.9-47.4,53.2-47.4
			c5.7,0,11.4,0.6,16.9,1.7V346.2z M223.1,300.1c0,43-28.1,74.2-85.1,80.4c-41.3,4.4-101.1-0.8-129.5-4c-1-4.9-1.6-9.9-1.7-15
			c0-37.4,20.2-46,39.2-46c19.8,0,50.9,3.5,74,3.5c25.5,0,33.2-8.6,33.2-16.9c0-10.7-10.2-15.2-30-19L69,272.7
			c-45-8.6-69-39.7-69-72.7c0-40.1,28.4-73.6,84.3-79.8c42.3-4.6,93.8,0.6,122,4c1,4.7,1.5,9.5,1.5,14.4c0,37.4-19.8,45.5-38.8,45.5
			c-14.6,0-37.3-2.7-63.2-2.7c-26.3,0-37.3,7.3-37.3,16.1c0,9.4,10.4,13.2,26.9,16.1l51.7,9.6C200.2,232.9,223.1,263.1,223.1,300.1z
			"/>
		
			<linearGradient id="s25_2_" gradientUnits="userSpaceOnUse" x1="365.4495" y1="461.2478" x2="359.6001" y2="293.7514" gradientTransform="matrix(1 0 0 1 0 -198)">
			<stop  offset="0" style="stop-color:#FFFFFF"/>
			<stop  offset="0.1203" style="stop-color:#FFFFFF;stop-opacity:0.8347"/>
			<stop  offset="0.2693" style="stop-color:#FFFFFF;stop-opacity:0.6576"/>
			<stop  offset="0.4195" style="stop-color:#FFFFFF;stop-opacity:0.5107"/>
			<stop  offset="0.5684" style="stop-color:#FFFFFF;stop-opacity:0.3965"/>
			<stop  offset="0.7156" style="stop-color:#FFFFFF;stop-opacity:0.3152"/>
			<stop  offset="0.8603" style="stop-color:#FFFFFF;stop-opacity:0.2664"/>
			<stop  offset="1" style="stop-color:#FFFFFF;stop-opacity:0.25"/>
		</linearGradient>
		<path id="s25_1_" opacity="0.25" fill="url(#s25_2_)" enable-background="new    " d="M723.9,126.5l-51.3,114.2
			c-4,8.2-12.3,13.4-21.4,13.4l-46.8,1.6c-5.1,0.3-9.6,3.7-11.4,8.5v-0.1l44.2-104.2c15.4-36.8,39.6-40.5,57.6-40.1
			C704.9,120.1,714.7,122.4,723.9,126.5z M589.5,263l-86.6-140.8c-9.8-2.6-19.9-4-30-4.2c-31.5,0-49,11.5-67.2,31.3l-86.5,94.4
			l6.9,10.9c4.5,6.8,12.3,10.7,20.5,10.3c4.1-0.1,45.9-1.6,49.3-1.7c8.5-0.7,16.7,3,21.8,9.8l0,0l-15.5-23.3l59.4-62.9l39.9,62.5
			l0,0c4.9,6.2,12.5,9.7,20.4,9.5c2.1-0.1,54.3-1.9,56.7-2C583,256.8,587.2,259.2,589.5,263L589.5,263z M299,28.9
			c-45.3,0-53.2,24.2-53.2,47.4v209c0-9.6,7.7-17.4,17.3-17.7l35.1-1.2c9.8,0,17.8-8,17.8-17.8l0,0v-218
			C310.3,29.4,304.7,28.8,299,28.9z M147.2,223.1l-51.7-9.6c-16.5-2.9-26.9-6.7-26.9-16.1c0-8.8,11-16.1,37.3-16.1
			c25.9,0,48.6,2.7,63.2,2.7c19,0,38.8-8.1,38.8-45.5c0-4.8-0.5-9.7-1.5-14.4c-28.2-3.5-79.7-8.6-122-4C28.4,126.3,0,159.9,0,199.9
			c0.1,21.4,10.2,41.6,27.3,54.5c12.6,7.8,26.8,12.9,41.5,14.8c19.2,2.6,38.5,3.6,57.8,3c6.1-0.2,51.7-1.8,61.7-2.2
			c23.1-0.8,35.7,18.9,34.4,38.7c0-0.3,0-0.5,0.1-0.8v-0.2c0.2-2.6,0.3-5.2,0.3-7.8C223.1,263.1,200.2,232.9,147.2,223.1z"/>
		<path fill="#FFFFFF" d="M894.4,359.3c-3-20.6,3.4-31.4,15.2-31.4c11.2,0,38.7,12.3,77,12.3c40.3,0,55.5-14.3,55.5-32.9
			c0-13.2-5.9-25-42.2-34.9l-41.7-11.2c-46.1-12.3-64.3-35.4-64.3-63.9c0-35.3,28-66.8,91.3-66.8c28.5,0,63.9,6.4,85.4,14.8
			c3.9,20.1-2.5,30.9-14.7,30.9c-10.8,0-35.3-10.3-70.2-10.3c-37.3,0-51.1,12.7-51.1,29.4c0,11.7,5.4,22.6,38.8,31.9l42.7,11.8
			c47.7,13.2,66.8,35.3,66.8,66.7c0,36.9-28.5,69.7-97.2,69.7C955.3,375.5,917.4,368.1,894.4,359.3"/>
		<path fill="#FFFFFF" d="M1365.6,252.8c0,77-54,122.7-113.4,122.7c-35.3,0-64.3-16.7-81.5-40.2v99.2c0,9.3-5.4,15.2-21.1,15.2
			c-7.9,0-15.2-1-19.1-1.9V135c3.9-1,11.2-2,19.1-2c15.7,0,21.1,5.9,21.1,15.2v22.5c17.2-23.5,46.2-40.2,81.5-40.2
			C1311.6,130.5,1365.6,176.2,1365.6,252.8 M1324.9,252.8c0-51.5-34.3-86.9-80.5-86.9c-31.4,0-60.4,18.2-73.6,44.7v84.9
			c13.2,26.5,42.2,44.7,73.6,44.7C1290.5,340.1,1324.9,304.8,1324.9,252.8"/>
		<path fill="#FFFFFF" d="M1403.3,252.8c0-70.2,51.5-122.2,120.7-122.2c69.7,0,121.2,52,121.2,122.2c0,69.7-51.5,122.7-121.2,122.7
			C1454.8,375.4,1403.3,322.4,1403.3,252.8 M1604.5,252.8c0-54-36.4-86.9-80.5-86.9c-43.6,0-80,32.9-80,86.9
			c0,53.5,36.4,87.3,80,87.3C1568.1,340.1,1604.5,306.3,1604.5,252.8"/>
		<path fill="#FFFFFF" d="M1839.8,152.6c0,16.2-6.8,19.6-23.6,19.6c-33.8,0-62.3,15.7-80,52.5v133.1c0,9.8-5.4,15.2-21.6,15.2
			c-6.9,0-14.8-1-18.7-1.9V134.9c3.9-1,11.7-1.9,18.7-1.9c16.1,0,21.6,5.9,21.6,15.2v32.9c23-34.9,57.9-52.5,101.6-46.6
			C1838.3,137.9,1839.8,145.3,1839.8,152.6"/>
		<path fill="#FFFFFF" d="M2016.3,359.3c-20.6,9.8-44.2,16.2-67.7,16.2c-46.6,0-74.6-27.5-74.6-73.1V99.7c0-10.3,5.9-17.2,21.6-17.2
			c6.8,0,14.7,1.4,18.7,2.5v51h91.7c0.5,3.4,1.5,10.3,1.5,16.2c0,14.2-5.9,19.1-14.7,19.1h-78.5v128.2c0,27.4,12.7,40.7,38.7,40.7
			c23.6,0,36.8-10.3,48.1-10.3C2012.9,329.8,2018.8,339.6,2016.3,359.3"/>
	</g>
</g>
</svg>
