<?xml version="1.0" encoding="utf-8"?>
<!-- Generator: Adobe Illustrator 23.0.1, SVG Export Plug-In . SVG Version: 6.00 Build 0)  -->
<!DOCTYPE svg PUBLIC "-//W3C//DTD SVG 1.1//EN" "http://www.w3.org/Graphics/SVG/1.1/DTD/svg11.dtd" [
	<!ENTITY ns_extend "http://ns.adobe.com/Extensibility/1.0/">
	<!ENTITY ns_ai "http://ns.adobe.com/AdobeIllustrator/10.0/">
	<!ENTITY ns_graphs "http://ns.adobe.com/Graphs/1.0/">
	<!ENTITY ns_vars "http://ns.adobe.com/Variables/1.0/">
	<!ENTITY ns_imrep "http://ns.adobe.com/ImageReplacement/1.0/">
	<!ENTITY ns_sfw "http://ns.adobe.com/SaveForWeb/1.0/">
	<!ENTITY ns_custom "http://ns.adobe.com/GenericCustomNamespace/1.0/">
	<!ENTITY ns_adobe_xpath "http://ns.adobe.com/XPath/1.0/">
]>
<svg version="1.1" id="Livello_1" xmlns:x="&ns_extend;" xmlns:i="&ns_ai;" xmlns:graph="&ns_graphs;"
	 xmlns="http://www.w3.org/2000/svg" xmlns:xlink="http://www.w3.org/1999/xlink" x="0px" y="0px" viewBox="0 0 2115.3 500"
	 enable-background="new 0 0 2115.3 500" xml:space="preserve">
<metadata>
	<sfw  xmlns="&ns_sfw;">
		<slices></slices>
		<sliceSourceBounds  bottomLeftOrigin="true" height="500" width="2115.3" x="373.8" y="-1886"></sliceSourceBounds>
	</sfw>
</metadata>
<g>
	
		<linearGradient id="Plinth_1_" gradientUnits="userSpaceOnUse" x1="1456.9916" y1="198" x2="1456.9916" y2="698" gradientTransform="matrix(1 0 0 1 0 -198)">
		<stop  offset="0.4" style="stop-color:#FF0000"/>
		<stop  offset="1" style="stop-color:#D42321"/>
	</linearGradient>
	<path id="Plinth" fill="url(#Plinth_1_)" d="M832.1,0h1249.8c18.4,0,33.3,14.9,33.3,33.3v433.4c0,18.4-14.9,33.3-33.3,33.3H832.1
		c-18.4,0-33.3-14.9-33.3-33.3V33.3C798.8,14.9,813.7,0,832.1,0z"/>
	
		<linearGradient id="p40_1_" gradientUnits="userSpaceOnUse" x1="1459.8484" y1="431.8149" x2="1451.1514" y2="182.7613" gradientTransform="matrix(1 0 0 1 0 -198)">
		<stop  offset="0" style="stop-color:#FFFFFF"/>
		<stop  offset="0.1203" style="stop-color:#FFFFFF;stop-opacity:0.8347"/>
		<stop  offset="0.2693" style="stop-color:#FFFFFF;stop-opacity:0.6576"/>
		<stop  offset="0.4195" style="stop-color:#FFFFFF;stop-opacity:0.5107"/>
		<stop  offset="0.5684" style="stop-color:#FFFFFF;stop-opacity:0.3965"/>
		<stop  offset="0.7156" style="stop-color:#FFFFFF;stop-opacity:0.3152"/>
		<stop  offset="0.8603" style="stop-color:#FFFFFF;stop-opacity:0.2664"/>
		<stop  offset="1" style="stop-color:#FFFFFF;stop-opacity:0.25"/>
	</linearGradient>
	<path id="p40" opacity="0.4" fill="url(#p40_1_)" enable-background="new    " d="M822.8,248.1c0,0,1.1-0.1,3.2-0.2
		c98.6-3.5,1264.5-44.1,1264.5-44.1c13.9-0.1,25-11.5,24.9-25.3V33.4c0-18.4-14.9-33.3-33.3-33.3H832.1c-18.4,0-33.3,14.9-33.3,33.3
		v240.6C798.4,260.4,809.1,248.8,822.8,248.1z"/>
	
		<linearGradient id="Sky_Logo_1_" gradientUnits="userSpaceOnUse" x1="361.9225" y1="226.8058" x2="361.9225" y2="669.2197" gradientTransform="matrix(1 0 0 1 0 -198)">
		<stop  offset="0" style="stop-color:#002A91"/>
		<stop  offset="0.8" style="stop-color:#002672"/>
	</linearGradient>
	<path id="Sky_Logo" fill="url(#Sky_Logo_1_)" d="M499.6,464.1c10.5,4.6,21.8,7.1,33.2,7.1c26.1,0.6,40.4-9.4,50.9-32.8l140.1-311.9
		c-9.1-4.1-19-6.4-29-6.7c-18.1-0.4-42.3,3.3-57.6,40.1l-45.3,106.8l-89-144.6c-9.8-2.6-19.9-4-30-4.2c-31.5,0-49,11.5-67.2,31.3
		l-86.5,94.4L388.7,353c12.9,19.9,29.8,30.1,57.3,30.1c13.7,0.2,27.3-2.3,40-7.5l-83.8-126l59.4-62.9L559,339.4L499.6,464.1z
		 M315.9,346.2c0,23-9,36.2-54,36.2c-5.4,0-10.8-0.4-16.1-1.1V76.2c0-23.2,7.9-47.4,53.2-47.4c5.7,0,11.4,0.6,16.9,1.7V346.2z
		 M223.1,300.1c0,43-28.1,74.2-85.1,80.4c-41.3,4.4-101.1-0.8-129.5-4c-1-4.9-1.6-9.9-1.7-15c0-37.4,20.2-46,39.2-46
		c19.8,0,50.9,3.5,74,3.5c25.5,0,33.2-8.6,33.2-16.9c0-10.7-10.2-15.2-30-19L69,272.7c-45-8.6-69-39.7-69-72.7
		c0-40.1,28.4-73.6,84.3-79.8c42.3-4.6,93.8,0.6,122,4c1,4.7,1.5,9.5,1.5,14.4c0,37.4-19.8,45.5-38.8,45.5
		c-14.6,0-37.3-2.7-63.2-2.7c-26.3,0-37.3,7.3-37.3,16.1c0,9.4,10.4,13.2,26.9,16.1l51.7,9.6C200.2,232.9,223.1,263.1,223.1,300.1z"
		/>
	
		<linearGradient id="s25_1_" gradientUnits="userSpaceOnUse" x1="365.4495" y1="461.2478" x2="359.6001" y2="293.7514" gradientTransform="matrix(1 0 0 1 0 -198)">
		<stop  offset="0" style="stop-color:#FFFFFF"/>
		<stop  offset="0.1203" style="stop-color:#FFFFFF;stop-opacity:0.8347"/>
		<stop  offset="0.2693" style="stop-color:#FFFFFF;stop-opacity:0.6576"/>
		<stop  offset="0.4195" style="stop-color:#FFFFFF;stop-opacity:0.5107"/>
		<stop  offset="0.5684" style="stop-color:#FFFFFF;stop-opacity:0.3965"/>
		<stop  offset="0.7156" style="stop-color:#FFFFFF;stop-opacity:0.3152"/>
		<stop  offset="0.8603" style="stop-color:#FFFFFF;stop-opacity:0.2664"/>
		<stop  offset="1" style="stop-color:#FFFFFF;stop-opacity:0.25"/>
	</linearGradient>
	<path id="s25" opacity="0.25" fill="url(#s25_1_)" enable-background="new    " d="M723.9,126.5l-51.3,114.2
		c-4,8.2-12.3,13.4-21.4,13.4l-46.8,1.6c-5.1,0.3-9.6,3.7-11.4,8.5v-0.1l44.2-104.2c15.4-36.8,39.6-40.5,57.6-40.1
		C704.9,120.1,714.7,122.4,723.9,126.5z M589.5,263l-86.6-140.8c-9.8-2.6-19.9-4-30-4.2c-31.5,0-49,11.5-67.2,31.3l-86.5,94.4
		l6.9,10.9c4.5,6.8,12.3,10.7,20.5,10.3c4.1-0.1,45.9-1.6,49.3-1.7c8.5-0.7,16.7,3,21.8,9.8l0,0l-15.5-23.3l59.4-62.9l39.9,62.5l0,0
		c4.9,6.2,12.5,9.7,20.4,9.5c2.1-0.1,54.3-1.9,56.7-2C583,256.8,587.2,259.2,589.5,263L589.5,263z M299,28.9
		c-45.3,0-53.2,24.2-53.2,47.4v209c0-9.6,7.7-17.4,17.3-17.7l35.1-1.2c9.8,0,17.8-8,17.8-17.8l0,0v-218
		C310.3,29.4,304.7,28.8,299,28.9z M147.2,223.1l-51.7-9.6c-16.5-2.9-26.9-6.7-26.9-16.1c0-8.8,11-16.1,37.3-16.1
		c25.9,0,48.6,2.7,63.2,2.7c19,0,38.8-8.1,38.8-45.5c0-4.8-0.5-9.7-1.5-14.4c-28.2-3.5-79.7-8.6-122-4C28.4,126.3,0,159.9,0,199.9
		c0.1,21.4,10.2,41.6,27.3,54.5c12.6,7.8,26.8,12.9,41.5,14.8c19.2,2.6,38.5,3.6,57.8,3c6.1-0.2,51.7-1.8,61.7-2.2
		c23.1-0.8,35.7,18.9,34.4,38.7c0-0.3,0-0.5,0.1-0.8v-0.2c0.2-2.6,0.3-5.2,0.3-7.8C223.1,263.1,200.2,232.9,147.2,223.1z"/>
	<path fill="#FFFFFF" d="M894.7,359.3c-2.9-20.6,3.4-31.4,15.2-31.4c11.3,0,38.8,12.3,77.1,12.3c40.3,0,55.5-14.2,55.5-32.9
		c0-13.3-5.9-25-42.2-34.8l-41.7-11.3c-46.1-12.3-64.3-35.3-64.3-63.8c0-35.3,28-66.8,91.3-66.8c29.1,0.2,57.9,5.2,85.4,14.7
		c3.9,20.1-2.5,30.9-14.7,30.9c-10.8,0-35.3-10.3-70.2-10.3c-37.3,0-51,12.8-51,29.4c0,11.8,5.4,22.6,38.8,31.9l42.7,11.8
		c47.6,13.3,66.8,35.3,66.8,66.8c0,36.8-28.5,69.7-97.2,69.7C954.9,375.1,924,369.6,894.7,359.3z"/>
	<path fill="#FFFFFF" d="M1366,252.8c0,77.1-54,122.7-113.4,122.7c-32.1,0.5-62.4-14.5-81.5-40.2v99.1c0,9.3-5.4,15.2-21.1,15.2
		c-6.4,0-12.9-0.6-19.1-2V134.9c6.3-1.4,12.7-2,19.1-2c15.7,0,21.1,5.9,21.1,15.2v22.6c19.1-25.7,49.4-40.7,81.5-40.2
		C1312,130.5,1366,176.2,1366,252.8z M1325.3,252.8c0-51.5-34.4-86.9-80.5-86.9c-30.9,0-59.3,17.2-73.6,44.7v84.9
		c14.3,27.4,42.7,44.7,73.6,44.7C1290.9,340.2,1325.3,304.9,1325.3,252.8L1325.3,252.8z"/>
	<path fill="#FFFFFF" d="M1403.7,252.8c0-70.2,51.5-122.2,120.7-122.2c69.7,0,121.2,52,121.2,122.2c0,69.7-51.5,122.7-121.2,122.7
		C1455.3,375.5,1403.7,322.5,1403.7,252.8z M1605,252.8c0-54-36.3-86.9-80.5-86.9c-43.7,0-80,32.9-80,86.9c0,53.5,36.3,87.4,80,87.4
		C1568.6,340.2,1605,306.3,1605,252.8L1605,252.8z"/>
	<path fill="#FFFFFF" d="M1840.4,152.6c0,16.2-6.9,19.6-23.6,19.6c-33.9,0-62.3,15.7-80,52.5v133c0,9.8-5.4,15.2-21.6,15.2
		c-6.3,0-12.5-0.7-18.7-2v-236c6.1-1.3,12.4-2,18.7-2c16.2,0,21.6,5.9,21.6,15.2V181c23.1-34.8,57.9-52.5,101.6-46.6
		C1839.6,140.4,1840.2,146.5,1840.4,152.6z"/>
	<path fill="#FFFFFF" d="M2016.9,359.3c-21.1,10.3-44.2,15.8-67.7,16.2c-46.6,0-74.6-27.5-74.6-73.1V99.6c0-10.3,5.9-17.2,21.6-17.2
		c6.3,0.1,12.5,1,18.7,2.5v51h91.8c0.8,5.4,1.3,10.8,1.5,16.2c0,14.2-5.9,19.1-14.7,19.1H1915v128.1c0,27.5,12.8,40.7,38.8,40.7
		c23.6,0,36.8-10.3,48.1-10.3C2013.5,329.9,2019.4,339.7,2016.9,359.3z"/>
</g>
</svg>
