<?xml version="1.0" encoding="UTF-8" standalone="no"?><svg version="1.1" id="svg2" x="0" y="0" viewBox="0 0 138.15034 105.01537" xml:space="preserve" xmlns:xlink="http://www.w3.org/1999/xlink" xmlns="http://www.w3.org/2000/svg" xmlns:svg="http://www.w3.org/2000/svg"><defs id="defs1"><linearGradient id="linearGradient19"><stop offset="0" id="stop8" stop-color="#fff"/><stop offset=".22096851" id="stop9" stop-color="#fff"/><stop offset=".52307159" id="stop10" stop-color="#f8f8f8"/><stop offset=".87809658" id="stop14" stop-color="#9b9b9b"/><stop offset="1" id="stop19" stop-color="#9d9d9d"/></linearGradient><linearGradient id="linearGradient76"><stop offset="0" id="stop71" stop-color="#1f91fd"/><stop offset=".5" id="stop72" stop-color="#0940ba"/><stop offset=".62500232" id="stop73" stop-color="#032ca9"/><stop offset=".6961686" id="stop74" stop-color="#00209f"/><stop offset=".75000465" id="stop75" stop-color="#042eab"/><stop offset=".87500232" id="stop77" stop-color="#0d4fc7"/><stop offset="1" id="stop76" stop-color="#166fe1"/></linearGradient><linearGradient id="linearGradient65"><stop offset="0" id="stop65" stop-color="#0c4dc5"/><stop offset="1" id="stop66" stop-color="#1c83f2"/></linearGradient><linearGradient id="linearGradient51"><stop offset="0" id="stop51" stop-color="#1f91fd"/><stop offset=".5" id="stop53" stop-color="#0940ba"/><stop offset=".62500232" id="stop55" stop-color="#032ca9"/><stop offset=".6961686" id="stop56" stop-color="#00209f"/><stop offset=".75000465" id="stop54" stop-color="#042eab"/><stop offset="1" id="stop52" stop-color="#156ddf"/></linearGradient><linearGradient xlink:href="#linearGradient76" id="linearGradient52" x1="93.800278" y1="-.31999999" x2="93.800278" y2="104.29406" gradientUnits="userSpaceOnUse" gradientTransform="translate(-.94928193 .720574)"/><linearGradient xlink:href="#linearGradient51" id="linearGradient56" gradientUnits="userSpaceOnUse" x1="23.126345" y1="30.614485" x2="23.126345" y2="81.630173" gradientTransform="translate(-.94928193 .720574)"/><linearGradient xlink:href="#linearGradient51" id="linearGradient70" gradientUnits="userSpaceOnUse" gradientTransform="translate(-.94928193 .320001)" x1="93.800278" y1="-.31999999" x2="93.800278" y2="104.29406"/><linearGradient xlink:href="#linearGradient113" id="linearGradient9" x1="59.007874" y1="5.5178375" x2="117.02616" y2="38.331909" gradientUnits="userSpaceOnUse" gradientTransform="translate(-1.1474407 .73000563)"/><linearGradient id="linearGradient113"><stop offset="0" id="stop108" stop-color="#00abe5" stop-opacity=".97647059"/><stop offset=".26175213" id="stop109" stop-color="#04bcec" stop-opacity=".97647059"/><stop offset=".43435532" id="stop120" stop-color="#03c8f5" stop-opacity=".99215686"/><stop offset=".60695851" id="stop110" stop-color="#00d9ff"/><stop offset=".75303328" id="stop111" stop-color="#06e2fe"/><stop offset=".82076138" id="stop112" stop-color="#07e7fd"/><stop offset="1" id="stop113" stop-color="#38f5ff" stop-opacity=".98039216"/></linearGradient><linearGradient id="linearGradient119"><stop offset="0" id="stop114" stop-color="#fff"/><stop offset=".24666904" id="stop115" stop-color="#fff"/><stop offset=".41658834" id="stop116" stop-color="#e0e0e0"/><stop offset=".58935368" id="stop117" stop-color="#c7c7c7"/><stop offset=".79965663" id="stop118" stop-color="#ababab"/><stop offset="1" id="stop119" stop-color="#9d9d9d"/></linearGradient><linearGradient xlink:href="#linearGradient154" id="linearGradient149" x1="47.551666" y1=".000001" x2="47.552128" y2="105.06063" gradientUnits="userSpaceOnUse"/><linearGradient id="linearGradient154"><stop offset="0" id="stop149" stop-color="#00abe5" stop-opacity=".97647059"/><stop offset=".24666904" id="stop150" stop-color="#00bcf5" stop-opacity=".97647059"/><stop offset=".41658834" id="stop151" stop-color="#03d1f6" stop-opacity=".98039216"/><stop offset=".58592498" id="stop152" stop-color="#11e7fd" stop-opacity=".94999999"/><stop offset=".79965663" id="stop153" stop-color="#01f4fd" stop-opacity=".87843138"/><stop offset=".89982831" id="stop178" stop-color="#00fbfe" stop-opacity=".83529413"/><stop offset="1" id="stop154" stop-color="#00fbfe" stop-opacity=".83137256"/></linearGradient><linearGradient xlink:href="#linearGradient95" id="linearGradient75" gradientUnits="userSpaceOnUse" gradientTransform="translate(-1.1474407 .73000563)" x1="18.902607" y1="-17.317902" x2="135.1467" y2="49.291424"/><linearGradient id="linearGradient95"><stop offset="0" id="stop90" stop-color="#42c8f4"/><stop offset=".26175213" id="stop91" stop-color="#00a8f2"/><stop offset=".49422449" id="stop92" stop-color="#07bdf1"/><stop offset=".59874481" id="stop93" stop-color="#03cef4"/><stop offset=".76977241" id="stop94" stop-color="#10ebff"/><stop offset=".88488621" id="stop4" stop-color="#5cf2ff"/><stop offset="1" id="stop95" stop-color="#6df8ff"/></linearGradient><linearGradient id="linearGradient107"><stop offset="0" id="stop137" stop-color="#fff"/><stop offset=".24666904" id="stop138" stop-color="#f0f0f0"/><stop offset=".41658834" id="stop139" stop-color="#f2f2f2"/><stop offset=".58592498" id="stop140" stop-color="#ccc"/><stop offset=".79965663" id="stop141" stop-color="#ababab"/><stop offset="1" id="stop142" stop-color="#9d9d9d"/></linearGradient><radialGradient xlink:href="#linearGradient65" id="radialGradient66" cx="72.341255" cy="19.075258" fx="72.341255" fy="19.075258" r="45.299339" gradientTransform="matrix(1.7320611 .01506965 -.00701293 .80540788 -38.677293 -2.3946121)" gradientUnits="userSpaceOnUse"/><radialGradient xlink:href="#linearGradient65" id="radialGradient67" gradientUnits="userSpaceOnUse" gradientTransform="matrix(1.7320611 -.01506965 -.00701293 -.80540788 -38.676408 107.20875)" cx="72.341255" cy="19.075258" fx="72.341255" fy="19.075258" r="45.299339"/><radialGradient xlink:href="#linearGradient65" id="radialGradient68" gradientUnits="userSpaceOnUse" gradientTransform="matrix(1.7320611 .01506965 -.00701293 .80540788 -38.677293 -2.3946121)" cx="72.341255" cy="19.075258" fx="72.341255" fy="19.075258" r="45.299339"/><radialGradient xlink:href="#linearGradient119" id="radialGradient22" gradientUnits="userSpaceOnUse" gradientTransform="matrix(.0566132 -.09994899 1.6954581 .96034276 42.768017 9.7241055)" cx="83.519714" cy="26.196804" fx="83.519714" fy="26.196804" r="45.299778"/><radialGradient xlink:href="#linearGradient107" id="radialGradient23" gradientUnits="userSpaceOnUse" gradientTransform="matrix(.05651476 -.10000467 2.2912322 1.2948239 27.16886 .96642131)" cx="83.519714" cy="26.196804" fx="83.519714" fy="26.196804" r="45.299778"/><radialGradient xlink:href="#linearGradient19" id="radialGradient24" gradientUnits="userSpaceOnUse" gradientTransform="matrix(-.09744669 -.00115405 -.01359898 1.268477 56.607286 17.319073)" cx="83.434471" cy="28.374788" fx="83.434471" fy="28.374788" r="45.299778"/><filter id="filter66" x="-.00683776" y="-.01184359" width="1.0136755" height="1.0236872" color-interpolation-filters="sRGB"><feGaussianBlur stdDeviation=".25812441" id="feGaussianBlur66"/></filter><filter id="filter20" x="-.01805359" y="-.03238278" width="1.0361072" height="1.0647656" color-interpolation-filters="sRGB"><feGaussianBlur stdDeviation=".70147459" id="feGaussianBlur20"/></filter><filter id="filter154" x="-.07399323" y="-.01092319" width="1.1479865" height="1.0218464" color-interpolation-filters="sRGB"><feGaussianBlur stdDeviation=".53395233" id="feGaussianBlur154"/></filter><mask maskUnits="userSpaceOnUse" id="mask21"><path d="M135.24342 50.596368s-14.79016-14.544784-39.33804-28.720077C71.357512 7.7052871 51.215021 2.0831468 51.215021 2.0831468L135.24342 50.596368" id="path22" fill="url(#radialGradient22)" stroke-width=".999999"/></mask><mask maskUnits="userSpaceOnUse" id="mask22"><path d="M135.24342 50.596368s-14.79016-14.544784-39.33804-28.720077C71.357512 7.7052872 51.215021 2.083142 51.215021 2.083142l84.028399 48.513226" id="path23" fill="url(#radialGradient23)" stroke-width=".999999"/></mask><mask maskUnits="userSpaceOnUse" id="mask23"><path d="M47.247934 104.21446s-1.727165-7.008922-3.236707-20.06846c-1.060044-9.170778-.941566-23.048875-.942241-32.14645.000492-9.935403.879625-25.068827 1.688993-33.673553C46.215447 2.8310425 47.248461-.40057278 47.248461-.40057278L47.247934 104.21446" id="path24" fill="url(#radialGradient24)"/></mask><clipPath clipPathUnits="userSpaceOnUse" id="clipPath69"><path d="M47.551666.000001v38.540377h4.416876l-.005852-8.447473h7.797818l.001951 8.447473h14.653342L89.95681 64.212502l15.16839-25.672124h9.18297Zm67.031584 38.700353L95.73933 70.000875s-.529166.876507-.961803 1.379298c-1.327127 1.360738-3.096263 2.23185-5.031416 2.23185h-.003901c-1.845989 0-3.538451-.795897-4.853883-2.066021-.35224-.355169-1.092514-1.486599-1.092514-1.486599L69.497538 46.351852H59.76441s.006346 16.144343.007803 16.1575c.040932 1.471824 1.24044 2.635689 2.71958 2.635689h9.448293v7.827081h-9.448293c-5.782059 0-10.475492-4.647539-10.513496-10.417899l-.003901-16.202371h-4.42273v58.262208l90.598664-52.306057Z" id="path70" fill="url(#linearGradient70)"/></clipPath></defs><path d="M47.551666.400574v38.540377h4.416876l-.005852-8.447473h7.797818l.001951 8.447473h14.653342L89.95681 64.613075l15.16839-25.672124h9.18297Zm67.031584 38.700353L95.73933 70.401448s-.529166.876507-.961803 1.379298c-1.327127 1.360738-3.096263 2.23185-5.031416 2.23185h-.003901c-1.845989 0-3.538451-.795897-4.853883-2.066021-.35224-.355169-1.092514-1.486599-1.092514-1.486599L69.497538 46.752425H59.76441s.006346 16.144343.007803 16.1575c.040932 1.471824 1.24044 2.635689 2.71958 2.635689h9.448293v7.827081h-9.448293c-5.782059 0-10.475492-4.647539-10.513496-10.417899l-.003901-16.202371h-4.42273v58.262205l90.598664-52.306054Z" id="path6" fill="url(#linearGradient52)"/><g id="g69" clip-path="url(#clipPath69)" transform="translate(0 .400573)"><path d="M47.550781 0s15.90044 11.873316 44 28.068359c28.099559 16.195045 46.599609 24.238282 46.599609 24.238282L92.635443 25.291873Z" id="path66" fill="url(#radialGradient66)" filter="url(#filter66)"/><path d="M47.551666 104.81414s15.900439-11.873316 43.999999-28.068359c28.099555-16.195045 46.599605-24.238282 46.599605-24.238282L93.742144 78.723936Z" id="path67" fill="url(#radialGradient67)" filter="url(#filter66)"/><path d="M47.550781 0s15.950283 11.786985 44.049843 27.982028c28.099556 16.195045 46.549766 24.324613 46.549766 24.324613L92.547127 25.470375Z" id="path68" transform="scale(-1 1) rotate(60 -.00049695 -82.36122927)" fill="url(#radialGradient68)" filter="url(#filter66)"/></g><g id="g178"><path d="M139.65564 52.718711s-7.4196-5.265583-16.30344-12.169272c-7.13516-5.544769-16.97499-11.670912-28.764123-18.478604C61.682312 3.0726828 46.403342.73000563 46.403342.73000563L81.798922 42.311986" id="path5" transform="translate(-7.6693344 -1.8454794) scale(1.0782016)" mask="url(#mask21)" fill="url(#linearGradient9)" stroke-width=".927468" filter="url(#filter20)"/><path d="M60.83774 47.370539 47.964781-9.8320496S43.520115 18.323866 43.518782 51.27497c.000889 14.678135.21629 25.286454 1.244898 34.938098 1.280706 12.017074 1.213418 21.272772 1.213418 21.272772l3.411193-.44471 7.744835-43.10492Z" id="path133" mask="url(#mask23)" transform="matrix(.97957956 0 0 1 1.2685019 .40057278)" fill="url(#linearGradient149)" stroke-width="1.01037" filter="url(#filter154)"/><path d="M139.65564 52.718711s-6.86969-4.447645-15.75353-11.351334c-7.13516-5.544769-17.5249-12.48885-29.314033-19.296542C64.318984 4.5970794 46.403342.73000563 46.403342.73000563L81.798922 42.311986" id="path75" transform="matrix(1.0782016 0 0 -1.0782016 -7.6693344 107.26142)" mask="url(#mask22)" fill="url(#linearGradient75)" stroke-width=".927468" filter="url(#filter20)"/></g><path d="M10.536906 38.91754C4.7168511 38.91754 0 43.617318 0 49.438839c0 5.82152 4.7168511 10.519347 10.536906 10.519347h22.985711c1.433819 0 2.748843 1.293166 2.748843 2.813223 0 1.521515-1.239032 2.766401-2.760548 2.766401H.84669827v7.807573H33.508961c5.822981 0 10.544709-4.777317 10.544709-10.597384 0-5.821509-4.719785-10.599336-10.542758-10.599335H10.536906c-1.5200536 0-2.7507939-1.189766-2.7507939-2.709825 0-1.521517 1.2307403-2.709825 2.7507939-2.709825H42.92604V38.91754Z" id="path7" fill="url(#linearGradient56)"/></svg>