<svg version="1.1" xmlns="http:/www.w3.org/2000/svg" xmlns:xlink="http:/www.w3.org/1999/xlink">
<path fill="#CEDC00" d="M5.821,14.261c0.389-0.252,0.82-0.437,1.299-0.556c0.48-0.118,0.971-0.172,1.475-0.165 c1.146,0.016,2.016,0.339,2.614,0.96c0.599,0.624,0.864,1.494,0.794,2.616h2.41c0.036-0.844-0.088-1.604-0.365-2.286 c-0.277-0.682-0.677-1.265-1.198-1.746c-0.523-0.48-1.14-0.85-1.853-1.117c-0.714-0.265-1.486-0.405-2.315-0.424 c-0.786-0.007-1.57,0.093-2.351,0.304c-0.781,0.21-1.489,0.531-2.121,0.96c-0.63,0.43-1.156,0.969-1.57,1.611 c-0.415,0.644-0.653,1.389-0.711,2.23c-0.051,0.775,0.067,1.445,0.352,2.016c0.287,0.567,0.678,1.062,1.174,1.491 c0.494,0.424,1.058,0.784,1.692,1.078c0.632,0.295,1.269,0.547,1.908,0.758c0.445,0.142,0.896,0.301,1.355,0.473 c0.456,0.174,0.862,0.386,1.223,0.646c0.357,0.254,0.64,0.57,0.839,0.948c0.199,0.372,0.267,0.837,0.198,1.394 c-0.068,0.549-0.24,1.013-0.518,1.396c-0.278,0.383-0.624,0.695-1.033,0.94c-0.408,0.245-0.865,0.418-1.364,0.524 c-0.5,0.104-0.999,0.154-1.493,0.145c-0.573-0.009-1.104-0.091-1.59-0.245c-0.487-0.158-0.904-0.384-1.25-0.685 c-0.345-0.297-0.611-0.666-0.794-1.107c-0.185-0.445-0.254-0.964-0.21-1.562l-2.411-0.013c-0.044,0.884,0.098,1.67,0.421,2.356 c0.325,0.685,0.777,1.267,1.348,1.742c0.571,0.477,1.237,0.842,2,1.1c0.76,0.257,1.558,0.391,2.396,0.397 c0.803,0.018,1.6-0.07,2.396-0.265c0.795-0.192,1.516-0.496,2.162-0.908c0.645-0.413,1.179-0.939,1.607-1.576 c0.428-0.635,0.674-1.388,0.745-2.266c0.059-0.807-0.047-1.512-0.321-2.109c-0.274-0.598-0.656-1.114-1.148-1.547 c-0.491-0.432-1.06-0.804-1.703-1.105c-0.646-0.304-1.315-0.57-2.006-0.796c-0.396-0.126-0.812-0.274-1.252-0.436 c-0.438-0.164-0.84-0.374-1.198-0.627c-0.358-0.252-0.647-0.553-0.865-0.909c-0.218-0.353-0.295-0.781-0.239-1.287 c0.062-0.54,0.224-1.002,0.486-1.39C5.105,14.834,5.43,14.515,5.821,14.261z"></path>
<path fill="#CEDC00" d="M27.386,11.798l-2.152,12.466c-0.102,0.649-0.293,1.237-0.573,1.765c-0.276,0.523-0.626,0.973-1.048,1.338 c-0.426,0.366-0.922,0.646-1.486,0.841c-0.572,0.192-1.192,0.278-1.866,0.251c-0.641-0.016-1.189-0.133-1.641-0.346 c-0.454-0.215-0.821-0.508-1.098-0.88c-0.276-0.37-0.468-0.807-0.563-1.312c-0.098-0.508-0.114-1.059-0.046-1.657l2.14-12.466 h-2.371l-2.154,12.456c-0.109,0.916-0.053,1.752,0.168,2.508c0.223,0.753,0.582,1.399,1.079,1.943 c0.495,0.544,1.114,0.967,1.859,1.271c0.741,0.303,1.575,0.462,2.498,0.48c0.984,0.015,1.898-0.12,2.75-0.405 c0.849-0.287,1.606-0.7,2.269-1.245c0.663-0.545,1.208-1.198,1.641-1.97c0.431-0.77,0.718-1.635,0.866-2.596l2.153-12.442H27.386z"></path>
<path fill="#CEDC00" d="M42.536,19.856c0.409-0.716,0.657-1.558,0.742-2.526c0.078-0.867-0.01-1.639-0.255-2.317 c-0.25-0.681-0.621-1.251-1.116-1.718c-0.499-0.468-1.098-0.824-1.808-1.081c-0.708-0.252-1.482-0.385-2.321-0.405l-6.522-0.01 l-3.243,18.389h2.41l1.269-7.198l4.435,0.014c0.923,0,1.798-0.112,2.628-0.335c0.828-0.224,1.564-0.569,2.205-1.037 C41.6,21.164,42.124,20.573,42.536,19.856z M40.882,17.344c-0.078,0.623-0.252,1.165-0.525,1.622 c-0.274,0.459-0.621,0.84-1.032,1.146c-0.416,0.301-0.894,0.53-1.431,0.682c-0.537,0.151-1.107,0.228-1.705,0.228l-4.151-0.013 l1.267-7.213l4.422,0.013c0.537,0.016,1.02,0.112,1.443,0.283c0.422,0.175,0.77,0.41,1.044,0.713 c0.272,0.305,0.47,0.669,0.589,1.101C40.926,16.333,40.95,16.813,40.882,17.344z"></path>
<polygon fill="#CEDC00" points="53.988,30.188 54.348,28.207 45.221,28.207 46.375,21.689 54.218,21.689 54.566,19.706 46.722,19.706 47.758,13.794 56.744,13.794 57.102,11.798 45.708,11.798 42.464,30.188"></polygon>
<polygon fill="#CEDC00" points="122.746,19.135 120.309,33.01 114.993,19.135 109.877,19.135 106.014,41.119 111.254,41.119 113.706,27.244 119.038,41.119 124.109,41.119 127.986,19.135"></polygon>
<polygon fill="#CEDC00" points="142.296,19.135 139.857,33.01 134.539,19.135 129.423,19.135 125.562,41.119 130.801,41.119 133.256,27.244 138.586,41.119 143.656,41.119 147.535,19.135"></polygon>
<polygon fill="#CEDC00" points="148.971,19.135 145.094,41.119 150.334,41.119 154.193,19.135"></polygon>
<path fill="#CEDC00" d="M167.583,30.543c-0.599-0.57-1.294-1.059-2.084-1.472c-0.792-0.413-1.606-0.776-2.445-1.089 c-0.296-0.109-0.646-0.244-1.05-0.394s-0.781-0.335-1.135-0.558c-0.35-0.221-0.638-0.482-0.855-0.785 c-0.221-0.303-0.296-0.664-0.225-1.086c0.063-0.405,0.209-0.755,0.438-1.051c0.23-0.295,0.508-0.537,0.835-0.725 c0.328-0.186,0.683-0.326,1.067-0.416c0.381-0.089,0.756-0.129,1.125-0.121c0.91,0.021,1.566,0.287,1.968,0.793 c0.403,0.508,0.597,1.18,0.574,2.018l5.21,0.015c0.011-1.077-0.168-2.038-0.543-2.877s-0.892-1.549-1.555-2.128 c-0.666-0.58-1.449-1.023-2.353-1.336c-0.903-0.312-1.881-0.477-2.933-0.498c-0.664-0.011-1.342,0.033-2.033,0.127 c-0.688,0.095-1.361,0.252-2.014,0.469c-0.655,0.217-1.273,0.495-1.863,0.837c-0.585,0.341-1.102,0.75-1.547,1.224 c-0.443,0.474-0.805,1.011-1.088,1.613c-0.28,0.605-0.441,1.277-0.48,2.023c-0.053,0.968,0.105,1.815,0.474,2.546 c0.366,0.732,0.866,1.37,1.493,1.916c0.628,0.551,1.34,1.021,2.131,1.421c0.793,0.396,1.587,0.746,2.38,1.049 c0.38,0.141,0.769,0.294,1.165,0.46c0.398,0.168,0.76,0.365,1.074,0.596c0.318,0.232,0.562,0.516,0.736,0.85 c0.172,0.329,0.219,0.736,0.137,1.22c-0.073,0.392-0.209,0.731-0.412,1.012c-0.205,0.282-0.454,0.513-0.752,0.695 c-0.297,0.182-0.621,0.316-0.979,0.4c-0.358,0.083-0.726,0.128-1.104,0.128c-1.187,0-2.034-0.287-2.544-0.859 c-0.512-0.575-0.74-1.43-0.689-2.569l-5.254-0.015c-0.023,1.208,0.18,2.275,0.596,3.194c0.422,0.919,1.003,1.692,1.754,2.319 c0.752,0.622,1.631,1.1,2.643,1.424c1.014,0.328,2.097,0.502,3.249,0.522c1.02,0.011,2.035-0.101,3.042-0.33 c1.004-0.234,1.918-0.602,2.738-1.112c0.814-0.508,1.49-1.163,2.02-1.962c0.531-0.8,0.834-1.765,0.904-2.891 c0.061-0.997-0.076-1.872-0.415-2.622C168.648,31.771,168.181,31.111,167.583,30.543z"></path>
<path fill="#CEDC00" d="M104.711,31.803l0.689-3.939h-8.213l0.827-4.635h9.714l0.718-4.093H93.729h-0.25H76.982l0.006-0.011 c0.035-0.072,0.072-0.147,0.109-0.217c0.067-0.136,0.135-0.271,0.196-0.408l0.268-0.629c0.064-0.146,0.127-0.293,0.191-0.436 c0.114-0.271,0.231-0.535,0.336-0.805l0.454-1.223c0.028-0.073,0.055-0.144,0.081-0.212c0.048-0.132,0.099-0.263,0.142-0.396 l0.557-1.786c0.059-0.236,0.121-0.472,0.179-0.703c0.14-0.543,0.271-1.056,0.379-1.569l0.224-1.119 c0.067-0.342,0.134-0.667,0.169-0.996c0.03-0.238,0.063-0.471,0.097-0.699c0.061-0.425,0.115-0.824,0.146-1.215l0.14-1.696 l0.047-2.058l-0.079-2.094l-0.373-0.01l-0.19,2.079l-0.266,1.997l-0.291,1.636c-0.243,1.229-0.557,2.524-0.933,3.858 c-0.137,0.478-0.295,0.958-0.466,1.467c-0.076,0.229-0.152,0.456-0.225,0.681l-0.631,1.692c-0.048,0.12-0.1,0.24-0.152,0.363 c-0.029,0.064-0.061,0.135-0.087,0.201l-0.499,1.156c-0.111,0.25-0.234,0.494-0.356,0.74c-0.068,0.141-0.139,0.283-0.208,0.426 c-0.249,0.531-0.528,1.046-0.825,1.592c-0.14,0.25-0.277,0.505-0.408,0.754c-0.881,1.516-1.922,3.073-3.091,4.625 c-1.148,1.484-2.4,2.902-3.725,4.219l-2.27-6.082c0.573-0.203,1.109-0.461,1.61-0.776c0.501-0.318,0.939-0.686,1.32-1.105 c0.38-0.424,0.689-0.894,0.928-1.416c0.24-0.524,0.385-1.1,0.437-1.73c0.084-0.895,0.005-1.673-0.247-2.345 c-0.246-0.669-0.617-1.229-1.119-1.68c-0.5-0.45-1.105-0.791-1.821-1.023c-0.715-0.229-1.497-0.354-2.35-0.374l-5.847-0.01 l-3.244,18.389h2.426l1.306-7.437h4.306l2.602,7.397c-0.795,0.692-1.625,1.369-2.488,2.023c-1.552,1.139-3.128,2.164-4.686,3.045 c-0.251,0.129-0.495,0.259-0.741,0.389c-0.564,0.297-1.096,0.58-1.652,0.834c-0.144,0.064-0.285,0.132-0.428,0.202 c-0.248,0.12-0.499,0.239-0.746,0.35l-1.179,0.491c-0.074,0.03-0.141,0.06-0.214,0.09c-0.117,0.051-0.236,0.102-0.359,0.143 l-1.708,0.625c-0.238,0.073-0.47,0.15-0.702,0.225c-0.514,0.165-1.002,0.324-1.487,0.459c-1.335,0.367-2.653,0.677-3.905,0.919 l-1.661,0.286l-1.426,0.184l-2.717,0.27l0.011,0.366l1.577,0.063l0.556,0.016l2.088-0.048l1.709-0.134 c0.402-0.033,0.808-0.088,1.24-0.148c0.231-0.031,0.467-0.062,0.706-0.092c0.322-0.033,0.637-0.094,0.97-0.16l1.182-0.227 c0.519-0.107,1.04-0.238,1.591-0.373c0.234-0.06,0.469-0.119,0.72-0.181l1.803-0.55c0.136-0.039,0.267-0.086,0.401-0.136 c0.069-0.024,0.145-0.054,0.215-0.081l1.246-0.447c0.271-0.104,0.543-0.218,0.814-0.332c0.146-0.061,0.293-0.123,0.443-0.186 l0.638-0.266c0.143-0.061,0.279-0.128,0.418-0.195c0.071-0.037,0.141-0.07,0.217-0.109l1.273-0.616 c1.943-1.036,3.58-2.04,5.005-3.069c1.595-1.16,3.15-2.475,4.627-3.904c1.409-1.423,2.742-2.955,3.961-4.565l0.856-1.202 c0.197-0.27,0.372-0.552,0.542-0.821c0.01-0.02,0.021-0.04,0.034-0.056h6.342l-3.157,17.89h5.255l2.928-16.678l-2.356-1.216h2.571 v0.004h6.498l-3.143,17.89h14.939l0.721-4.075h-9.699l0.935-5.24H104.711z M62.912,20.78l-3.538-0.013l1.231-6.972l3.729,0.012 c0.54,0.016,1.023,0.1,1.449,0.252c0.428,0.152,0.782,0.372,1.06,0.657c0.274,0.286,0.474,0.641,0.592,1.061 c0.122,0.42,0.147,0.904,0.076,1.453c-0.076,0.581-0.25,1.093-0.53,1.533c-0.278,0.445-0.625,0.814-1.038,1.113 c-0.415,0.3-0.882,0.525-1.402,0.677C64.018,20.704,63.475,20.78,62.912,20.78z"></path>
</svg>