<?xml version="1.0" encoding="UTF-8" standalone="no"?>
<svg
   xmlns:dc="http://purl.org/dc/elements/1.1/"
   xmlns:cc="http://creativecommons.org/ns#"
   xmlns:rdf="http://www.w3.org/1999/02/22-rdf-syntax-ns#"
   xmlns:svg="http://www.w3.org/2000/svg"
   xmlns="http://www.w3.org/2000/svg"
   xmlns:sodipodi="http://sodipodi.sourceforge.net/DTD/sodipodi-0.dtd"
   xmlns:inkscape="http://www.inkscape.org/namespaces/inkscape"
   version="1.1"
   id="Layer_1"
   x="0px"
   y="0px"
   width="709.92493"
   height="727.01123"
   viewBox="0 0 709.92494 727.01123"
   enable-background="new 0 0 1000 844"
   xml:space="preserve"
   sodipodi:docname="Telemundo_Chicago_WSNS_(2019).svg"
   inkscape:version="1.0.2 (e86c870879, 2021-01-15, custom)"><metadata
   id="metadata33"><rdf:RDF><cc:Work
       rdf:about=""><dc:format>image/svg+xml</dc:format><dc:type
         rdf:resource="http://purl.org/dc/dcmitype/StillImage" /><dc:title /></cc:Work></rdf:RDF></metadata><defs
   id="defs31">
	
	
	
	
	
	
	
	
	
	
	
	

</defs><sodipodi:namedview
   pagecolor="#ffffff"
   bordercolor="#666666"
   borderopacity="1"
   objecttolerance="10"
   gridtolerance="10"
   guidetolerance="10"
   inkscape:pageopacity="0"
   inkscape:pageshadow="2"
   inkscape:window-width="1366"
   inkscape:window-height="705"
   id="namedview29"
   showgrid="false"
   inkscape:zoom="0.41368461"
   inkscape:cx="701.96449"
   inkscape:cy="585.48058"
   inkscape:window-x="-8"
   inkscape:window-y="-8"
   inkscape:window-maximized="1"
   inkscape:current-layer="layer1"
   inkscape:document-rotation="0" />

<g
   inkscape:groupmode="layer"
   id="layer1"
   inkscape:label="Layer 1"><g
     id="g1036"
     transform="scale(0.70992424,0.7233937)"><g
       id="g63"><g
         id="g104"
         style="fill:#243746;fill-opacity:1"><path
           fill-rule="evenodd"
           clip-rule="evenodd"
           d="m 116.957,840.777 h 74.818 v -4.774 c 0,-8.529 -5.048,-13.574 -13.661,-13.574 h -37.91 v -31.967 h 36.979 v -18.598 h -36.979 v -28.613 h 35.726 c 8.615,0 13.661,-5.035 13.661,-13.563 v -4.774 h -72.635 v 115.863 z"
           id="path8"
           style="fill:#243746;fill-opacity:1" /><path
           fill-rule="evenodd"
           clip-rule="evenodd"
           d="m 306.353,840.777 h 74.818 v -4.774 c 0,-8.529 -5.048,-13.574 -13.661,-13.574 H 329.6 v -31.967 h 36.977 V 771.864 H 329.6 v -28.613 h 35.726 c 8.613,0 13.661,-5.035 13.661,-13.563 v -4.774 h -72.635 v 115.863 z"
           id="path10"
           style="fill:#243746;fill-opacity:1" /><path
           fill-rule="evenodd"
           clip-rule="evenodd"
           d="m 806.233,743.013 c 32.731,-4.265 44.429,9.146 44.429,40.613 0,31.055 -14.16,41.602 -44.412,39.096 l -0.369,-0.033 v -79.622 z m -23.599,97.764 h 35.367 c 37.321,0 56.603,-22.418 56.603,-58.876 0,-61.979 -44.428,-59.679 -91.97,-57.01 z"
           id="path12"
           style="fill:#243746;fill-opacity:1" /><path
           fill-rule="evenodd"
           clip-rule="evenodd"
           d="m 450.746,816.353 h 25 l 25.6,-50.781 v 75.206 h 22.623 V 724.913 h -16.216 c -10.796,0 -13.103,6.283 -17.483,14.627 l -27.156,55.197 -26.62,-55.187 c -4.24,-8.235 -6.508,-14.638 -17.13,-14.638 h -15.886 v 115.864 h 22.157 v -75.239 z"
           id="path14"
           style="fill:#243746;fill-opacity:1" /><path
           fill-rule="evenodd"
           clip-rule="evenodd"
           d="m 735.97,840.777 h 20.883 V 738.574 c 0,-8.604 -5.04,-13.661 -13.574,-13.661 h -8.784 v 78.961 l -39.969,-64.659 c -3.553,-5.751 -7.937,-14.302 -15.755,-14.302 h -14.03 v 115.864 h 22.157 v -75.868 z"
           id="path16"
           style="fill:#243746;fill-opacity:1" /><path
           fill-rule="evenodd"
           clip-rule="evenodd"
           d="m 286.108,840.777 v -4.774 c 0,-8.529 -5.048,-13.574 -13.661,-13.574 h -35.726 v -83.854 c 0,-8.604 -5.04,-13.661 -13.572,-13.661 h -9.676 v 115.864 h 72.635 z"
           id="path18"
           style="fill:#243746;fill-opacity:1" /><path
           fill-rule="evenodd"
           clip-rule="evenodd"
           d="m 947.401,741.146 c 22.743,0 27.935,24.664 27.935,42.861 0,18.543 -5.518,41.416 -28.174,41.416 -22.683,0 -28.174,-24.338 -28.174,-42.621 0,-18.489 5.649,-41.656 28.413,-41.656 z m 0.245,-19.076 c -35.981,0 -53.082,27.594 -53.082,60.97 0,34.419 15.489,60.96 52.838,60.96 37.288,0 52.599,-26.692 52.599,-60.96 -10e-4,-33.115 -16.369,-60.97 -52.355,-60.97 z"
           id="path20"
           style="fill:#243746;fill-opacity:1" /><path
           fill-rule="evenodd"
           clip-rule="evenodd"
           d="m 549.555,724.913 v 73.633 c 0,29.645 13.173,45.041 44.092,45.041 29.91,0 45.66,-15.494 45.66,-45.041 0,-19.998 0,-39.984 0,-59.972 0,-8.604 -5.046,-13.661 -13.574,-13.661 h -9.364 c 0,25.564 0,51.14 0,76.704 0,12.868 -9.038,22.417 -22.108,22.417 -13.623,0 -21.767,-9.027 -21.767,-22.417 v -63.043 c 0,-8.615 -5.04,-13.661 -13.568,-13.661 z"
           id="path22"
           style="fill:#243746;fill-opacity:1" /><path
           fill-rule="evenodd"
           clip-rule="evenodd"
           d="m 60.273,840.777 v -96.788 h 23.356 c 8.613,0 13.661,-5.046 13.661,-13.574 v -5.502 H 13.661 C 5.048,724.913 0,729.948 0,738.487 v 5.502 h 37.022 v 96.788 z"
           id="path24"
           style="fill:#243746;fill-opacity:1" /></g><g
         id="g93"><path
           fill-rule="evenodd"
           clip-rule="evenodd"
           fill="#a71916"
           d="m 624.153,324.724 c 2.426,142.063 -94.829,278.554 -230.352,321.012 -13.642,3.44 -18.62,4.818 -18.62,-4.697 V 241.865 H 192.508 c -2.889,0 -5.255,-2.366 -5.255,-5.257 V 5.255 C 187.253,2.366 189.616,0 192.508,0 h 103.868 c 197.852,0 327.777,169.358 327.777,324.724 z"
           id="path2"
           style="fill:#911010;fill-opacity:1" /><path
           fill-rule="evenodd"
           clip-rule="evenodd"
           fill="#ff0000"
           d="m 375.22,324.724 c -2.422,142.063 94.83,278.554 230.353,321.012 13.645,3.44 18.619,4.818 18.619,-4.697 V 241.865 h 182.677 c 2.887,0 5.252,-2.366 5.252,-5.257 V 5.255 C 812.121,2.366 809.761,0 806.869,0 H 703 C 505.148,0 375.22,169.358 375.22,324.724 Z"
           id="path4"
           style="fill:#eb1010;fill-opacity:1" /><path
           id="path2-85"
           d="m 499.68664,71.53515 c -78.65055,63.73475 -124.46875,160.92821 -124.46875,253.18946 -0.0378,2.21973 -0.0496,4.43762 -0.0391,6.65429 0.47244,98.88293 48.91222,194.37596 124.50781,256.54688 75.56407,-62.14471 123.99386,-157.5837 124.50391,-256.42188 v -0.4414 c 0.008,-2.11143 -0.003,-4.22371 -0.0391,-6.33789 0,-92.26078 -45.81588,-189.4547 -124.46484,-253.18946 z"
           style="fill:#c31010;fill-opacity:1" /></g></g><g
       aria-label="CHICAGO"
       id="text35"
       style="font-style:normal;font-weight:normal;font-size:164px;line-height:1.25;font-family:sans-serif;letter-spacing:36.94px;word-spacing:0px;fill:#293a47;fill-opacity:1;stroke:#243746;stroke-width:6.31671;stroke-miterlimit:4;stroke-dasharray:none;stroke-opacity:1"
       transform="matrix(1.1545982,0,0,1.1243195,42.826999,-138.55353)"><g
         id="path894"
         style="opacity:1"><path
           id="path979"
           style="color:#000000;font-style:normal;font-variant:normal;font-weight:normal;font-stretch:normal;font-size:164px;line-height:1.25;font-family:FocoW01-Light;-inkscape-font-specification:FocoW01-Light;font-variant-ligatures:normal;font-variant-position:normal;font-variant-caps:normal;font-variant-numeric:normal;font-variant-alternates:normal;font-variant-east-asian:normal;font-feature-settings:normal;font-variation-settings:normal;text-indent:0;text-align:start;text-decoration:none;text-decoration-line:none;text-decoration-style:solid;text-decoration-color:#000000;letter-spacing:36.94px;word-spacing:0px;text-transform:none;writing-mode:lr-tb;direction:ltr;text-orientation:mixed;dominant-baseline:auto;baseline-shift:baseline;text-anchor:start;white-space:normal;shape-padding:0;shape-margin:0;inline-size:0;clip-rule:nonzero;display:inline;overflow:visible;visibility:visible;isolation:auto;mix-blend-mode:normal;color-interpolation:sRGB;color-interpolation-filters:linearRGB;solid-color:#000000;solid-opacity:1;vector-effect:none;fill:#293a47;fill-opacity:1;fill-rule:nonzero;stroke:none;stroke-width:7.197;stroke-linecap:butt;stroke-linejoin:miter;stroke-miterlimit:4;stroke-dasharray:none;stroke-dashoffset:0;stroke-opacity:1;color-rendering:auto;image-rendering:auto;shape-rendering:auto;text-rendering:auto;enable-background:accumulate;stop-color:#000000;stop-opacity:1"
           d="m 61.025391,869.56445 c -10.134067,0 -19.086242,1.73369 -26.738282,5.32032 -7.545285,3.41508 -13.851878,8.27959 -18.748047,14.5 C 10.677063,895.43923 7.0675264,902.63462 4.6875,910.875 l -0.00977,0.0254 -0.00586,0.0254 c -2.2367488,8.19987 -3.3398438,17.05329 -3.3398438,26.54102 0,9.47193 1.0356514,18.30831 3.1367188,26.49218 l 0.00781,0.0312 0.00977,0.0312 c 2.2505829,8.12174 5.727848,15.3124 10.443363,21.4786 l 0.02539,0.0352 0.02539,0.0332 c 4.884383,6.07749 11.043295,10.86985 18.332031,14.28711 l 0.01172,0.004 0.01367,0.006 C 40.875329,1003.335 49.758051,1005 59.888672,1005 c 5.557186,0 10.609022,-0.5765 15.15039,-1.7812 4.468281,-1.1526 8.348078,-2.5105 11.664063,-4.12505 3.174628,-1.54571 5.761599,-3.05129 7.818359,-4.625 l 0.01367,-0.01 0.01172,-0.008 c 1.944244,-1.51457 3.245308,-2.60087 4.253906,-3.76758 1.56922,-1.69468 2.79492,-3.61976 2.79492,-6.01367 0,-2.42489 -1.32111,-4.20278 -2.894529,-5.75 -1.183033,-1.39007 -2.386905,-2.64787 -3.63086,-3.72461 l -2.773437,-2.40234 -2.417969,2.74414 c -2.032209,2.30873 -4.631054,4.57219 -7.818359,6.75977 -2.490739,1.65232 -5.585004,3.19825 -9.287109,4.59374 l -0.01758,0.006 -0.01758,0.01 c -3.281155,1.27801 -7.163697,1.95898 -11.71289,1.95898 -8.004256,0 -14.426553,-1.45426 -19.435547,-4.16406 -5.193442,-2.80957 -9.249869,-6.49425 -12.337891,-11.17187 -3.159139,-4.78534 -5.453726,-10.21047 -6.884765,-16.35157 -1.331895,-6.38359 -2.003907,-12.94939 -2.003907,-19.71093 0,-6.53894 0.612844,-12.94549 1.830078,-19.23438 1.311252,-6.2522 3.487607,-11.71902 6.507813,-16.47851 3.101819,-4.6919 7.123114,-8.44836 12.205078,-11.375 4.989126,-2.80173 11.441615,-4.3086 19.550781,-4.3086 4.240613,1e-5 7.90471,0.51762 11.00586,1.48828 3.325906,1.04101 6.100351,2.23664 8.326171,3.53711 l 0.03516,0.0195 0.0332,0.0195 c 2.439879,1.35766 4.324425,2.72684 5.667969,4.03515 l 0.05078,0.0508 0.05469,0.0488 c 1.58685,1.42637 2.720191,2.54549 3.300782,3.20508 l 1.091797,1.23828 h 5.423828 l 1.08789,-1.21875 c 2.713607,-3.03881 4.681646,-5.09335 4.681646,-8.59766 0,-1.53686 -0.49918,-3.10126 -1.367193,-4.36914 -0.608677,-0.88906 -1.252832,-1.68382 -1.972656,-2.38476 -0.956198,-0.93113 -2.269837,-1.99906 -4.044922,-3.35938 -1.960819,-1.60939 -4.433819,-3.05257 -7.449219,-4.46484 -3.095913,-1.63705 -6.740728,-2.93421 -10.941406,-3.96289 -4.305737,-1.21213 -9.11058,-1.79102 -14.416015,-1.79102 z"
           transform="matrix(0.86610216,0,0,0.88942689,-37.092557,123.23324)" /></g><g
         id="path896"
         style="opacity:1"><path
           style="color:#000000;font-style:normal;font-variant:normal;font-weight:normal;font-stretch:normal;font-size:164px;line-height:1.25;font-family:FocoW01-Light;-inkscape-font-specification:FocoW01-Light;font-variant-ligatures:normal;font-variant-position:normal;font-variant-caps:normal;font-variant-numeric:normal;font-variant-alternates:normal;font-variant-east-asian:normal;font-feature-settings:normal;font-variation-settings:normal;text-indent:0;text-align:start;text-decoration:none;text-decoration-line:none;text-decoration-style:solid;text-decoration-color:#000000;letter-spacing:36.94px;word-spacing:0px;text-transform:none;writing-mode:lr-tb;direction:ltr;text-orientation:mixed;dominant-baseline:auto;baseline-shift:baseline;text-anchor:start;white-space:normal;shape-padding:0;shape-margin:0;inline-size:0;clip-rule:nonzero;display:inline;overflow:visible;visibility:visible;isolation:auto;mix-blend-mode:normal;color-interpolation:sRGB;color-interpolation-filters:linearRGB;solid-color:#000000;solid-opacity:1;vector-effect:none;fill:#293a47;fill-opacity:1;fill-rule:nonzero;stroke:none;stroke-width:6.31671;stroke-linecap:butt;stroke-linejoin:miter;stroke-miterlimit:4;stroke-dasharray:none;stroke-dashoffset:0;stroke-opacity:1;color-rendering:auto;image-rendering:auto;shape-rendering:auto;text-rendering:auto;enable-background:accumulate;stop-color:#000000;stop-opacity:1"
           d="m 183.73809,1011.4895 h -9.676 v -53.3 h -59.204 v 53.3 h -9.676 v -109.88 c 0.54667,-0.10933 0.92933,-0.164 1.148,-0.164 h 0.656 c 0.656,0 1.42133,0.10933 2.296,0.328 0.87467,0.10933 1.69467,0.492 2.46,1.148 0.87467,0.54667 1.58533,1.36667 2.132,2.46 0.656,1.09333 0.984,2.56933 0.984,4.428 v 40.18 h 59.204 v -48.38 c 0.54667,-0.10933 0.92933,-0.164 1.148,-0.164 h 0.656 c 0.656,0 1.42133,0.10933 2.296,0.328 0.87467,0.10933 1.69467,0.492 2.46,1.148 0.87467,0.54667 1.58533,1.36667 2.132,2.46 0.656,1.09333 0.984,2.56933 0.984,4.428 z"
           id="path973" /><path
           id="path975"
           style="color:#000000;font-style:normal;font-variant:normal;font-weight:normal;font-stretch:normal;font-size:164px;line-height:1.25;font-family:FocoW01-Light;-inkscape-font-specification:FocoW01-Light;font-variant-ligatures:normal;font-variant-position:normal;font-variant-caps:normal;font-variant-numeric:normal;font-variant-alternates:normal;font-variant-east-asian:normal;font-feature-settings:normal;font-variation-settings:normal;text-indent:0;text-align:start;text-decoration:none;text-decoration-line:none;text-decoration-style:solid;text-decoration-color:#000000;letter-spacing:36.94px;word-spacing:0px;text-transform:none;writing-mode:lr-tb;direction:ltr;text-orientation:mixed;dominant-baseline:auto;baseline-shift:baseline;text-anchor:start;white-space:normal;shape-padding:0;shape-margin:0;inline-size:0;clip-rule:nonzero;display:inline;overflow:visible;visibility:visible;isolation:auto;mix-blend-mode:normal;color-interpolation:sRGB;color-interpolation-filters:linearRGB;solid-color:#000000;solid-opacity:1;vector-effect:none;fill:#243746;fill-opacity:1;fill-rule:nonzero;stroke:none;stroke-width:7.197;stroke-linecap:butt;stroke-linejoin:miter;stroke-miterlimit:4;stroke-dasharray:none;stroke-dashoffset:0;stroke-opacity:1;color-rendering:auto;image-rendering:auto;shape-rendering:auto;text-rendering:auto;enable-background:accumulate;stop-color:#000000;stop-opacity:1"
           d="m 165.5957,871.4082 c -0.86024,0 -1.31814,0.11117 -2.04101,0.25196 l -2.93164,0.57226 v 130.00388 h 18.46484 v -59.92771 h 61.06445 v 59.92771 h 18.46485 v -3.55075 -114.32422 c 0,-2.46552 -0.43155,-4.72969 -1.61133,-6.69727 -0.83152,-1.56767 -2.01626,-2.93617 -3.52148,-3.90625 -1.24852,-0.97784 -2.74437,-1.68805 -4.35547,-1.91406 -1.10948,-0.2542 -2.18039,-0.43555 -3.24805,-0.43555 H 245.125 c -0.86024,0 -1.31814,0.11117 -2.04102,0.25196 l -2.93164,0.57226 v 53.75586 h -61.06445 v -41.62695 c 0,-2.46878 -0.43186,-4.73571 -1.61523,-6.70508 -0.8313,-1.56413 -2.01508,-2.93016 -3.51758,-3.89844 -1.24907,-0.97828 -2.74748,-1.68838 -4.35938,-1.91406 -1.10783,-0.25357 -2.17598,-0.43555 -3.24218,-0.43555 z m 2.32032,7.33399 c 0.0871,0.0192 0.11094,0.009 0.20312,0.0312 l 0.21484,0.0527 0.21875,0.0254 c 0.2491,0.0303 0.48144,0.0989 0.91993,0.46485 l 0.20703,0.17187 0.23242,0.14063 c 0.37289,0.22694 0.73886,0.58228 1.13086,1.3457 l 0.0644,0.11914 0.0723,0.11719 c 0.28837,0.46802 0.61523,1.47842 0.61523,3.15039 v 48.72851 h 75.65039 v -54.34765 c 0.087,0.0191 0.11106,0.009 0.20313,0.0312 l 0.21484,0.0527 0.2168,0.0254 c 0.24908,0.0303 0.48143,0.0989 0.91992,0.46485 l 0.20703,0.17187 0.23242,0.14063 c 0.37289,0.22694 0.74277,0.58228 1.13477,1.3457 l 0.0625,0.11914 0.0703,0.11719 c 0.28837,0.46802 0.61719,1.47842 0.61719,3.15039 v 110.77344 h -3.87891 v -59.92774 h -75.65039 v 59.92774 h -3.8789 z"
           transform="matrix(0.86610216,0,0,0.88942689,-37.092557,123.23324)" /></g><g
         id="path898"
         style="opacity:1"><path
           style="color:#000000;font-style:normal;font-variant:normal;font-weight:normal;font-stretch:normal;font-size:164px;line-height:1.25;font-family:FocoW01-Light;-inkscape-font-specification:FocoW01-Light;font-variant-ligatures:normal;font-variant-position:normal;font-variant-caps:normal;font-variant-numeric:normal;font-variant-alternates:normal;font-variant-east-asian:normal;font-feature-settings:normal;font-variation-settings:normal;text-indent:0;text-align:start;text-decoration:none;text-decoration-line:none;text-decoration-style:solid;text-decoration-color:#000000;letter-spacing:36.94px;word-spacing:0px;text-transform:none;writing-mode:lr-tb;direction:ltr;text-orientation:mixed;dominant-baseline:auto;baseline-shift:baseline;text-anchor:start;white-space:normal;shape-padding:0;shape-margin:0;inline-size:0;clip-rule:nonzero;display:inline;overflow:visible;visibility:visible;isolation:auto;mix-blend-mode:normal;color-interpolation:sRGB;color-interpolation-filters:linearRGB;solid-color:#000000;solid-opacity:1;vector-effect:none;fill:#293a47;fill-opacity:1;fill-rule:nonzero;stroke:none;stroke-width:6.31671;stroke-linecap:butt;stroke-linejoin:miter;stroke-miterlimit:4;stroke-dasharray:none;stroke-dashoffset:0;stroke-opacity:1;color-rendering:auto;image-rendering:auto;shape-rendering:auto;text-rendering:auto;enable-background:accumulate;stop-color:#000000;stop-opacity:1"
           d="m 258.23381,1011.4895 h -9.676 v -109.88 c 0.54667,-0.10933 0.92933,-0.164 1.148,-0.164 h 0.656 c 0.656,0 1.42133,0.10933 2.296,0.328 0.87467,0.10933 1.69467,0.492 2.46,1.148 0.87467,0.54667 1.58533,1.36667 2.132,2.46 0.656,1.09333 0.984,2.56933 0.984,4.428 z"
           id="path967" /><path
           style="color:#000000;font-style:normal;font-variant:normal;font-weight:normal;font-stretch:normal;font-size:164px;line-height:1.25;font-family:FocoW01-Light;-inkscape-font-specification:FocoW01-Light;font-variant-ligatures:normal;font-variant-position:normal;font-variant-caps:normal;font-variant-numeric:normal;font-variant-alternates:normal;font-variant-east-asian:normal;font-feature-settings:normal;font-variation-settings:normal;text-indent:0;text-align:start;text-decoration:none;text-decoration-line:none;text-decoration-style:solid;text-decoration-color:#000000;letter-spacing:36.94px;word-spacing:0px;text-transform:none;writing-mode:lr-tb;direction:ltr;text-orientation:mixed;dominant-baseline:auto;baseline-shift:baseline;text-anchor:start;white-space:normal;shape-padding:0;shape-margin:0;inline-size:0;clip-rule:nonzero;display:inline;overflow:visible;visibility:visible;isolation:auto;mix-blend-mode:normal;color-interpolation:sRGB;color-interpolation-filters:linearRGB;solid-color:#000000;solid-opacity:1;vector-effect:none;fill:#243746;fill-opacity:1;fill-rule:nonzero;stroke:none;stroke-linecap:butt;stroke-linejoin:miter;stroke-miterlimit:4;stroke-dasharray:none;stroke-dashoffset:0;stroke-opacity:1;color-rendering:auto;image-rendering:auto;shape-rendering:auto;text-rendering:auto;enable-background:accumulate;stop-color:#000000;stop-opacity:1"
           d="m 249.70508,898.28711 c -0.74506,0 -1.1415,0.0994 -1.76758,0.22461 l -2.53711,0.50781 v 115.62887 h 15.99219 v -3.1582 -101.68161 c 0,-2.1929 -0.37467,-4.20701 -1.39649,-5.95703 -0.72148,-1.39684 -1.74959,-2.61744 -3.05664,-3.48047 -1.0804,-0.86695 -2.37668,-1.49701 -3.76953,-1.69726 -0.9595,-0.22553 -1.88515,-0.38672 -2.80859,-0.38672 z m 2.01172,6.52344 c 0.0753,0.017 0.096,0.007 0.17578,0.0273 l 0.18359,0.0469 0.18945,0.0234 c 0.21574,0.027 0.41711,0.0866 0.79688,0.41211 l 0.17969,0.1543 0.20117,0.125 c 0.32296,0.20185 0.64292,0.5163 0.98242,1.19531 l 0.0527,0.10742 0.0625,0.10352 c 0.24976,0.41627 0.53515,1.31564 0.53515,2.80273 v 98.52346 h -3.35937 z"
           id="path969" /></g><g
         id="path900"
         style="opacity:1"><path
           id="path961"
           style="color:#000000;font-style:normal;font-variant:normal;font-weight:normal;font-stretch:normal;font-size:164px;line-height:1.25;font-family:FocoW01-Light;-inkscape-font-specification:FocoW01-Light;font-variant-ligatures:normal;font-variant-position:normal;font-variant-caps:normal;font-variant-numeric:normal;font-variant-alternates:normal;font-variant-east-asian:normal;font-feature-settings:normal;font-variation-settings:normal;text-indent:0;text-align:start;text-decoration:none;text-decoration-line:none;text-decoration-style:solid;text-decoration-color:#000000;letter-spacing:36.94px;word-spacing:0px;text-transform:none;writing-mode:lr-tb;direction:ltr;text-orientation:mixed;dominant-baseline:auto;baseline-shift:baseline;text-anchor:start;white-space:normal;shape-padding:0;shape-margin:0;inline-size:0;clip-rule:nonzero;display:inline;overflow:visible;visibility:visible;isolation:auto;mix-blend-mode:normal;color-interpolation:sRGB;color-interpolation-filters:linearRGB;solid-color:#000000;solid-opacity:1;vector-effect:none;fill:#293a47;fill-opacity:1;fill-rule:nonzero;stroke:none;stroke-width:7.197;stroke-linecap:butt;stroke-linejoin:miter;stroke-miterlimit:4;stroke-dasharray:none;stroke-dashoffset:0;stroke-opacity:1;color-rendering:auto;image-rendering:auto;shape-rendering:auto;text-rendering:auto;enable-background:accumulate;stop-color:#000000;stop-opacity:1"
           d="m 468.08594,869.56445 c -10.13769,0 -19.09225,1.73305 -26.7461,5.32227 -7.54242,3.41494 -13.84741,8.27941 -18.74218,14.49805 -4.86201,6.05446 -8.47154,13.24985 -10.85157,21.49023 l -0.008,0.0254 -0.006,0.0254 c -2.23676,8.19987 -3.3418,17.05329 -3.3418,26.54102 0,9.47193 1.03762,18.30831 3.13868,26.49218 l 0.008,0.0312 0.008,0.0312 c 2.25058,8.12166 5.72784,15.31232 10.44336,21.47852 l 0.0254,0.0352 0.0274,0.0332 c 4.88437,6.07749 11.04134,10.86985 18.33007,14.28711 l 0.0137,0.004 0.0117,0.006 c 7.53744,3.46977 16.42212,5.13477 26.55274,5.13477 5.55718,0 10.60708,-0.5765 15.14844,-1.7812 4.46828,-1.1526 8.35198,-2.5105 11.66796,-4.12505 3.17464,-1.54571 5.75966,-3.05129 7.81641,-4.625 l 0.0137,-0.01 0.01,-0.008 c 1.94424,-1.51457 3.24531,-2.60087 4.25391,-3.76758 1.56923,-1.69468 2.79687,-3.61976 2.79687,-6.01367 0,-2.42539 -1.32457,-4.20255 -2.89844,-5.75 -1.18268,-1.38956 -2.38338,-2.64821 -3.62695,-3.72461 l -2.77539,-2.40234 -2.41797,2.74414 c -2.0337,2.31043 -4.63372,4.5746 -7.82422,6.76367 -2.48942,1.65039 -5.57907,3.1958 -9.27734,4.58984 l -0.0215,0.006 -0.0176,0.01 c -3.28117,1.27801 -7.16174,1.95898 -11.71094,1.95898 -8.00425,0 -14.42851,-1.45426 -19.4375,-4.16406 -5.19344,-2.80957 -9.24792,-6.49425 -12.33594,-11.17187 -3.15914,-4.78534 -5.45568,-10.21047 -6.88672,-16.35157 -1.33189,-6.38359 -2.00195,-12.94939 -2.00195,-19.71093 0,-6.53894 0.61089,-12.94549 1.82812,-19.23438 1.31126,-6.2522 3.48762,-11.71902 6.50782,-16.47851 3.10181,-4.6919 7.12311,-8.44836 12.20507,-11.375 4.98914,-2.80173 11.44358,-4.3086 19.55274,-4.3086 4.24062,10e-6 7.90276,0.51762 11.0039,1.48828 3.32591,1.04101 6.10231,2.23664 8.32813,3.53711 l 0.0332,0.0195 0.0332,0.0195 c 2.43988,1.35766 4.32637,2.72684 5.66992,4.03515 l 0.0488,0.0508 0.0547,0.0488 c 1.58686,1.42637 2.7241,2.54549 3.30469,3.20508 l 1.08984,1.23828 h 5.42188 l 1.08984,-1.21875 c 2.71361,-3.03881 4.68164,-5.09335 4.68164,-8.59766 0,-1.53686 -0.50113,-3.10126 -1.36914,-4.36914 -0.60868,-0.88906 -1.25088,-1.68382 -1.9707,-2.38476 -0.9562,-0.93113 -2.2718,-1.99906 -4.04688,-3.35938 -1.96081,-1.60939 -4.43187,-3.05257 -7.44726,-4.46484 -3.09592,-1.63705 -6.74072,-2.93421 -10.94141,-3.96289 -4.30572,-1.21213 -9.11058,-1.79102 -14.41601,-1.79102 z"
           transform="matrix(0.86610216,0,0,0.88942689,-37.092557,123.23324)" /></g><g
         id="path902"
         style="opacity:1"><path
           id="path955"
           style="color:#000000;font-style:normal;font-variant:normal;font-weight:normal;font-stretch:normal;font-size:164px;line-height:1.25;font-family:FocoW01-Light;-inkscape-font-specification:FocoW01-Light;font-variant-ligatures:normal;font-variant-position:normal;font-variant-caps:normal;font-variant-numeric:normal;font-variant-alternates:normal;font-variant-east-asian:normal;font-feature-settings:normal;font-variation-settings:normal;text-indent:0;text-align:start;text-decoration:none;text-decoration-line:none;text-decoration-style:solid;text-decoration-color:#000000;letter-spacing:36.94px;word-spacing:0px;text-transform:none;writing-mode:lr-tb;direction:ltr;text-orientation:mixed;dominant-baseline:auto;baseline-shift:baseline;text-anchor:start;white-space:normal;shape-padding:0;shape-margin:0;inline-size:0;clip-rule:nonzero;display:inline;overflow:visible;visibility:visible;isolation:auto;mix-blend-mode:normal;color-interpolation:sRGB;color-interpolation-filters:linearRGB;solid-color:#000000;solid-opacity:1;vector-effect:none;fill:#293a47;fill-opacity:1;fill-rule:nonzero;stroke:none;stroke-width:7.197;stroke-linecap:butt;stroke-linejoin:miter;stroke-miterlimit:4;stroke-dasharray:none;stroke-dashoffset:0;stroke-opacity:1;color-rendering:auto;image-rendering:auto;shape-rendering:auto;text-rendering:auto;enable-background:accumulate;stop-color:#000000;stop-opacity:1"
           d="m 613.17578,871.4082 c -1.40624,0 -2.77951,0.15278 -4.10156,0.47461 l -0.0586,0.0156 -0.0586,0.0156 c -0.97186,0.27039 -1.83814,0.54704 -2.625,0.85352 l -1.48828,0.58008 -50.1582,128.88859 h 19.18359 l 13.06641,-34.48039 h 51.53515 l 13.06641,34.48039 h 2.54101 17.2129 L 623.21875,878.875 c -0.90275,-2.34421 -2.14282,-4.35319 -4.16211,-5.69727 -1.69554,-1.20563 -3.79376,-1.76953 -5.88086,-1.76953 z m -0.58008,27.93164 19.42383,52.0918 h -39 z"
           transform="matrix(0.86610216,0,0,0.88942689,-37.092557,123.23324)" /></g><g
         id="path904"
         style="opacity:1"><path
           id="path949"
           style="color:#000000;font-style:normal;font-variant:normal;font-weight:normal;font-stretch:normal;font-size:164px;line-height:1.25;font-family:FocoW01-Light;-inkscape-font-specification:FocoW01-Light;font-variant-ligatures:normal;font-variant-position:normal;font-variant-caps:normal;font-variant-numeric:normal;font-variant-alternates:normal;font-variant-east-asian:normal;font-feature-settings:normal;font-variation-settings:normal;text-indent:0;text-align:start;text-decoration:none;text-decoration-line:none;text-decoration-style:solid;text-decoration-color:#000000;letter-spacing:36.94px;word-spacing:0px;text-transform:none;writing-mode:lr-tb;direction:ltr;text-orientation:mixed;dominant-baseline:auto;baseline-shift:baseline;text-anchor:start;white-space:normal;shape-padding:0;shape-margin:0;inline-size:0;clip-rule:nonzero;display:inline;overflow:visible;visibility:visible;isolation:auto;mix-blend-mode:normal;color-interpolation:sRGB;color-interpolation-filters:linearRGB;solid-color:#000000;solid-opacity:1;vector-effect:none;fill:#293a47;fill-opacity:1;fill-rule:nonzero;stroke:none;stroke-width:7.197;stroke-linecap:butt;stroke-linejoin:miter;stroke-miterlimit:4;stroke-dasharray:none;stroke-dashoffset:0;stroke-opacity:1;color-rendering:auto;image-rendering:auto;shape-rendering:auto;text-rendering:auto;enable-background:accumulate;stop-color:#000000;stop-opacity:1"
           d="m 776.06641,869.56445 c -10.12384,0 -19.05633,1.66406 -26.70118,5.11719 -7.54378,3.28518 -13.8598,8.02205 -18.76367,14.11914 -4.8708,5.93396 -8.48771,13.01561 -10.87109,21.13867 l -0.006,0.0254 -0.008,0.0254 c -2.24085,8.0865 -3.34375,16.88143 -3.34375,26.36915 0,9.7266 1.10269,18.75979 3.33789,27.08203 v 0.008 l 0.002,0.006 c 2.24857,8.24317 5.72436,15.4999 10.44727,21.67578 4.76499,6.23092 10.9397,11.166 18.35937,14.71289 l 0.0234,0.0117 0.0254,0.01 c 7.52972,3.4662 16.35155,5.1348 26.36133,5.1348 8.72595,0 15.98049,-0.9276 21.85937,-2.9707 5.70082,-1.938 10.69393,-4.41974 14.94141,-7.48441 2.66206,-1.81926 4.76496,-3.55524 6.33398,-5.38867 1.34528,-1.57202 2.51068,-3.10249 3.49414,-4.60742 l 0.57032,-0.87305 v -1.03516 -50.57031 h -47.2461 v 16.32227 h 29.16016 v 30.33789 c -0.51272,0.60792 -1.0534,1.25405 -2.15039,2.32226 -1.03098,1.00395 -2.71789,2.20138 -5.01953,3.4375 -2.05162,1.04856 -4.89791,2.08428 -8.49219,3.01758 l -0.0117,0.004 -0.0176,0.004 c -3.23615,0.86933 -7.34666,1.34961 -12.28515,1.34961 -7.98612,0 -14.381,-1.5062 -19.38282,-4.32031 -5.21129,-2.932 -9.28319,-6.68877 -12.37695,-11.36914 -3.16201,-4.90813 -5.46396,-10.45887 -6.89648,-16.72266 -1.33376,-6.51056 -2.00391,-13.20532 -2.00391,-20.09374 0,-6.52838 0.60896,-12.92401 1.82227,-19.20313 1.30983,-6.13793 3.47953,-11.41931 6.48632,-15.92383 l 0.0117,-0.0137 0.0117,-0.0176 c 2.95209,-4.53314 6.93331,-8.15287 12.13477,-10.96679 4.99897,-2.70438 11.48784,-4.16407 19.625,-4.16407 4.24061,10e-6 7.90274,0.51762 11.0039,1.48828 3.3259,1.04101 6.10426,2.23664 8.33008,3.53711 l 0.0332,0.0195 0.0312,0.0195 c 2.43989,1.35766 4.32638,2.72684 5.66993,4.03515 l 0.0508,0.0508 0.0547,0.0488 c 1.58685,1.42637 2.72019,2.54549 3.30078,3.20508 l 1.09179,1.23828 h 5.42188 l 1.09179,-1.21875 c 2.71361,-3.03881 4.68165,-5.09335 4.68165,-8.59766 0,-1.53686 -0.50114,-3.10126 -1.36915,-4.36914 -0.60868,-0.88906 -1.25088,-1.68382 -1.9707,-2.38476 -0.9562,-0.93113 -2.27179,-1.99906 -4.04687,-3.35938 -1.96082,-1.60939 -4.43187,-3.05257 -7.44727,-4.46484 -3.09592,-1.63705 -6.74073,-2.93421 -10.9414,-3.96289 -4.30574,-1.21213 -9.11254,-1.79102 -14.41797,-1.79102 z"
           transform="matrix(0.86610216,0,0,0.88942689,-37.092557,123.23324)" /></g><g
         id="path906"
         style="opacity:1"><path
           id="path943"
           style="color:#000000;font-style:normal;font-variant:normal;font-weight:normal;font-stretch:normal;font-size:164px;line-height:1.25;font-family:FocoW01-Light;-inkscape-font-specification:FocoW01-Light;font-variant-ligatures:normal;font-variant-position:normal;font-variant-caps:normal;font-variant-numeric:normal;font-variant-alternates:normal;font-variant-east-asian:normal;font-feature-settings:normal;font-variation-settings:normal;text-indent:0;text-align:start;text-decoration:none;text-decoration-line:none;text-decoration-style:solid;text-decoration-color:#000000;letter-spacing:36.94px;word-spacing:0px;text-transform:none;writing-mode:lr-tb;direction:ltr;text-orientation:mixed;dominant-baseline:auto;baseline-shift:baseline;text-anchor:start;white-space:normal;shape-padding:0;shape-margin:0;inline-size:0;clip-rule:nonzero;display:inline;overflow:visible;visibility:visible;isolation:auto;mix-blend-mode:normal;color-interpolation:sRGB;color-interpolation-filters:linearRGB;solid-color:#000000;solid-opacity:1;vector-effect:none;fill:#293a47;fill-opacity:1;fill-rule:nonzero;stroke:none;stroke-width:7.197;stroke-linecap:butt;stroke-linejoin:miter;stroke-miterlimit:4;stroke-dasharray:none;stroke-dashoffset:0;stroke-opacity:1;color-rendering:auto;image-rendering:auto;shape-rendering:auto;text-rendering:auto;enable-background:accumulate;stop-color:#000000;stop-opacity:1"
           d="m 940.47266,869.56445 c -10.04178,0 -18.91278,1.8069 -26.46094,5.54883 l -0.0117,0.006 -0.01,0.006 c -7.27871,3.67518 -13.41779,8.72003 -18.2832,15.03711 l -0.002,0.004 -0.004,0.004 c -4.71552,6.1662 -8.19278,13.35686 -10.44336,21.47852 l -0.004,0.0195 -0.006,0.0176 c -2.10039,7.92553 -3.14453,16.22192 -3.14453,24.85937 0,8.62005 0.97652,17.00916 2.93554,25.14844 l 0.002,0.008 0.002,0.006 c 1.98377,8.11332 5.18405,15.41106 9.61133,21.8125 l 0.0137,0.0195 0.0156,0.0195 c 4.59925,6.45449 10.53355,11.69714 17.67383,15.63282 l 0.0215,0.0137 0.0234,0.0137 c 7.34289,3.91256 16.18726,5.78126 26.36524,5.78126 10.04177,0 18.85754,-1.8052 26.29492,-5.56056 l 0.0117,-0.006 0.01,-0.006 c 7.39854,-3.79873 13.49422,-8.91854 18.1211,-15.27539 4.70196,-6.41011 8.10815,-13.78763 10.22656,-22.03906 2.09674,-8.16699 3.13867,-16.75945 3.13867,-25.7539 0,-8.8729 -1.04295,-17.2862 -3.14453,-25.21876 -1.98964,-8.10759 -5.26693,-15.29829 -9.8457,-21.46679 -4.50142,-6.23405 -10.41947,-11.18332 -17.58789,-14.74024 -7.18812,-3.62975 -15.74338,-5.36914 -25.51953,-5.36914 z m -0.18946,16.50586 c 7.22216,0 12.97743,1.37711 17.47266,3.93946 l 0.0293,0.0156 0.0293,0.0156 c 4.64514,2.53746 8.31558,5.99749 11.16797,10.55273 l 0.01,0.0156 0.01,0.0176 c 2.89966,4.51779 5.02587,9.82329 6.33985,15.98828 1.33388,6.25835 2.00587,12.89777 2.00586,19.92969 1e-5,7.02803 -0.67183,13.79634 -2.00977,20.31446 -1.31339,6.27732 -3.49647,11.76528 -6.53125,16.53906 l -0.0195,0.0234 -0.0156,0.0293 c -2.85947,4.67795 -6.61404,8.3327 -11.41796,11.11719 -4.62424,2.68032 -10.49163,4.11133 -17.82813,4.11133 -7.32335,0 -13.25605,-1.42422 -18.02148,-4.11524 -4.80494,-2.78651 -8.63431,-6.45658 -11.6211,-11.14843 -2.91413,-4.77661 -5.0447,-10.27314 -6.35937,-16.55664 -1.33794,-6.51812 -2.00977,-13.28643 -2.00977,-20.31446 0,-7.03192 0.67393,-13.67134 2.00781,-19.92969 1.30952,-6.14402 3.48307,-11.42754 6.49219,-15.93554 l 0.0117,-0.0156 0.0117,-0.0176 c 2.96038,-4.54587 6.80203,-8.01652 11.70508,-10.57031 l 0.0293,-0.0156 0.0273,-0.0156 c 4.75585,-2.58482 10.86109,-3.97461 18.48437,-3.97461 z"
           transform="matrix(0.86610216,0,0,0.88942689,-37.092557,123.23324)" /></g></g></g></g></svg>
