<?xml version="1.0"?>
<svg xmlns="http://www.w3.org/2000/svg" xmlns:v="https://vecta.io/nano" viewBox="0 0 446.168 376.045" overflow="visible"><path d="M0 51.334v324.711l204.334-43.404v43.358l241.834-51.334V58.667l-204.167 43.475V0z"/><path d="M33.667 109.75l45.5-9.75v13.5l-25.75 39.625 15.5-3.125.25-7.75 12.5-2.75v21l-48.125 10V157l25.875-39.5-14.25 2.875-.5 7-11 2.25zm86.75-46.125l22.5-5v72.091c0 3.165 2.023 3.118 6.167 2.034v13.417L137.25 148.5c-4.572.98-8.396.206-9.083-6.5-4.185 10.287-13.897 13.417-20.917 13.417-12.162 0-18.417-9.246-18.417-26.667 0-30.543 17.045-37 27.251-37 5.67 0 8.25 3.167 9.833 4.917V75.25l-5.583 1.417.083-13.042zm-13.5 61.792c0 9.599 3.037 15.167 8.667 15.167 5 0 10.416-4.39 10.416-18.833 0-12.865-3.884-17.25-8.333-17.25-3.45-.001-10.75 4.169-10.75 20.916zM156.5 96.75V83.584l6.083-1.333V71.584c0-16.922 11.584-23.917 37.584-23.75V64.25L188.5 66.584v-5.417c-5.659-.306-9.583 1.725-9.583 7V78.75l14.5-3v13.108l-13.584 3.021v34.404l8.584-1.783v13.25l-31.667 6.583v-13.167l6-1.25V95.334l-6.25 1.416zM33.417 240.124V201.5l40.5-8.625c10.153-2.176 13.74 2.706 14.75 11.998C103.45 185.975 125.821 178 136.042 178c14.896 0 22.518 9.83 22.518 28.873v82.625l-51.893 11v-69.125c0-4.125-3.625-6-8-5.125l-4.125.75v76.125l-52 11.125v-76l-9.125 1.876zm204.501-82.874c30.598 0 46.875 22.75 44.125 59.248l-64.876 13.75c.864 8.646 4.671 12.625 9.751 12.625 5.78 0 14.69-3.955 20.25-11.5l29.875-6.25v25.375c-16.559 17.741-46.063 28.875-67.251 28.875-31.161 0-43.5-21.667-43.5-49.875 0-51.267 42.114-72.248 71.626-72.248zm-3.5 49.249c-.617-7.204-3.231-12.498-7.375-12.498-5.508 0-9.294 5.752-10.376 16.248l17.751-3.75zm128.5-75.874c26.629 0 45.625 17.652 45.625 48.875 0 51.644-41.988 73.748-75.5 73.748-28.753 0-43.875-18.162-43.875-48.25 0-57.245 48.346-74.373 73.75-74.373zm-23.5 64.625c0 16.391 3.05 23.623 8 23.623 4.696 0 10.25-4.882 10.25-27.248 0-15.165-1.601-23.679-7.59-23.679-6.302 0-10.66 8.063-10.66 27.304zm-44.625 93.874v20.125l109.125-23v-20.375z" fill="#fff"/><defs/></svg>
